<?xml version="1.0" encoding="utf-8" standalone="no"?>
<!DOCTYPE svg PUBLIC "-//W3C//DTD SVG 1.1//EN"
  "http://www.w3.org/Graphics/SVG/1.1/DTD/svg11.dtd">
<svg xmlns:xlink="http://www.w3.org/1999/xlink" width="568.325312pt" height="707.191265pt" viewBox="0 0 568.325312 707.191265" xmlns="http://www.w3.org/2000/svg" version="1.1">
 <metadata>
  <rdf:RDF xmlns:dc="http://purl.org/dc/elements/1.1/" xmlns:cc="http://creativecommons.org/ns#" xmlns:rdf="http://www.w3.org/1999/02/22-rdf-syntax-ns#">
   <cc:Work>
    <dc:type rdf:resource="http://purl.org/dc/dcmitype/StillImage"/>
    <dc:date>2026-10-01T07:36:52.461359</dc:date>
    <dc:format>image/svg+xml</dc:format>
    <dc:creator>
     <cc:Agent>
      <dc:title>Matplotlib v3.10.6, https://matplotlib.org/</dc:title>
     </cc:Agent>
    </dc:creator>
   </cc:Work>
  </rdf:RDF>
 </metadata>
 <defs>
  <style type="text/css">*{stroke-linejoin: round; stroke-linecap: butt}</style>
 </defs>
 <g id="figure_1">
  <g id="patch_1">
   <path d="M 0 707.191265
L 568.325312 707.191265
L 568.325312 0
L 0 0
L 0 707.191265
z
" style="fill: none"/>
  </g>
  <g id="axes_1">
   <g id="patch_2">
    <path d="M 55.345313 165.123113
L 561.125312 165.123113
L 561.125312 18.836054
L 55.345313 18.836054
L 55.345313 165.123113
z
" style="fill: none"/>
   </g>
   <g id="matplotlib.axis_1">
    <g id="xtick_1">
     <g id="line2d_1">
      <path d="M 104.041431 165.123113
L 104.041431 18.836054
" clip-path="url(#p31451957f8)" style="fill: none; stroke: #b0b0b0; stroke-opacity: 0.2; stroke-width: 0.8; stroke-linecap: square"/>
     </g>
     <g id="line2d_2">
      <defs>
       <path id="m99554e2ed8" d="M 0 0
L 0 3.5
" style="stroke: #000000; stroke-width: 0.8"/>
      </defs>
      <g>
       <use xlink:href="#m99554e2ed8" x="104.041431" y="165.123113" style="stroke: #000000; stroke-width: 0.8"/>
      </g>
     </g>
     <g id="text_1">
      <!-- −40 -->
      <g transform="translate(93.489087 179.72155) scale(0.1 -0.1)">
       <defs>
        <path id="DejaVuSans-2212" d="M 678 2272
L 4684 2272
L 4684 1741
L 678 1741
L 678 2272
z
" transform="scale(0.015625)"/>
        <path id="DejaVuSans-34" d="M 2419 4116
L 825 1625
L 2419 1625
L 2419 4116
z
M 2253 4666
L 3047 4666
L 3047 1625
L 3713 1625
L 3713 1100
L 3047 1100
L 3047 0
L 2419 0
L 2419 1100
L 313 1100
L 313 1709
L 2253 4666
z
" transform="scale(0.015625)"/>
        <path id="DejaVuSans-30" d="M 2034 4250
Q 1547 4250 1301 3770
Q 1056 3291 1056 2328
Q 1056 1369 1301 889
Q 1547 409 2034 409
Q 2525 409 2770 889
Q 3016 1369 3016 2328
Q 3016 3291 2770 3770
Q 2525 4250 2034 4250
z
M 2034 4750
Q 2819 4750 3233 4129
Q 3647 3509 3647 2328
Q 3647 1150 3233 529
Q 2819 -91 2034 -91
Q 1250 -91 836 529
Q 422 1150 422 2328
Q 422 3509 836 4129
Q 1250 4750 2034 4750
z
" transform="scale(0.015625)"/>
       </defs>
       <use xlink:href="#DejaVuSans-2212"/>
       <use xlink:href="#DejaVuSans-34" transform="translate(83.789062 0)"/>
       <use xlink:href="#DejaVuSans-30" transform="translate(147.412109 0)"/>
      </g>
     </g>
    </g>
    <g id="xtick_2">
     <g id="line2d_3">
      <path d="M 206.865903 165.123113
L 206.865903 18.836054
" clip-path="url(#p31451957f8)" style="fill: none; stroke: #b0b0b0; stroke-opacity: 0.2; stroke-width: 0.8; stroke-linecap: square"/>
     </g>
     <g id="line2d_4">
      <g>
       <use xlink:href="#m99554e2ed8" x="206.865903" y="165.123113" style="stroke: #000000; stroke-width: 0.8"/>
      </g>
     </g>
     <g id="text_2">
      <!-- −20 -->
      <g transform="translate(196.313559 179.72155) scale(0.1 -0.1)">
       <defs>
        <path id="DejaVuSans-32" d="M 1228 531
L 3431 531
L 3431 0
L 469 0
L 469 531
Q 828 903 1448 1529
Q 2069 2156 2228 2338
Q 2531 2678 2651 2914
Q 2772 3150 2772 3378
Q 2772 3750 2511 3984
Q 2250 4219 1831 4219
Q 1534 4219 1204 4116
Q 875 4013 500 3803
L 500 4441
Q 881 4594 1212 4672
Q 1544 4750 1819 4750
Q 2544 4750 2975 4387
Q 3406 4025 3406 3419
Q 3406 3131 3298 2873
Q 3191 2616 2906 2266
Q 2828 2175 2409 1742
Q 1991 1309 1228 531
z
" transform="scale(0.015625)"/>
       </defs>
       <use xlink:href="#DejaVuSans-2212"/>
       <use xlink:href="#DejaVuSans-32" transform="translate(83.789062 0)"/>
       <use xlink:href="#DejaVuSans-30" transform="translate(147.412109 0)"/>
      </g>
     </g>
    </g>
    <g id="xtick_3">
     <g id="line2d_5">
      <path d="M 309.690376 165.123113
L 309.690376 18.836054
" clip-path="url(#p31451957f8)" style="fill: none; stroke: #b0b0b0; stroke-opacity: 0.2; stroke-width: 0.8; stroke-linecap: square"/>
     </g>
     <g id="line2d_6">
      <g>
       <use xlink:href="#m99554e2ed8" x="309.690376" y="165.123113" style="stroke: #000000; stroke-width: 0.8"/>
      </g>
     </g>
     <g id="text_3">
      <!-- 0 -->
      <g transform="translate(306.509126 179.72155) scale(0.1 -0.1)">
       <use xlink:href="#DejaVuSans-30"/>
      </g>
     </g>
    </g>
    <g id="xtick_4">
     <g id="line2d_7">
      <path d="M 412.514848 165.123113
L 412.514848 18.836054
" clip-path="url(#p31451957f8)" style="fill: none; stroke: #b0b0b0; stroke-opacity: 0.2; stroke-width: 0.8; stroke-linecap: square"/>
     </g>
     <g id="line2d_8">
      <g>
       <use xlink:href="#m99554e2ed8" x="412.514848" y="165.123113" style="stroke: #000000; stroke-width: 0.8"/>
      </g>
     </g>
     <g id="text_4">
      <!-- 20 -->
      <g transform="translate(406.152348 179.72155) scale(0.1 -0.1)">
       <use xlink:href="#DejaVuSans-32"/>
       <use xlink:href="#DejaVuSans-30" transform="translate(63.623047 0)"/>
      </g>
     </g>
    </g>
    <g id="xtick_5">
     <g id="line2d_9">
      <path d="M 515.339321 165.123113
L 515.339321 18.836054
" clip-path="url(#p31451957f8)" style="fill: none; stroke: #b0b0b0; stroke-opacity: 0.2; stroke-width: 0.8; stroke-linecap: square"/>
     </g>
     <g id="line2d_10">
      <g>
       <use xlink:href="#m99554e2ed8" x="515.339321" y="165.123113" style="stroke: #000000; stroke-width: 0.8"/>
      </g>
     </g>
     <g id="text_5">
      <!-- 40 -->
      <g transform="translate(508.976821 179.72155) scale(0.1 -0.1)">
       <use xlink:href="#DejaVuSans-34"/>
       <use xlink:href="#DejaVuSans-30" transform="translate(63.623047 0)"/>
      </g>
     </g>
    </g>
    <g id="text_6">
     <!-- Joint angle [deg] -->
     <g transform="translate(266.805625 193.399675) scale(0.1 -0.1)">
      <defs>
       <path id="DejaVuSans-4a" d="M 628 4666
L 1259 4666
L 1259 325
Q 1259 -519 939 -900
Q 619 -1281 -91 -1281
L -331 -1281
L -331 -750
L -134 -750
Q 284 -750 456 -515
Q 628 -281 628 325
L 628 4666
z
" transform="scale(0.015625)"/>
       <path id="DejaVuSans-6f" d="M 1959 3097
Q 1497 3097 1228 2736
Q 959 2375 959 1747
Q 959 1119 1226 758
Q 1494 397 1959 397
Q 2419 397 2687 759
Q 2956 1122 2956 1747
Q 2956 2369 2687 2733
Q 2419 3097 1959 3097
z
M 1959 3584
Q 2709 3584 3137 3096
Q 3566 2609 3566 1747
Q 3566 888 3137 398
Q 2709 -91 1959 -91
Q 1206 -91 779 398
Q 353 888 353 1747
Q 353 2609 779 3096
Q 1206 3584 1959 3584
z
" transform="scale(0.015625)"/>
       <path id="DejaVuSans-69" d="M 603 3500
L 1178 3500
L 1178 0
L 603 0
L 603 3500
z
M 603 4863
L 1178 4863
L 1178 4134
L 603 4134
L 603 4863
z
" transform="scale(0.015625)"/>
       <path id="DejaVuSans-6e" d="M 3513 2113
L 3513 0
L 2938 0
L 2938 2094
Q 2938 2591 2744 2837
Q 2550 3084 2163 3084
Q 1697 3084 1428 2787
Q 1159 2491 1159 1978
L 1159 0
L 581 0
L 581 3500
L 1159 3500
L 1159 2956
Q 1366 3272 1645 3428
Q 1925 3584 2291 3584
Q 2894 3584 3203 3211
Q 3513 2838 3513 2113
z
" transform="scale(0.015625)"/>
       <path id="DejaVuSans-74" d="M 1172 4494
L 1172 3500
L 2356 3500
L 2356 3053
L 1172 3053
L 1172 1153
Q 1172 725 1289 603
Q 1406 481 1766 481
L 2356 481
L 2356 0
L 1766 0
Q 1100 0 847 248
Q 594 497 594 1153
L 594 3053
L 172 3053
L 172 3500
L 594 3500
L 594 4494
L 1172 4494
z
" transform="scale(0.015625)"/>
       <path id="DejaVuSans-20" transform="scale(0.015625)"/>
       <path id="DejaVuSans-61" d="M 2194 1759
Q 1497 1759 1228 1600
Q 959 1441 959 1056
Q 959 750 1161 570
Q 1363 391 1709 391
Q 2188 391 2477 730
Q 2766 1069 2766 1631
L 2766 1759
L 2194 1759
z
M 3341 1997
L 3341 0
L 2766 0
L 2766 531
Q 2569 213 2275 61
Q 1981 -91 1556 -91
Q 1019 -91 701 211
Q 384 513 384 1019
Q 384 1609 779 1909
Q 1175 2209 1959 2209
L 2766 2209
L 2766 2266
Q 2766 2663 2505 2880
Q 2244 3097 1772 3097
Q 1472 3097 1187 3025
Q 903 2953 641 2809
L 641 3341
Q 956 3463 1253 3523
Q 1550 3584 1831 3584
Q 2591 3584 2966 3190
Q 3341 2797 3341 1997
z
" transform="scale(0.015625)"/>
       <path id="DejaVuSans-67" d="M 2906 1791
Q 2906 2416 2648 2759
Q 2391 3103 1925 3103
Q 1463 3103 1205 2759
Q 947 2416 947 1791
Q 947 1169 1205 825
Q 1463 481 1925 481
Q 2391 481 2648 825
Q 2906 1169 2906 1791
z
M 3481 434
Q 3481 -459 3084 -895
Q 2688 -1331 1869 -1331
Q 1566 -1331 1297 -1286
Q 1028 -1241 775 -1147
L 775 -588
Q 1028 -725 1275 -790
Q 1522 -856 1778 -856
Q 2344 -856 2625 -561
Q 2906 -266 2906 331
L 2906 616
Q 2728 306 2450 153
Q 2172 0 1784 0
Q 1141 0 747 490
Q 353 981 353 1791
Q 353 2603 747 3093
Q 1141 3584 1784 3584
Q 2172 3584 2450 3431
Q 2728 3278 2906 2969
L 2906 3500
L 3481 3500
L 3481 434
z
" transform="scale(0.015625)"/>
       <path id="DejaVuSans-6c" d="M 603 4863
L 1178 4863
L 1178 0
L 603 0
L 603 4863
z
" transform="scale(0.015625)"/>
       <path id="DejaVuSans-65" d="M 3597 1894
L 3597 1613
L 953 1613
Q 991 1019 1311 708
Q 1631 397 2203 397
Q 2534 397 2845 478
Q 3156 559 3463 722
L 3463 178
Q 3153 47 2828 -22
Q 2503 -91 2169 -91
Q 1331 -91 842 396
Q 353 884 353 1716
Q 353 2575 817 3079
Q 1281 3584 2069 3584
Q 2775 3584 3186 3129
Q 3597 2675 3597 1894
z
M 3022 2063
Q 3016 2534 2758 2815
Q 2500 3097 2075 3097
Q 1594 3097 1305 2825
Q 1016 2553 972 2059
L 3022 2063
z
" transform="scale(0.015625)"/>
       <path id="DejaVuSans-5b" d="M 550 4863
L 1875 4863
L 1875 4416
L 1125 4416
L 1125 -397
L 1875 -397
L 1875 -844
L 550 -844
L 550 4863
z
" transform="scale(0.015625)"/>
       <path id="DejaVuSans-64" d="M 2906 2969
L 2906 4863
L 3481 4863
L 3481 0
L 2906 0
L 2906 525
Q 2725 213 2448 61
Q 2172 -91 1784 -91
Q 1150 -91 751 415
Q 353 922 353 1747
Q 353 2572 751 3078
Q 1150 3584 1784 3584
Q 2172 3584 2448 3432
Q 2725 3281 2906 2969
z
M 947 1747
Q 947 1113 1208 752
Q 1469 391 1925 391
Q 2381 391 2643 752
Q 2906 1113 2906 1747
Q 2906 2381 2643 2742
Q 2381 3103 1925 3103
Q 1469 3103 1208 2742
Q 947 2381 947 1747
z
" transform="scale(0.015625)"/>
       <path id="DejaVuSans-5d" d="M 1947 4863
L 1947 -844
L 622 -844
L 622 -397
L 1369 -397
L 1369 4416
L 622 4416
L 622 4863
L 1947 4863
z
" transform="scale(0.015625)"/>
      </defs>
      <use xlink:href="#DejaVuSans-4a"/>
      <use xlink:href="#DejaVuSans-6f" transform="translate(29.492188 0)"/>
      <use xlink:href="#DejaVuSans-69" transform="translate(90.673828 0)"/>
      <use xlink:href="#DejaVuSans-6e" transform="translate(118.457031 0)"/>
      <use xlink:href="#DejaVuSans-74" transform="translate(181.835938 0)"/>
      <use xlink:href="#DejaVuSans-20" transform="translate(221.044922 0)"/>
      <use xlink:href="#DejaVuSans-61" transform="translate(252.832031 0)"/>
      <use xlink:href="#DejaVuSans-6e" transform="translate(314.111328 0)"/>
      <use xlink:href="#DejaVuSans-67" transform="translate(377.490234 0)"/>
      <use xlink:href="#DejaVuSans-6c" transform="translate(440.966797 0)"/>
      <use xlink:href="#DejaVuSans-65" transform="translate(468.75 0)"/>
      <use xlink:href="#DejaVuSans-20" transform="translate(530.273438 0)"/>
      <use xlink:href="#DejaVuSans-5b" transform="translate(562.060547 0)"/>
      <use xlink:href="#DejaVuSans-64" transform="translate(601.074219 0)"/>
      <use xlink:href="#DejaVuSans-65" transform="translate(664.550781 0)"/>
      <use xlink:href="#DejaVuSans-67" transform="translate(726.074219 0)"/>
      <use xlink:href="#DejaVuSans-5d" transform="translate(789.550781 0)"/>
     </g>
    </g>
   </g>
   <g id="matplotlib.axis_2">
    <g id="ytick_1">
     <g id="line2d_11">
      <path d="M 55.345313 145.333487
L 561.125312 145.333487
" clip-path="url(#p31451957f8)" style="fill: none; stroke: #b0b0b0; stroke-opacity: 0.2; stroke-width: 0.8; stroke-linecap: square"/>
     </g>
     <g id="line2d_12">
      <defs>
       <path id="m6d66307c50" d="M 0 0
L -3.5 0
" style="stroke: #000000; stroke-width: 0.8"/>
      </defs>
      <g>
       <use xlink:href="#m6d66307c50" x="55.345313" y="145.333487" style="stroke: #000000; stroke-width: 0.8"/>
      </g>
     </g>
     <g id="text_7">
      <!-- −25 -->
      <g transform="translate(27.240625 149.132706) scale(0.1 -0.1)">
       <defs>
        <path id="DejaVuSans-35" d="M 691 4666
L 3169 4666
L 3169 4134
L 1269 4134
L 1269 2991
Q 1406 3038 1543 3061
Q 1681 3084 1819 3084
Q 2600 3084 3056 2656
Q 3513 2228 3513 1497
Q 3513 744 3044 326
Q 2575 -91 1722 -91
Q 1428 -91 1123 -41
Q 819 9 494 109
L 494 744
Q 775 591 1075 516
Q 1375 441 1709 441
Q 2250 441 2565 725
Q 2881 1009 2881 1497
Q 2881 1984 2565 2268
Q 2250 2553 1709 2553
Q 1456 2553 1204 2497
Q 953 2441 691 2322
L 691 4666
z
" transform="scale(0.015625)"/>
       </defs>
       <use xlink:href="#DejaVuSans-2212"/>
       <use xlink:href="#DejaVuSans-32" transform="translate(83.789062 0)"/>
       <use xlink:href="#DejaVuSans-35" transform="translate(147.412109 0)"/>
      </g>
     </g>
    </g>
    <g id="ytick_2">
     <g id="line2d_13">
      <path d="M 55.345313 122.073244
L 561.125312 122.073244
" clip-path="url(#p31451957f8)" style="fill: none; stroke: #b0b0b0; stroke-opacity: 0.2; stroke-width: 0.8; stroke-linecap: square"/>
     </g>
     <g id="line2d_14">
      <g>
       <use xlink:href="#m6d66307c50" x="55.345313" y="122.073244" style="stroke: #000000; stroke-width: 0.8"/>
      </g>
     </g>
     <g id="text_8">
      <!-- 0 -->
      <g transform="translate(41.982813 125.872463) scale(0.1 -0.1)">
       <use xlink:href="#DejaVuSans-30"/>
      </g>
     </g>
    </g>
    <g id="ytick_3">
     <g id="line2d_15">
      <path d="M 55.345313 98.813
L 561.125312 98.813
" clip-path="url(#p31451957f8)" style="fill: none; stroke: #b0b0b0; stroke-opacity: 0.2; stroke-width: 0.8; stroke-linecap: square"/>
     </g>
     <g id="line2d_16">
      <g>
       <use xlink:href="#m6d66307c50" x="55.345313" y="98.813" style="stroke: #000000; stroke-width: 0.8"/>
      </g>
     </g>
     <g id="text_9">
      <!-- 25 -->
      <g transform="translate(35.620313 102.612219) scale(0.1 -0.1)">
       <use xlink:href="#DejaVuSans-32"/>
       <use xlink:href="#DejaVuSans-35" transform="translate(63.623047 0)"/>
      </g>
     </g>
    </g>
    <g id="ytick_4">
     <g id="line2d_17">
      <path d="M 55.345313 75.552757
L 561.125312 75.552757
" clip-path="url(#p31451957f8)" style="fill: none; stroke: #b0b0b0; stroke-opacity: 0.2; stroke-width: 0.8; stroke-linecap: square"/>
     </g>
     <g id="line2d_18">
      <g>
       <use xlink:href="#m6d66307c50" x="55.345313" y="75.552757" style="stroke: #000000; stroke-width: 0.8"/>
      </g>
     </g>
     <g id="text_10">
      <!-- 50 -->
      <g transform="translate(35.620313 79.351975) scale(0.1 -0.1)">
       <use xlink:href="#DejaVuSans-35"/>
       <use xlink:href="#DejaVuSans-30" transform="translate(63.623047 0)"/>
      </g>
     </g>
    </g>
    <g id="ytick_5">
     <g id="line2d_19">
      <path d="M 55.345313 52.292513
L 561.125312 52.292513
" clip-path="url(#p31451957f8)" style="fill: none; stroke: #b0b0b0; stroke-opacity: 0.2; stroke-width: 0.8; stroke-linecap: square"/>
     </g>
     <g id="line2d_20">
      <g>
       <use xlink:href="#m6d66307c50" x="55.345313" y="52.292513" style="stroke: #000000; stroke-width: 0.8"/>
      </g>
     </g>
     <g id="text_11">
      <!-- 75 -->
      <g transform="translate(35.620313 56.091732) scale(0.1 -0.1)">
       <defs>
        <path id="DejaVuSans-37" d="M 525 4666
L 3525 4666
L 3525 4397
L 1831 0
L 1172 0
L 2766 4134
L 525 4134
L 525 4666
z
" transform="scale(0.015625)"/>
       </defs>
       <use xlink:href="#DejaVuSans-37"/>
       <use xlink:href="#DejaVuSans-35" transform="translate(63.623047 0)"/>
      </g>
     </g>
    </g>
    <g id="ytick_6">
     <g id="line2d_21">
      <path d="M 55.345313 29.032269
L 561.125312 29.032269
" clip-path="url(#p31451957f8)" style="fill: none; stroke: #b0b0b0; stroke-opacity: 0.2; stroke-width: 0.8; stroke-linecap: square"/>
     </g>
     <g id="line2d_22">
      <g>
       <use xlink:href="#m6d66307c50" x="55.345313" y="29.032269" style="stroke: #000000; stroke-width: 0.8"/>
      </g>
     </g>
     <g id="text_12">
      <!-- 100 -->
      <g transform="translate(29.257813 32.831488) scale(0.1 -0.1)">
       <defs>
        <path id="DejaVuSans-31" d="M 794 531
L 1825 531
L 1825 4091
L 703 3866
L 703 4441
L 1819 4666
L 2450 4666
L 2450 531
L 3481 531
L 3481 0
L 794 0
L 794 531
z
" transform="scale(0.015625)"/>
       </defs>
       <use xlink:href="#DejaVuSans-31"/>
       <use xlink:href="#DejaVuSans-30" transform="translate(63.623047 0)"/>
       <use xlink:href="#DejaVuSans-30" transform="translate(127.246094 0)"/>
      </g>
     </g>
    </g>
    <g id="text_13">
     <!-- Torque [N m] -->
     <g transform="translate(21.160938 124.320989) rotate(-90) scale(0.1 -0.1)">
      <defs>
       <path id="DejaVuSans-54" d="M -19 4666
L 3928 4666
L 3928 4134
L 2272 4134
L 2272 0
L 1638 0
L 1638 4134
L -19 4134
L -19 4666
z
" transform="scale(0.015625)"/>
       <path id="DejaVuSans-72" d="M 2631 2963
Q 2534 3019 2420 3045
Q 2306 3072 2169 3072
Q 1681 3072 1420 2755
Q 1159 2438 1159 1844
L 1159 0
L 581 0
L 581 3500
L 1159 3500
L 1159 2956
Q 1341 3275 1631 3429
Q 1922 3584 2338 3584
Q 2397 3584 2469 3576
Q 2541 3569 2628 3553
L 2631 2963
z
" transform="scale(0.015625)"/>
       <path id="DejaVuSans-71" d="M 947 1747
Q 947 1113 1208 752
Q 1469 391 1925 391
Q 2381 391 2643 752
Q 2906 1113 2906 1747
Q 2906 2381 2643 2742
Q 2381 3103 1925 3103
Q 1469 3103 1208 2742
Q 947 2381 947 1747
z
M 2906 525
Q 2725 213 2448 61
Q 2172 -91 1784 -91
Q 1150 -91 751 415
Q 353 922 353 1747
Q 353 2572 751 3078
Q 1150 3584 1784 3584
Q 2172 3584 2448 3432
Q 2725 3281 2906 2969
L 2906 3500
L 3481 3500
L 3481 -1331
L 2906 -1331
L 2906 525
z
" transform="scale(0.015625)"/>
       <path id="DejaVuSans-75" d="M 544 1381
L 544 3500
L 1119 3500
L 1119 1403
Q 1119 906 1312 657
Q 1506 409 1894 409
Q 2359 409 2629 706
Q 2900 1003 2900 1516
L 2900 3500
L 3475 3500
L 3475 0
L 2900 0
L 2900 538
Q 2691 219 2414 64
Q 2138 -91 1772 -91
Q 1169 -91 856 284
Q 544 659 544 1381
z
M 1991 3584
L 1991 3584
z
" transform="scale(0.015625)"/>
       <path id="DejaVuSans-4e" d="M 628 4666
L 1478 4666
L 3547 763
L 3547 4666
L 4159 4666
L 4159 0
L 3309 0
L 1241 3903
L 1241 0
L 628 0
L 628 4666
z
" transform="scale(0.015625)"/>
       <path id="DejaVuSans-6d" d="M 3328 2828
Q 3544 3216 3844 3400
Q 4144 3584 4550 3584
Q 5097 3584 5394 3201
Q 5691 2819 5691 2113
L 5691 0
L 5113 0
L 5113 2094
Q 5113 2597 4934 2840
Q 4756 3084 4391 3084
Q 3944 3084 3684 2787
Q 3425 2491 3425 1978
L 3425 0
L 2847 0
L 2847 2094
Q 2847 2600 2669 2842
Q 2491 3084 2119 3084
Q 1678 3084 1418 2786
Q 1159 2488 1159 1978
L 1159 0
L 581 0
L 581 3500
L 1159 3500
L 1159 2956
Q 1356 3278 1631 3431
Q 1906 3584 2284 3584
Q 2666 3584 2933 3390
Q 3200 3197 3328 2828
z
" transform="scale(0.015625)"/>
      </defs>
      <use xlink:href="#DejaVuSans-54"/>
      <use xlink:href="#DejaVuSans-6f" transform="translate(44.083984 0)"/>
      <use xlink:href="#DejaVuSans-72" transform="translate(105.265625 0)"/>
      <use xlink:href="#DejaVuSans-71" transform="translate(144.628906 0)"/>
      <use xlink:href="#DejaVuSans-75" transform="translate(208.105469 0)"/>
      <use xlink:href="#DejaVuSans-65" transform="translate(271.484375 0)"/>
      <use xlink:href="#DejaVuSans-20" transform="translate(333.007812 0)"/>
      <use xlink:href="#DejaVuSans-5b" transform="translate(364.794922 0)"/>
      <use xlink:href="#DejaVuSans-4e" transform="translate(403.808594 0)"/>
      <use xlink:href="#DejaVuSans-20" transform="translate(478.613281 0)"/>
      <use xlink:href="#DejaVuSans-6d" transform="translate(510.400391 0)"/>
      <use xlink:href="#DejaVuSans-5d" transform="translate(607.8125 0)"/>
     </g>
    </g>
   </g>
   <g id="line2d_23">
    <path d="M 78.335313 131.244484
L 241.302401 117.761747
L 247.122654 117.665232
L 386.80873 128.078616
L 392.628983 97.511314
L 398.449237 48.416347
L 404.26949 31.752992
L 538.135312 126.233592
L 404.26949 31.752992
L 398.449237 48.416347
L 392.628983 97.511314
L 386.80873 128.078616
L 247.122654 117.665232
L 241.302401 117.761747
L 78.335313 131.244484
L 78.335313 131.244484
" clip-path="url(#p31451957f8)" style="fill: none; stroke-dasharray: 7.4,3.2; stroke-dashoffset: 0; stroke: #000000; stroke-width: 2"/>
   </g>
   <g id="line2d_24">
    <path d="M 78.335313 87.03386
L 84.155566 86.458516
L 89.975819 86.011064
L 95.796072 85.737454
L 101.616325 85.655878
L 107.436578 85.756293
L 113.256831 86.015479
L 119.077085 86.408606
L 130.717591 87.512588
L 142.358097 88.93145
L 153.998604 90.570922
L 171.459363 93.323961
L 188.920123 96.34923
L 206.380882 99.603382
L 223.841642 103.060614
L 247.122654 107.944605
L 270.403667 113.079498
L 305.325186 121.064949
L 351.887211 131.719856
L 375.168224 136.827648
L 398.449237 141.675204
L 415.909996 145.100186
L 433.370756 148.318187
L 450.831515 151.301932
L 468.292275 154.002397
L 479.932781 155.593453
L 491.573287 156.943968
L 503.213794 157.949731
L 509.034047 158.278851
L 514.8543 158.461843
L 520.674553 158.473701
L 526.494806 158.295891
L 532.315059 157.930998
L 538.135312 157.412995
L 532.315059 157.930998
L 526.494806 158.295891
L 520.674553 158.473701
L 514.8543 158.461843
L 509.034047 158.278851
L 503.213794 157.949731
L 491.573287 156.943968
L 479.932781 155.593453
L 468.292275 154.002397
L 450.831515 151.301932
L 433.370756 148.318187
L 415.909996 145.100186
L 398.449237 141.675204
L 375.168224 136.827648
L 351.887211 131.719856
L 322.785945 125.095402
L 264.583414 111.776578
L 241.302401 106.697162
L 218.021388 101.887061
L 200.560629 98.49497
L 183.099869 95.31384
L 165.63911 92.37287
L 148.17835 89.727997
L 136.537844 88.189465
L 124.897338 86.913793
L 119.077085 86.408606
L 113.256831 86.015479
L 107.436578 85.756293
L 101.616325 85.655878
L 95.796072 85.737454
L 89.975819 86.011064
L 84.155566 86.458516
L 78.335313 87.03386
L 78.335313 87.03386
" clip-path="url(#p31451957f8)" style="fill: none; stroke: #8c8c8c; stroke-width: 2; stroke-linecap: square"/>
   </g>
   <g id="line2d_25">
    <path d="M 78.335313 104.055346
L 89.975819 103.274949
L 101.616325 102.826718
L 113.256831 102.74861
L 124.897338 102.961223
L 136.537844 103.381145
L 153.998604 104.259761
L 177.279616 105.704738
L 200.560629 107.371506
L 223.841642 109.241496
L 247.122654 111.308336
L 276.22392 114.14412
L 305.325186 117.208067
L 346.066958 121.742043
L 433.370756 131.556038
L 462.472021 134.628034
L 479.932781 136.318515
L 491.573287 137.297307
L 503.213794 138.061321
L 514.8543 138.505032
L 526.494806 138.531394
L 538.135312 138.157325
L 520.674553 138.573752
L 509.034047 138.330279
L 497.39354 137.7124
L 485.753034 136.828792
L 468.292275 135.211165
L 439.191009 132.185205
L 398.449237 127.687116
L 293.68468 115.959487
L 264.583414 112.97884
L 235.482148 110.250991
L 212.201135 108.281392
L 188.920123 106.512341
L 165.63911 104.951417
L 148.17835 103.941945
L 130.717591 103.149817
L 119.077085 102.824196
L 107.436578 102.745552
L 95.796072 103.002165
L 84.155566 103.634141
L 78.335313 104.055346
L 78.335313 104.055346
" clip-path="url(#p31451957f8)" style="fill: none; stroke: #2f6f9f; stroke-width: 2; stroke-linecap: square"/>
   </g>
   <g id="line2d_26">
    <path d="M 78.335313 149.262381
L 89.975819 149.079726
L 101.616325 148.564904
L 113.256831 147.67996
L 124.897338 146.504294
L 136.537844 145.121319
L 153.998604 142.798124
L 177.279616 139.427042
L 200.560629 135.834169
L 223.841642 132.038074
L 241.302401 129.061185
L 247.122654 128.43014
L 276.22392 127.763812
L 305.325186 126.869319
L 346.066958 125.37258
L 386.80873 123.779362
L 392.628983 92.55366
L 398.449237 42.802475
L 404.26949 25.485465
L 450.831515 53.264935
L 474.112528 67.343833
L 491.573287 78.146711
L 503.213794 85.598401
L 514.8543 93.370395
L 526.494806 101.559737
L 538.135312 110.149511
L 520.674553 97.409527
L 509.034047 89.437296
L 497.39354 81.83947
L 485.753034 74.507374
L 468.292275 63.801444
L 439.191009 46.288144
L 404.26949 25.485465
L 398.449237 42.802475
L 392.628983 92.55366
L 386.80873 123.779362
L 299.504933 127.063149
L 270.403667 127.917411
L 247.122654 128.43014
L 241.302401 129.061185
L 218.021388 133.00589
L 194.740376 136.751643
L 171.459363 140.292311
L 148.17835 143.597467
L 130.717591 145.834174
L 119.077085 147.122847
L 107.436578 148.164544
L 95.796072 148.870983
L 84.155566 149.20206
L 78.335313 149.262381
L 78.335313 149.262381
" clip-path="url(#p31451957f8)" style="fill: none; stroke: #d97720; stroke-width: 1.6; stroke-linecap: square"/>
   </g>
   <g id="patch_3">
    <path d="M 55.345313 165.123113
L 55.345313 18.836054
" style="fill: none; stroke: #000000; stroke-width: 0.8; stroke-linejoin: miter; stroke-linecap: square"/>
   </g>
   <g id="patch_4">
    <path d="M 561.125312 165.123113
L 561.125312 18.836054
" style="fill: none; stroke: #000000; stroke-width: 0.8; stroke-linejoin: miter; stroke-linecap: square"/>
   </g>
   <g id="patch_5">
    <path d="M 55.345313 165.123113
L 561.125312 165.123113
" style="fill: none; stroke: #000000; stroke-width: 0.8; stroke-linejoin: miter; stroke-linecap: square"/>
   </g>
   <g id="patch_6">
    <path d="M 55.345313 18.836054
L 561.125312 18.836054
" style="fill: none; stroke: #000000; stroke-width: 0.8; stroke-linejoin: miter; stroke-linecap: square"/>
   </g>
   <g id="text_14">
    <!-- lowest offload: -58.2% offload, 39.7 N m RMSE -->
    <g transform="translate(55.345313 14.038594) scale(0.09 -0.09)">
     <defs>
      <path id="DejaVuSans-77" d="M 269 3500
L 844 3500
L 1563 769
L 2278 3500
L 2956 3500
L 3675 769
L 4391 3500
L 4966 3500
L 4050 0
L 3372 0
L 2619 2869
L 1863 0
L 1184 0
L 269 3500
z
" transform="scale(0.015625)"/>
      <path id="DejaVuSans-73" d="M 2834 3397
L 2834 2853
Q 2591 2978 2328 3040
Q 2066 3103 1784 3103
Q 1356 3103 1142 2972
Q 928 2841 928 2578
Q 928 2378 1081 2264
Q 1234 2150 1697 2047
L 1894 2003
Q 2506 1872 2764 1633
Q 3022 1394 3022 966
Q 3022 478 2636 193
Q 2250 -91 1575 -91
Q 1294 -91 989 -36
Q 684 19 347 128
L 347 722
Q 666 556 975 473
Q 1284 391 1588 391
Q 1994 391 2212 530
Q 2431 669 2431 922
Q 2431 1156 2273 1281
Q 2116 1406 1581 1522
L 1381 1569
Q 847 1681 609 1914
Q 372 2147 372 2553
Q 372 3047 722 3315
Q 1072 3584 1716 3584
Q 2034 3584 2315 3537
Q 2597 3491 2834 3397
z
" transform="scale(0.015625)"/>
      <path id="DejaVuSans-66" d="M 2375 4863
L 2375 4384
L 1825 4384
Q 1516 4384 1395 4259
Q 1275 4134 1275 3809
L 1275 3500
L 2222 3500
L 2222 3053
L 1275 3053
L 1275 0
L 697 0
L 697 3053
L 147 3053
L 147 3500
L 697 3500
L 697 3744
Q 697 4328 969 4595
Q 1241 4863 1831 4863
L 2375 4863
z
" transform="scale(0.015625)"/>
      <path id="DejaVuSans-3a" d="M 750 794
L 1409 794
L 1409 0
L 750 0
L 750 794
z
M 750 3309
L 1409 3309
L 1409 2516
L 750 2516
L 750 3309
z
" transform="scale(0.015625)"/>
      <path id="DejaVuSans-2d" d="M 313 2009
L 1997 2009
L 1997 1497
L 313 1497
L 313 2009
z
" transform="scale(0.015625)"/>
      <path id="DejaVuSans-38" d="M 2034 2216
Q 1584 2216 1326 1975
Q 1069 1734 1069 1313
Q 1069 891 1326 650
Q 1584 409 2034 409
Q 2484 409 2743 651
Q 3003 894 3003 1313
Q 3003 1734 2745 1975
Q 2488 2216 2034 2216
z
M 1403 2484
Q 997 2584 770 2862
Q 544 3141 544 3541
Q 544 4100 942 4425
Q 1341 4750 2034 4750
Q 2731 4750 3128 4425
Q 3525 4100 3525 3541
Q 3525 3141 3298 2862
Q 3072 2584 2669 2484
Q 3125 2378 3379 2068
Q 3634 1759 3634 1313
Q 3634 634 3220 271
Q 2806 -91 2034 -91
Q 1263 -91 848 271
Q 434 634 434 1313
Q 434 1759 690 2068
Q 947 2378 1403 2484
z
M 1172 3481
Q 1172 3119 1398 2916
Q 1625 2713 2034 2713
Q 2441 2713 2670 2916
Q 2900 3119 2900 3481
Q 2900 3844 2670 4047
Q 2441 4250 2034 4250
Q 1625 4250 1398 4047
Q 1172 3844 1172 3481
z
" transform="scale(0.015625)"/>
      <path id="DejaVuSans-2e" d="M 684 794
L 1344 794
L 1344 0
L 684 0
L 684 794
z
" transform="scale(0.015625)"/>
      <path id="DejaVuSans-25" d="M 4653 2053
Q 4381 2053 4226 1822
Q 4072 1591 4072 1178
Q 4072 772 4226 539
Q 4381 306 4653 306
Q 4919 306 5073 539
Q 5228 772 5228 1178
Q 5228 1588 5073 1820
Q 4919 2053 4653 2053
z
M 4653 2450
Q 5147 2450 5437 2106
Q 5728 1763 5728 1178
Q 5728 594 5436 251
Q 5144 -91 4653 -91
Q 4153 -91 3862 251
Q 3572 594 3572 1178
Q 3572 1766 3864 2108
Q 4156 2450 4653 2450
z
M 1428 4353
Q 1159 4353 1004 4120
Q 850 3888 850 3481
Q 850 3069 1003 2837
Q 1156 2606 1428 2606
Q 1700 2606 1854 2837
Q 2009 3069 2009 3481
Q 2009 3884 1853 4118
Q 1697 4353 1428 4353
z
M 4250 4750
L 4750 4750
L 1831 -91
L 1331 -91
L 4250 4750
z
M 1428 4750
Q 1922 4750 2215 4408
Q 2509 4066 2509 3481
Q 2509 2891 2217 2550
Q 1925 2209 1428 2209
Q 931 2209 642 2551
Q 353 2894 353 3481
Q 353 4063 643 4406
Q 934 4750 1428 4750
z
" transform="scale(0.015625)"/>
      <path id="DejaVuSans-2c" d="M 750 794
L 1409 794
L 1409 256
L 897 -744
L 494 -744
L 750 256
L 750 794
z
" transform="scale(0.015625)"/>
      <path id="DejaVuSans-33" d="M 2597 2516
Q 3050 2419 3304 2112
Q 3559 1806 3559 1356
Q 3559 666 3084 287
Q 2609 -91 1734 -91
Q 1441 -91 1130 -33
Q 819 25 488 141
L 488 750
Q 750 597 1062 519
Q 1375 441 1716 441
Q 2309 441 2620 675
Q 2931 909 2931 1356
Q 2931 1769 2642 2001
Q 2353 2234 1838 2234
L 1294 2234
L 1294 2753
L 1863 2753
Q 2328 2753 2575 2939
Q 2822 3125 2822 3475
Q 2822 3834 2567 4026
Q 2313 4219 1838 4219
Q 1578 4219 1281 4162
Q 984 4106 628 3988
L 628 4550
Q 988 4650 1302 4700
Q 1616 4750 1894 4750
Q 2613 4750 3031 4423
Q 3450 4097 3450 3541
Q 3450 3153 3228 2886
Q 3006 2619 2597 2516
z
" transform="scale(0.015625)"/>
      <path id="DejaVuSans-39" d="M 703 97
L 703 672
Q 941 559 1184 500
Q 1428 441 1663 441
Q 2288 441 2617 861
Q 2947 1281 2994 2138
Q 2813 1869 2534 1725
Q 2256 1581 1919 1581
Q 1219 1581 811 2004
Q 403 2428 403 3163
Q 403 3881 828 4315
Q 1253 4750 1959 4750
Q 2769 4750 3195 4129
Q 3622 3509 3622 2328
Q 3622 1225 3098 567
Q 2575 -91 1691 -91
Q 1453 -91 1209 -44
Q 966 3 703 97
z
M 1959 2075
Q 2384 2075 2632 2365
Q 2881 2656 2881 3163
Q 2881 3666 2632 3958
Q 2384 4250 1959 4250
Q 1534 4250 1286 3958
Q 1038 3666 1038 3163
Q 1038 2656 1286 2365
Q 1534 2075 1959 2075
z
" transform="scale(0.015625)"/>
      <path id="DejaVuSans-52" d="M 2841 2188
Q 3044 2119 3236 1894
Q 3428 1669 3622 1275
L 4263 0
L 3584 0
L 2988 1197
Q 2756 1666 2539 1819
Q 2322 1972 1947 1972
L 1259 1972
L 1259 0
L 628 0
L 628 4666
L 2053 4666
Q 2853 4666 3247 4331
Q 3641 3997 3641 3322
Q 3641 2881 3436 2590
Q 3231 2300 2841 2188
z
M 1259 4147
L 1259 2491
L 2053 2491
Q 2509 2491 2742 2702
Q 2975 2913 2975 3322
Q 2975 3731 2742 3939
Q 2509 4147 2053 4147
L 1259 4147
z
" transform="scale(0.015625)"/>
      <path id="DejaVuSans-4d" d="M 628 4666
L 1569 4666
L 2759 1491
L 3956 4666
L 4897 4666
L 4897 0
L 4281 0
L 4281 4097
L 3078 897
L 2444 897
L 1241 4097
L 1241 0
L 628 0
L 628 4666
z
" transform="scale(0.015625)"/>
      <path id="DejaVuSans-53" d="M 3425 4513
L 3425 3897
Q 3066 4069 2747 4153
Q 2428 4238 2131 4238
Q 1616 4238 1336 4038
Q 1056 3838 1056 3469
Q 1056 3159 1242 3001
Q 1428 2844 1947 2747
L 2328 2669
Q 3034 2534 3370 2195
Q 3706 1856 3706 1288
Q 3706 609 3251 259
Q 2797 -91 1919 -91
Q 1588 -91 1214 -16
Q 841 59 441 206
L 441 856
Q 825 641 1194 531
Q 1563 422 1919 422
Q 2459 422 2753 634
Q 3047 847 3047 1241
Q 3047 1584 2836 1778
Q 2625 1972 2144 2069
L 1759 2144
Q 1053 2284 737 2584
Q 422 2884 422 3419
Q 422 4038 858 4394
Q 1294 4750 2059 4750
Q 2388 4750 2728 4690
Q 3069 4631 3425 4513
z
" transform="scale(0.015625)"/>
      <path id="DejaVuSans-45" d="M 628 4666
L 3578 4666
L 3578 4134
L 1259 4134
L 1259 2753
L 3481 2753
L 3481 2222
L 1259 2222
L 1259 531
L 3634 531
L 3634 0
L 628 0
L 628 4666
z
" transform="scale(0.015625)"/>
     </defs>
     <use xlink:href="#DejaVuSans-6c"/>
     <use xlink:href="#DejaVuSans-6f" transform="translate(27.783203 0)"/>
     <use xlink:href="#DejaVuSans-77" transform="translate(88.964844 0)"/>
     <use xlink:href="#DejaVuSans-65" transform="translate(170.751953 0)"/>
     <use xlink:href="#DejaVuSans-73" transform="translate(232.275391 0)"/>
     <use xlink:href="#DejaVuSans-74" transform="translate(284.375 0)"/>
     <use xlink:href="#DejaVuSans-20" transform="translate(323.583984 0)"/>
     <use xlink:href="#DejaVuSans-6f" transform="translate(355.371094 0)"/>
     <use xlink:href="#DejaVuSans-66" transform="translate(416.552734 0)"/>
     <use xlink:href="#DejaVuSans-66" transform="translate(451.757812 0)"/>
     <use xlink:href="#DejaVuSans-6c" transform="translate(486.962891 0)"/>
     <use xlink:href="#DejaVuSans-6f" transform="translate(514.746094 0)"/>
     <use xlink:href="#DejaVuSans-61" transform="translate(575.927734 0)"/>
     <use xlink:href="#DejaVuSans-64" transform="translate(637.207031 0)"/>
     <use xlink:href="#DejaVuSans-3a" transform="translate(700.683594 0)"/>
     <use xlink:href="#DejaVuSans-20" transform="translate(734.375 0)"/>
     <use xlink:href="#DejaVuSans-2d" transform="translate(766.162109 0)"/>
     <use xlink:href="#DejaVuSans-35" transform="translate(802.246094 0)"/>
     <use xlink:href="#DejaVuSans-38" transform="translate(865.869141 0)"/>
     <use xlink:href="#DejaVuSans-2e" transform="translate(929.492188 0)"/>
     <use xlink:href="#DejaVuSans-32" transform="translate(961.279297 0)"/>
     <use xlink:href="#DejaVuSans-25" transform="translate(1024.902344 0)"/>
     <use xlink:href="#DejaVuSans-20" transform="translate(1119.921875 0)"/>
     <use xlink:href="#DejaVuSans-6f" transform="translate(1151.708984 0)"/>
     <use xlink:href="#DejaVuSans-66" transform="translate(1212.890625 0)"/>
     <use xlink:href="#DejaVuSans-66" transform="translate(1248.095703 0)"/>
     <use xlink:href="#DejaVuSans-6c" transform="translate(1283.300781 0)"/>
     <use xlink:href="#DejaVuSans-6f" transform="translate(1311.083984 0)"/>
     <use xlink:href="#DejaVuSans-61" transform="translate(1372.265625 0)"/>
     <use xlink:href="#DejaVuSans-64" transform="translate(1433.544922 0)"/>
     <use xlink:href="#DejaVuSans-2c" transform="translate(1497.021484 0)"/>
     <use xlink:href="#DejaVuSans-20" transform="translate(1528.808594 0)"/>
     <use xlink:href="#DejaVuSans-33" transform="translate(1560.595703 0)"/>
     <use xlink:href="#DejaVuSans-39" transform="translate(1624.21875 0)"/>
     <use xlink:href="#DejaVuSans-2e" transform="translate(1687.841797 0)"/>
     <use xlink:href="#DejaVuSans-37" transform="translate(1719.628906 0)"/>
     <use xlink:href="#DejaVuSans-20" transform="translate(1783.251953 0)"/>
     <use xlink:href="#DejaVuSans-4e" transform="translate(1815.039062 0)"/>
     <use xlink:href="#DejaVuSans-20" transform="translate(1889.84375 0)"/>
     <use xlink:href="#DejaVuSans-6d" transform="translate(1921.630859 0)"/>
     <use xlink:href="#DejaVuSans-20" transform="translate(2019.042969 0)"/>
     <use xlink:href="#DejaVuSans-52" transform="translate(2050.830078 0)"/>
     <use xlink:href="#DejaVuSans-4d" transform="translate(2120.3125 0)"/>
     <use xlink:href="#DejaVuSans-53" transform="translate(2206.591797 0)"/>
     <use xlink:href="#DejaVuSans-45" transform="translate(2270.068359 0)"/>
    </g>
   </g>
   <g id="legend_1">
    <g id="patch_7">
     <path d="M 199.765937 227.191265
L 416.704687 227.191265
Q 418.304688 227.191265 418.304688 225.591265
L 418.304688 202.906265
Q 418.304688 201.306265 416.704687 201.306265
L 199.765937 201.306265
Q 198.165937 201.306265 198.165937 202.906265
L 198.165937 225.591265
Q 198.165937 227.191265 199.765937 227.191265
z
" style="fill: #ffffff; opacity: 0.8; stroke: #cccccc; stroke-linejoin: miter"/>
    </g>
    <g id="line2d_27">
     <path d="M 201.365937 207.785015
L 209.365937 207.785015
L 217.365937 207.785015
" style="fill: none; stroke-dasharray: 7.4,3.2; stroke-dashoffset: 0; stroke: #000000; stroke-width: 2"/>
    </g>
    <g id="text_15">
     <!-- target -->
     <g transform="translate(223.765937 210.585015) scale(0.08 -0.08)">
      <use xlink:href="#DejaVuSans-74"/>
      <use xlink:href="#DejaVuSans-61" transform="translate(39.208984 0)"/>
      <use xlink:href="#DejaVuSans-72" transform="translate(100.488281 0)"/>
      <use xlink:href="#DejaVuSans-67" transform="translate(139.851562 0)"/>
      <use xlink:href="#DejaVuSans-65" transform="translate(203.328125 0)"/>
      <use xlink:href="#DejaVuSans-74" transform="translate(264.851562 0)"/>
     </g>
    </g>
    <g id="line2d_28">
     <path d="M 201.365937 219.527515
L 209.365937 219.527515
L 217.365937 219.527515
" style="fill: none; stroke: #8c8c8c; stroke-width: 2; stroke-linecap: square"/>
    </g>
    <g id="text_16">
     <!-- period 1 default -->
     <g transform="translate(223.765937 222.327515) scale(0.08 -0.08)">
      <defs>
       <path id="DejaVuSans-70" d="M 1159 525
L 1159 -1331
L 581 -1331
L 581 3500
L 1159 3500
L 1159 2969
Q 1341 3281 1617 3432
Q 1894 3584 2278 3584
Q 2916 3584 3314 3078
Q 3713 2572 3713 1747
Q 3713 922 3314 415
Q 2916 -91 2278 -91
Q 1894 -91 1617 61
Q 1341 213 1159 525
z
M 3116 1747
Q 3116 2381 2855 2742
Q 2594 3103 2138 3103
Q 1681 3103 1420 2742
Q 1159 2381 1159 1747
Q 1159 1113 1420 752
Q 1681 391 2138 391
Q 2594 391 2855 752
Q 3116 1113 3116 1747
z
" transform="scale(0.015625)"/>
      </defs>
      <use xlink:href="#DejaVuSans-70"/>
      <use xlink:href="#DejaVuSans-65" transform="translate(63.476562 0)"/>
      <use xlink:href="#DejaVuSans-72" transform="translate(125 0)"/>
      <use xlink:href="#DejaVuSans-69" transform="translate(166.113281 0)"/>
      <use xlink:href="#DejaVuSans-6f" transform="translate(193.896484 0)"/>
      <use xlink:href="#DejaVuSans-64" transform="translate(255.078125 0)"/>
      <use xlink:href="#DejaVuSans-20" transform="translate(318.554688 0)"/>
      <use xlink:href="#DejaVuSans-31" transform="translate(350.341797 0)"/>
      <use xlink:href="#DejaVuSans-20" transform="translate(413.964844 0)"/>
      <use xlink:href="#DejaVuSans-64" transform="translate(445.751953 0)"/>
      <use xlink:href="#DejaVuSans-65" transform="translate(509.228516 0)"/>
      <use xlink:href="#DejaVuSans-66" transform="translate(570.751953 0)"/>
      <use xlink:href="#DejaVuSans-61" transform="translate(605.957031 0)"/>
      <use xlink:href="#DejaVuSans-75" transform="translate(667.236328 0)"/>
      <use xlink:href="#DejaVuSans-6c" transform="translate(730.615234 0)"/>
      <use xlink:href="#DejaVuSans-74" transform="translate(758.398438 0)"/>
     </g>
    </g>
    <g id="line2d_29">
     <path d="M 303.575938 207.785015
L 311.575938 207.785015
L 319.575938 207.785015
" style="fill: none; stroke: #2f6f9f; stroke-width: 2; stroke-linecap: square"/>
    </g>
    <g id="text_17">
     <!-- period 12 settled -->
     <g transform="translate(325.975937 210.585015) scale(0.08 -0.08)">
      <use xlink:href="#DejaVuSans-70"/>
      <use xlink:href="#DejaVuSans-65" transform="translate(63.476562 0)"/>
      <use xlink:href="#DejaVuSans-72" transform="translate(125 0)"/>
      <use xlink:href="#DejaVuSans-69" transform="translate(166.113281 0)"/>
      <use xlink:href="#DejaVuSans-6f" transform="translate(193.896484 0)"/>
      <use xlink:href="#DejaVuSans-64" transform="translate(255.078125 0)"/>
      <use xlink:href="#DejaVuSans-20" transform="translate(318.554688 0)"/>
      <use xlink:href="#DejaVuSans-31" transform="translate(350.341797 0)"/>
      <use xlink:href="#DejaVuSans-32" transform="translate(413.964844 0)"/>
      <use xlink:href="#DejaVuSans-20" transform="translate(477.587891 0)"/>
      <use xlink:href="#DejaVuSans-73" transform="translate(509.375 0)"/>
      <use xlink:href="#DejaVuSans-65" transform="translate(561.474609 0)"/>
      <use xlink:href="#DejaVuSans-74" transform="translate(622.998047 0)"/>
      <use xlink:href="#DejaVuSans-74" transform="translate(662.207031 0)"/>
      <use xlink:href="#DejaVuSans-6c" transform="translate(701.416016 0)"/>
      <use xlink:href="#DejaVuSans-65" transform="translate(729.199219 0)"/>
      <use xlink:href="#DejaVuSans-64" transform="translate(790.722656 0)"/>
     </g>
    </g>
    <g id="line2d_30">
     <path d="M 303.575938 219.527515
L 311.575938 219.527515
L 319.575938 219.527515
" style="fill: none; stroke: #d97720; stroke-width: 1.6; stroke-linecap: square"/>
    </g>
    <g id="text_18">
     <!-- Residual motor torque -->
     <g transform="translate(325.975937 222.327515) scale(0.08 -0.08)">
      <use xlink:href="#DejaVuSans-52"/>
      <use xlink:href="#DejaVuSans-65" transform="translate(64.982422 0)"/>
      <use xlink:href="#DejaVuSans-73" transform="translate(126.505859 0)"/>
      <use xlink:href="#DejaVuSans-69" transform="translate(178.605469 0)"/>
      <use xlink:href="#DejaVuSans-64" transform="translate(206.388672 0)"/>
      <use xlink:href="#DejaVuSans-75" transform="translate(269.865234 0)"/>
      <use xlink:href="#DejaVuSans-61" transform="translate(333.244141 0)"/>
      <use xlink:href="#DejaVuSans-6c" transform="translate(394.523438 0)"/>
      <use xlink:href="#DejaVuSans-20" transform="translate(422.306641 0)"/>
      <use xlink:href="#DejaVuSans-6d" transform="translate(454.09375 0)"/>
      <use xlink:href="#DejaVuSans-6f" transform="translate(551.505859 0)"/>
      <use xlink:href="#DejaVuSans-74" transform="translate(612.6875 0)"/>
      <use xlink:href="#DejaVuSans-6f" transform="translate(651.896484 0)"/>
      <use xlink:href="#DejaVuSans-72" transform="translate(713.078125 0)"/>
      <use xlink:href="#DejaVuSans-20" transform="translate(754.191406 0)"/>
      <use xlink:href="#DejaVuSans-74" transform="translate(785.978516 0)"/>
      <use xlink:href="#DejaVuSans-6f" transform="translate(825.1875 0)"/>
      <use xlink:href="#DejaVuSans-72" transform="translate(886.369141 0)"/>
      <use xlink:href="#DejaVuSans-71" transform="translate(925.732422 0)"/>
      <use xlink:href="#DejaVuSans-75" transform="translate(989.208984 0)"/>
      <use xlink:href="#DejaVuSans-65" transform="translate(1052.587891 0)"/>
     </g>
    </g>
   </g>
  </g>
  <g id="axes_2">
   <g id="patch_8">
    <path d="M 55.345313 401.523112
L 561.125312 401.523112
L 561.125312 255.236054
L 55.345313 255.236054
L 55.345313 401.523112
z
" style="fill: none"/>
   </g>
   <g id="matplotlib.axis_3">
    <g id="xtick_6">
     <g id="line2d_31">
      <path d="M 104.041431 401.523112
L 104.041431 255.236054
" clip-path="url(#p8b837863e6)" style="fill: none; stroke: #b0b0b0; stroke-opacity: 0.2; stroke-width: 0.8; stroke-linecap: square"/>
     </g>
     <g id="line2d_32">
      <g>
       <use xlink:href="#m99554e2ed8" x="104.041431" y="401.523112" style="stroke: #000000; stroke-width: 0.8"/>
      </g>
     </g>
     <g id="text_19">
      <!-- −40 -->
      <g transform="translate(93.489087 416.12155) scale(0.1 -0.1)">
       <use xlink:href="#DejaVuSans-2212"/>
       <use xlink:href="#DejaVuSans-34" transform="translate(83.789062 0)"/>
       <use xlink:href="#DejaVuSans-30" transform="translate(147.412109 0)"/>
      </g>
     </g>
    </g>
    <g id="xtick_7">
     <g id="line2d_33">
      <path d="M 206.865903 401.523112
L 206.865903 255.236054
" clip-path="url(#p8b837863e6)" style="fill: none; stroke: #b0b0b0; stroke-opacity: 0.2; stroke-width: 0.8; stroke-linecap: square"/>
     </g>
     <g id="line2d_34">
      <g>
       <use xlink:href="#m99554e2ed8" x="206.865903" y="401.523112" style="stroke: #000000; stroke-width: 0.8"/>
      </g>
     </g>
     <g id="text_20">
      <!-- −20 -->
      <g transform="translate(196.313559 416.12155) scale(0.1 -0.1)">
       <use xlink:href="#DejaVuSans-2212"/>
       <use xlink:href="#DejaVuSans-32" transform="translate(83.789062 0)"/>
       <use xlink:href="#DejaVuSans-30" transform="translate(147.412109 0)"/>
      </g>
     </g>
    </g>
    <g id="xtick_8">
     <g id="line2d_35">
      <path d="M 309.690376 401.523112
L 309.690376 255.236054
" clip-path="url(#p8b837863e6)" style="fill: none; stroke: #b0b0b0; stroke-opacity: 0.2; stroke-width: 0.8; stroke-linecap: square"/>
     </g>
     <g id="line2d_36">
      <g>
       <use xlink:href="#m99554e2ed8" x="309.690376" y="401.523112" style="stroke: #000000; stroke-width: 0.8"/>
      </g>
     </g>
     <g id="text_21">
      <!-- 0 -->
      <g transform="translate(306.509126 416.12155) scale(0.1 -0.1)">
       <use xlink:href="#DejaVuSans-30"/>
      </g>
     </g>
    </g>
    <g id="xtick_9">
     <g id="line2d_37">
      <path d="M 412.514848 401.523112
L 412.514848 255.236054
" clip-path="url(#p8b837863e6)" style="fill: none; stroke: #b0b0b0; stroke-opacity: 0.2; stroke-width: 0.8; stroke-linecap: square"/>
     </g>
     <g id="line2d_38">
      <g>
       <use xlink:href="#m99554e2ed8" x="412.514848" y="401.523112" style="stroke: #000000; stroke-width: 0.8"/>
      </g>
     </g>
     <g id="text_22">
      <!-- 20 -->
      <g transform="translate(406.152348 416.12155) scale(0.1 -0.1)">
       <use xlink:href="#DejaVuSans-32"/>
       <use xlink:href="#DejaVuSans-30" transform="translate(63.623047 0)"/>
      </g>
     </g>
    </g>
    <g id="xtick_10">
     <g id="line2d_39">
      <path d="M 515.339321 401.523112
L 515.339321 255.236054
" clip-path="url(#p8b837863e6)" style="fill: none; stroke: #b0b0b0; stroke-opacity: 0.2; stroke-width: 0.8; stroke-linecap: square"/>
     </g>
     <g id="line2d_40">
      <g>
       <use xlink:href="#m99554e2ed8" x="515.339321" y="401.523112" style="stroke: #000000; stroke-width: 0.8"/>
      </g>
     </g>
     <g id="text_23">
      <!-- 40 -->
      <g transform="translate(508.976821 416.12155) scale(0.1 -0.1)">
       <use xlink:href="#DejaVuSans-34"/>
       <use xlink:href="#DejaVuSans-30" transform="translate(63.623047 0)"/>
      </g>
     </g>
    </g>
    <g id="text_24">
     <!-- Joint angle [deg] -->
     <g transform="translate(266.805625 429.799675) scale(0.1 -0.1)">
      <use xlink:href="#DejaVuSans-4a"/>
      <use xlink:href="#DejaVuSans-6f" transform="translate(29.492188 0)"/>
      <use xlink:href="#DejaVuSans-69" transform="translate(90.673828 0)"/>
      <use xlink:href="#DejaVuSans-6e" transform="translate(118.457031 0)"/>
      <use xlink:href="#DejaVuSans-74" transform="translate(181.835938 0)"/>
      <use xlink:href="#DejaVuSans-20" transform="translate(221.044922 0)"/>
      <use xlink:href="#DejaVuSans-61" transform="translate(252.832031 0)"/>
      <use xlink:href="#DejaVuSans-6e" transform="translate(314.111328 0)"/>
      <use xlink:href="#DejaVuSans-67" transform="translate(377.490234 0)"/>
      <use xlink:href="#DejaVuSans-6c" transform="translate(440.966797 0)"/>
      <use xlink:href="#DejaVuSans-65" transform="translate(468.75 0)"/>
      <use xlink:href="#DejaVuSans-20" transform="translate(530.273438 0)"/>
      <use xlink:href="#DejaVuSans-5b" transform="translate(562.060547 0)"/>
      <use xlink:href="#DejaVuSans-64" transform="translate(601.074219 0)"/>
      <use xlink:href="#DejaVuSans-65" transform="translate(664.550781 0)"/>
      <use xlink:href="#DejaVuSans-67" transform="translate(726.074219 0)"/>
      <use xlink:href="#DejaVuSans-5d" transform="translate(789.550781 0)"/>
     </g>
    </g>
   </g>
   <g id="matplotlib.axis_4">
    <g id="ytick_7">
     <g id="line2d_41">
      <path d="M 55.345313 392.993639
L 561.125312 392.993639
" clip-path="url(#p8b837863e6)" style="fill: none; stroke: #b0b0b0; stroke-opacity: 0.2; stroke-width: 0.8; stroke-linecap: square"/>
     </g>
     <g id="line2d_42">
      <g>
       <use xlink:href="#m6d66307c50" x="55.345313" y="392.993639" style="stroke: #000000; stroke-width: 0.8"/>
      </g>
     </g>
     <g id="text_25">
      <!-- −100 -->
      <g transform="translate(20.878125 396.792858) scale(0.1 -0.1)">
       <use xlink:href="#DejaVuSans-2212"/>
       <use xlink:href="#DejaVuSans-31" transform="translate(83.789062 0)"/>
       <use xlink:href="#DejaVuSans-30" transform="translate(147.412109 0)"/>
       <use xlink:href="#DejaVuSans-30" transform="translate(211.035156 0)"/>
      </g>
     </g>
    </g>
    <g id="ytick_8">
     <g id="line2d_43">
      <path d="M 55.345313 369.436964
L 561.125312 369.436964
" clip-path="url(#p8b837863e6)" style="fill: none; stroke: #b0b0b0; stroke-opacity: 0.2; stroke-width: 0.8; stroke-linecap: square"/>
     </g>
     <g id="line2d_44">
      <g>
       <use xlink:href="#m6d66307c50" x="55.345313" y="369.436964" style="stroke: #000000; stroke-width: 0.8"/>
      </g>
     </g>
     <g id="text_26">
      <!-- −75 -->
      <g transform="translate(27.240625 373.236182) scale(0.1 -0.1)">
       <use xlink:href="#DejaVuSans-2212"/>
       <use xlink:href="#DejaVuSans-37" transform="translate(83.789062 0)"/>
       <use xlink:href="#DejaVuSans-35" transform="translate(147.412109 0)"/>
      </g>
     </g>
    </g>
    <g id="ytick_9">
     <g id="line2d_45">
      <path d="M 55.345313 345.880289
L 561.125312 345.880289
" clip-path="url(#p8b837863e6)" style="fill: none; stroke: #b0b0b0; stroke-opacity: 0.2; stroke-width: 0.8; stroke-linecap: square"/>
     </g>
     <g id="line2d_46">
      <g>
       <use xlink:href="#m6d66307c50" x="55.345313" y="345.880289" style="stroke: #000000; stroke-width: 0.8"/>
      </g>
     </g>
     <g id="text_27">
      <!-- −50 -->
      <g transform="translate(27.240625 349.679507) scale(0.1 -0.1)">
       <use xlink:href="#DejaVuSans-2212"/>
       <use xlink:href="#DejaVuSans-35" transform="translate(83.789062 0)"/>
       <use xlink:href="#DejaVuSans-30" transform="translate(147.412109 0)"/>
      </g>
     </g>
    </g>
    <g id="ytick_10">
     <g id="line2d_47">
      <path d="M 55.345313 322.323614
L 561.125312 322.323614
" clip-path="url(#p8b837863e6)" style="fill: none; stroke: #b0b0b0; stroke-opacity: 0.2; stroke-width: 0.8; stroke-linecap: square"/>
     </g>
     <g id="line2d_48">
      <g>
       <use xlink:href="#m6d66307c50" x="55.345313" y="322.323614" style="stroke: #000000; stroke-width: 0.8"/>
      </g>
     </g>
     <g id="text_28">
      <!-- −25 -->
      <g transform="translate(27.240625 326.122832) scale(0.1 -0.1)">
       <use xlink:href="#DejaVuSans-2212"/>
       <use xlink:href="#DejaVuSans-32" transform="translate(83.789062 0)"/>
       <use xlink:href="#DejaVuSans-35" transform="translate(147.412109 0)"/>
      </g>
     </g>
    </g>
    <g id="ytick_11">
     <g id="line2d_49">
      <path d="M 55.345313 298.766938
L 561.125312 298.766938
" clip-path="url(#p8b837863e6)" style="fill: none; stroke: #b0b0b0; stroke-opacity: 0.2; stroke-width: 0.8; stroke-linecap: square"/>
     </g>
     <g id="line2d_50">
      <g>
       <use xlink:href="#m6d66307c50" x="55.345313" y="298.766938" style="stroke: #000000; stroke-width: 0.8"/>
      </g>
     </g>
     <g id="text_29">
      <!-- 0 -->
      <g transform="translate(41.982813 302.566157) scale(0.1 -0.1)">
       <use xlink:href="#DejaVuSans-30"/>
      </g>
     </g>
    </g>
    <g id="ytick_12">
     <g id="line2d_51">
      <path d="M 55.345313 275.210263
L 561.125312 275.210263
" clip-path="url(#p8b837863e6)" style="fill: none; stroke: #b0b0b0; stroke-opacity: 0.2; stroke-width: 0.8; stroke-linecap: square"/>
     </g>
     <g id="line2d_52">
      <g>
       <use xlink:href="#m6d66307c50" x="55.345313" y="275.210263" style="stroke: #000000; stroke-width: 0.8"/>
      </g>
     </g>
     <g id="text_30">
      <!-- 25 -->
      <g transform="translate(35.620313 279.009482) scale(0.1 -0.1)">
       <use xlink:href="#DejaVuSans-32"/>
       <use xlink:href="#DejaVuSans-35" transform="translate(63.623047 0)"/>
      </g>
     </g>
    </g>
    <g id="text_31">
     <!-- Torque [N m] -->
     <g transform="translate(14.798438 360.720989) rotate(-90) scale(0.1 -0.1)">
      <use xlink:href="#DejaVuSans-54"/>
      <use xlink:href="#DejaVuSans-6f" transform="translate(44.083984 0)"/>
      <use xlink:href="#DejaVuSans-72" transform="translate(105.265625 0)"/>
      <use xlink:href="#DejaVuSans-71" transform="translate(144.628906 0)"/>
      <use xlink:href="#DejaVuSans-75" transform="translate(208.105469 0)"/>
      <use xlink:href="#DejaVuSans-65" transform="translate(271.484375 0)"/>
      <use xlink:href="#DejaVuSans-20" transform="translate(333.007812 0)"/>
      <use xlink:href="#DejaVuSans-5b" transform="translate(364.794922 0)"/>
      <use xlink:href="#DejaVuSans-4e" transform="translate(403.808594 0)"/>
      <use xlink:href="#DejaVuSans-20" transform="translate(478.613281 0)"/>
      <use xlink:href="#DejaVuSans-6d" transform="translate(510.400391 0)"/>
      <use xlink:href="#DejaVuSans-5d" transform="translate(607.8125 0)"/>
     </g>
    </g>
   </g>
   <g id="line2d_53">
    <path d="M 78.335313 379.049061
L 287.864426 310.398618
L 293.68468 311.265021
L 392.628983 342.938764
L 398.449237 341.789578
L 526.494806 302.141744
L 532.315059 298.134488
L 538.135312 292.181196
L 532.315059 298.134488
L 526.494806 302.141744
L 398.449237 341.789578
L 392.628983 342.938764
L 293.68468 311.265021
L 287.864426 310.398618
L 78.335313 379.049061
L 78.335313 379.049061
" clip-path="url(#p8b837863e6)" style="fill: none; stroke-dasharray: 7.4,3.2; stroke-dashoffset: 0; stroke: #000000; stroke-width: 2"/>
   </g>
   <g id="line2d_54">
    <path d="M 78.335313 263.281009
L 84.155566 262.698332
L 89.975819 262.245178
L 95.796072 261.968081
L 101.616325 261.885465
L 107.436578 261.98716
L 113.256831 262.249649
L 119.077085 262.647786
L 130.717591 263.765837
L 142.358097 265.202781
L 153.998604 266.863147
L 171.459363 269.651271
L 188.920123 272.715095
L 206.380882 276.010718
L 223.841642 279.512009
L 247.122654 284.458242
L 270.403667 289.658575
L 305.325186 297.745794
L 351.887211 308.536489
L 375.168224 313.709374
L 398.449237 318.618708
L 415.909996 322.087339
L 433.370756 325.346351
L 450.831515 328.368121
L 468.292275 331.103
L 479.932781 332.714334
L 491.573287 334.082059
L 503.213794 335.10064
L 509.034047 335.433955
L 514.8543 335.619278
L 520.674553 335.631287
L 526.494806 335.451212
L 532.315059 335.081669
L 538.135312 334.557064
L 532.315059 335.081669
L 526.494806 335.451212
L 520.674553 335.631287
L 514.8543 335.619278
L 509.034047 335.433955
L 503.213794 335.10064
L 491.573287 334.082059
L 479.932781 332.714334
L 468.292275 331.103
L 450.831515 328.368121
L 433.370756 325.346351
L 415.909996 322.087339
L 398.449237 318.618708
L 380.988477 314.96428
L 357.707464 309.85015
L 328.606199 303.183057
L 258.763161 287.031583
L 235.482148 281.948707
L 218.021388 278.3235
L 200.560629 274.88818
L 183.099869 271.666509
L 165.63911 268.688059
L 153.998604 266.863147
L 142.358097 265.202781
L 130.717591 263.765837
L 119.077085 262.647786
L 113.256831 262.249649
L 107.436578 261.98716
L 101.616325 261.885465
L 95.796072 261.968081
L 89.975819 262.245178
L 84.155566 262.698332
L 78.335313 263.281009
L 78.335313 263.281009
" clip-path="url(#p8b837863e6)" style="fill: none; stroke: #8c8c8c; stroke-width: 2; stroke-linecap: square"/>
   </g>
   <g id="line2d_55">
    <path d="M 78.335313 282.942299
L 89.975819 282.689991
L 95.796072 282.707174
L 101.616325 282.847466
L 107.436578 283.112538
L 119.077085 283.97497
L 130.717591 285.181374
L 142.358097 286.613971
L 159.818857 288.982173
L 194.740376 293.99296
L 258.763161 303.185433
L 287.864426 307.151092
L 311.145439 310.148602
L 334.426452 312.944938
L 357.707464 315.501259
L 380.988477 317.785657
L 398.449237 319.307445
L 415.909996 320.660329
L 433.370756 321.843618
L 450.831515 322.855727
L 468.292275 323.681483
L 485.753034 324.259503
L 497.39354 324.435131
L 509.034047 324.363822
L 520.674553 323.959551
L 532.315059 323.158239
L 538.135312 322.628686
L 526.494806 323.60819
L 514.8543 324.208971
L 503.213794 324.435379
L 491.573287 324.373414
L 479.932781 324.101676
L 462.472021 323.429224
L 445.011262 322.537808
L 427.550502 321.468038
L 410.089743 320.228212
L 392.628983 318.818843
L 369.347971 316.679061
L 346.066958 314.255305
L 322.785945 311.574466
L 299.504933 308.672406
L 270.403667 304.796188
L 235.482148 299.889728
L 142.358097 286.613971
L 130.717591 285.181374
L 119.077085 283.97497
L 107.436578 283.112538
L 101.616325 282.847466
L 95.796072 282.707174
L 84.155566 282.77849
L 78.335313 282.942299
L 78.335313 282.942299
" clip-path="url(#p8b837863e6)" style="fill: none; stroke: #2f6f9f; stroke-width: 2; stroke-linecap: square"/>
   </g>
   <g id="line2d_56">
    <path d="M 78.335313 394.873701
L 89.975819 391.312095
L 95.796072 389.387955
L 101.616325 387.340706
L 113.256831 382.881092
L 124.897338 378.017668
L 136.537844 372.870072
L 153.998604 364.851254
L 183.099869 351.185315
L 264.583414 312.798932
L 287.864426 302.014465
L 293.68468 302.114908
L 316.965692 306.616462
L 340.246705 311.329339
L 363.527718 316.291014
L 386.80873 321.531018
L 392.628983 322.88686
L 398.449237 321.249071
L 421.730249 312.274229
L 445.011262 303.601315
L 462.472021 297.303376
L 479.932781 291.224401
L 491.573287 287.348315
L 503.213794 283.682001
L 514.8543 280.304061
L 526.494806 277.300492
L 532.315059 273.743187
L 538.135312 268.319448
L 532.315059 273.743187
L 526.494806 277.300492
L 514.8543 280.304061
L 503.213794 283.682001
L 491.573287 287.348315
L 479.932781 291.224401
L 462.472021 297.303376
L 445.011262 303.601315
L 421.730249 312.274229
L 398.449237 321.249071
L 392.628983 322.88686
L 369.347971 317.573997
L 346.066958 312.545107
L 322.785945 307.7733
L 299.504933 303.222715
L 293.68468 302.114908
L 287.864426 302.014465
L 258.763161 315.514908
L 218.021388 334.675587
L 153.998604 364.851254
L 136.537844 372.870072
L 124.897338 378.017668
L 113.256831 382.881092
L 101.616325 387.340706
L 95.796072 389.387955
L 84.155566 393.130553
L 78.335313 394.873701
L 78.335313 394.873701
" clip-path="url(#p8b837863e6)" style="fill: none; stroke: #d97720; stroke-width: 1.6; stroke-linecap: square"/>
   </g>
   <g id="patch_9">
    <path d="M 55.345313 401.523112
L 55.345313 255.236054
" style="fill: none; stroke: #000000; stroke-width: 0.8; stroke-linejoin: miter; stroke-linecap: square"/>
   </g>
   <g id="patch_10">
    <path d="M 561.125312 401.523112
L 561.125312 255.236054
" style="fill: none; stroke: #000000; stroke-width: 0.8; stroke-linejoin: miter; stroke-linecap: square"/>
   </g>
   <g id="patch_11">
    <path d="M 55.345313 401.523112
L 561.125312 401.523112
" style="fill: none; stroke: #000000; stroke-width: 0.8; stroke-linejoin: miter; stroke-linecap: square"/>
   </g>
   <g id="patch_12">
    <path d="M 55.345313 255.236054
L 561.125312 255.236054
" style="fill: none; stroke: #000000; stroke-width: 0.8; stroke-linejoin: miter; stroke-linecap: square"/>
   </g>
   <g id="text_32">
    <!-- median offload: 11.0% offload, 44.2 N m RMSE -->
    <g transform="translate(55.345313 250.438594) scale(0.09 -0.09)">
     <use xlink:href="#DejaVuSans-6d"/>
     <use xlink:href="#DejaVuSans-65" transform="translate(97.412109 0)"/>
     <use xlink:href="#DejaVuSans-64" transform="translate(158.935547 0)"/>
     <use xlink:href="#DejaVuSans-69" transform="translate(222.412109 0)"/>
     <use xlink:href="#DejaVuSans-61" transform="translate(250.195312 0)"/>
     <use xlink:href="#DejaVuSans-6e" transform="translate(311.474609 0)"/>
     <use xlink:href="#DejaVuSans-20" transform="translate(374.853516 0)"/>
     <use xlink:href="#DejaVuSans-6f" transform="translate(406.640625 0)"/>
     <use xlink:href="#DejaVuSans-66" transform="translate(467.822266 0)"/>
     <use xlink:href="#DejaVuSans-66" transform="translate(503.027344 0)"/>
     <use xlink:href="#DejaVuSans-6c" transform="translate(538.232422 0)"/>
     <use xlink:href="#DejaVuSans-6f" transform="translate(566.015625 0)"/>
     <use xlink:href="#DejaVuSans-61" transform="translate(627.197266 0)"/>
     <use xlink:href="#DejaVuSans-64" transform="translate(688.476562 0)"/>
     <use xlink:href="#DejaVuSans-3a" transform="translate(751.953125 0)"/>
     <use xlink:href="#DejaVuSans-20" transform="translate(785.644531 0)"/>
     <use xlink:href="#DejaVuSans-31" transform="translate(817.431641 0)"/>
     <use xlink:href="#DejaVuSans-31" transform="translate(881.054688 0)"/>
     <use xlink:href="#DejaVuSans-2e" transform="translate(944.677734 0)"/>
     <use xlink:href="#DejaVuSans-30" transform="translate(976.464844 0)"/>
     <use xlink:href="#DejaVuSans-25" transform="translate(1040.087891 0)"/>
     <use xlink:href="#DejaVuSans-20" transform="translate(1135.107422 0)"/>
     <use xlink:href="#DejaVuSans-6f" transform="translate(1166.894531 0)"/>
     <use xlink:href="#DejaVuSans-66" transform="translate(1228.076172 0)"/>
     <use xlink:href="#DejaVuSans-66" transform="translate(1263.28125 0)"/>
     <use xlink:href="#DejaVuSans-6c" transform="translate(1298.486328 0)"/>
     <use xlink:href="#DejaVuSans-6f" transform="translate(1326.269531 0)"/>
     <use xlink:href="#DejaVuSans-61" transform="translate(1387.451172 0)"/>
     <use xlink:href="#DejaVuSans-64" transform="translate(1448.730469 0)"/>
     <use xlink:href="#DejaVuSans-2c" transform="translate(1512.207031 0)"/>
     <use xlink:href="#DejaVuSans-20" transform="translate(1543.994141 0)"/>
     <use xlink:href="#DejaVuSans-34" transform="translate(1575.78125 0)"/>
     <use xlink:href="#DejaVuSans-34" transform="translate(1639.404297 0)"/>
     <use xlink:href="#DejaVuSans-2e" transform="translate(1703.027344 0)"/>
     <use xlink:href="#DejaVuSans-32" transform="translate(1734.814453 0)"/>
     <use xlink:href="#DejaVuSans-20" transform="translate(1798.4375 0)"/>
     <use xlink:href="#DejaVuSans-4e" transform="translate(1830.224609 0)"/>
     <use xlink:href="#DejaVuSans-20" transform="translate(1905.029297 0)"/>
     <use xlink:href="#DejaVuSans-6d" transform="translate(1936.816406 0)"/>
     <use xlink:href="#DejaVuSans-20" transform="translate(2034.228516 0)"/>
     <use xlink:href="#DejaVuSans-52" transform="translate(2066.015625 0)"/>
     <use xlink:href="#DejaVuSans-4d" transform="translate(2135.498047 0)"/>
     <use xlink:href="#DejaVuSans-53" transform="translate(2221.777344 0)"/>
     <use xlink:href="#DejaVuSans-45" transform="translate(2285.253906 0)"/>
    </g>
   </g>
   <g id="legend_2">
    <g id="patch_13">
     <path d="M 199.765937 463.591265
L 416.704687 463.591265
Q 418.304688 463.591265 418.304688 461.991265
L 418.304688 439.306265
Q 418.304688 437.706265 416.704687 437.706265
L 199.765937 437.706265
Q 198.165937 437.706265 198.165937 439.306265
L 198.165937 461.991265
Q 198.165937 463.591265 199.765937 463.591265
z
" style="fill: #ffffff; opacity: 0.8; stroke: #cccccc; stroke-linejoin: miter"/>
    </g>
    <g id="line2d_57">
     <path d="M 201.365937 444.185015
L 209.365937 444.185015
L 217.365937 444.185015
" style="fill: none; stroke-dasharray: 7.4,3.2; stroke-dashoffset: 0; stroke: #000000; stroke-width: 2"/>
    </g>
    <g id="text_33">
     <!-- target -->
     <g transform="translate(223.765937 446.985015) scale(0.08 -0.08)">
      <use xlink:href="#DejaVuSans-74"/>
      <use xlink:href="#DejaVuSans-61" transform="translate(39.208984 0)"/>
      <use xlink:href="#DejaVuSans-72" transform="translate(100.488281 0)"/>
      <use xlink:href="#DejaVuSans-67" transform="translate(139.851562 0)"/>
      <use xlink:href="#DejaVuSans-65" transform="translate(203.328125 0)"/>
      <use xlink:href="#DejaVuSans-74" transform="translate(264.851562 0)"/>
     </g>
    </g>
    <g id="line2d_58">
     <path d="M 201.365937 455.927515
L 209.365937 455.927515
L 217.365937 455.927515
" style="fill: none; stroke: #8c8c8c; stroke-width: 2; stroke-linecap: square"/>
    </g>
    <g id="text_34">
     <!-- period 1 default -->
     <g transform="translate(223.765937 458.727515) scale(0.08 -0.08)">
      <use xlink:href="#DejaVuSans-70"/>
      <use xlink:href="#DejaVuSans-65" transform="translate(63.476562 0)"/>
      <use xlink:href="#DejaVuSans-72" transform="translate(125 0)"/>
      <use xlink:href="#DejaVuSans-69" transform="translate(166.113281 0)"/>
      <use xlink:href="#DejaVuSans-6f" transform="translate(193.896484 0)"/>
      <use xlink:href="#DejaVuSans-64" transform="translate(255.078125 0)"/>
      <use xlink:href="#DejaVuSans-20" transform="translate(318.554688 0)"/>
      <use xlink:href="#DejaVuSans-31" transform="translate(350.341797 0)"/>
      <use xlink:href="#DejaVuSans-20" transform="translate(413.964844 0)"/>
      <use xlink:href="#DejaVuSans-64" transform="translate(445.751953 0)"/>
      <use xlink:href="#DejaVuSans-65" transform="translate(509.228516 0)"/>
      <use xlink:href="#DejaVuSans-66" transform="translate(570.751953 0)"/>
      <use xlink:href="#DejaVuSans-61" transform="translate(605.957031 0)"/>
      <use xlink:href="#DejaVuSans-75" transform="translate(667.236328 0)"/>
      <use xlink:href="#DejaVuSans-6c" transform="translate(730.615234 0)"/>
      <use xlink:href="#DejaVuSans-74" transform="translate(758.398438 0)"/>
     </g>
    </g>
    <g id="line2d_59">
     <path d="M 303.575938 444.185015
L 311.575938 444.185015
L 319.575938 444.185015
" style="fill: none; stroke: #2f6f9f; stroke-width: 2; stroke-linecap: square"/>
    </g>
    <g id="text_35">
     <!-- period 12 settled -->
     <g transform="translate(325.975937 446.985015) scale(0.08 -0.08)">
      <use xlink:href="#DejaVuSans-70"/>
      <use xlink:href="#DejaVuSans-65" transform="translate(63.476562 0)"/>
      <use xlink:href="#DejaVuSans-72" transform="translate(125 0)"/>
      <use xlink:href="#DejaVuSans-69" transform="translate(166.113281 0)"/>
      <use xlink:href="#DejaVuSans-6f" transform="translate(193.896484 0)"/>
      <use xlink:href="#DejaVuSans-64" transform="translate(255.078125 0)"/>
      <use xlink:href="#DejaVuSans-20" transform="translate(318.554688 0)"/>
      <use xlink:href="#DejaVuSans-31" transform="translate(350.341797 0)"/>
      <use xlink:href="#DejaVuSans-32" transform="translate(413.964844 0)"/>
      <use xlink:href="#DejaVuSans-20" transform="translate(477.587891 0)"/>
      <use xlink:href="#DejaVuSans-73" transform="translate(509.375 0)"/>
      <use xlink:href="#DejaVuSans-65" transform="translate(561.474609 0)"/>
      <use xlink:href="#DejaVuSans-74" transform="translate(622.998047 0)"/>
      <use xlink:href="#DejaVuSans-74" transform="translate(662.207031 0)"/>
      <use xlink:href="#DejaVuSans-6c" transform="translate(701.416016 0)"/>
      <use xlink:href="#DejaVuSans-65" transform="translate(729.199219 0)"/>
      <use xlink:href="#DejaVuSans-64" transform="translate(790.722656 0)"/>
     </g>
    </g>
    <g id="line2d_60">
     <path d="M 303.575938 455.927515
L 311.575938 455.927515
L 319.575938 455.927515
" style="fill: none; stroke: #d97720; stroke-width: 1.6; stroke-linecap: square"/>
    </g>
    <g id="text_36">
     <!-- Residual motor torque -->
     <g transform="translate(325.975937 458.727515) scale(0.08 -0.08)">
      <use xlink:href="#DejaVuSans-52"/>
      <use xlink:href="#DejaVuSans-65" transform="translate(64.982422 0)"/>
      <use xlink:href="#DejaVuSans-73" transform="translate(126.505859 0)"/>
      <use xlink:href="#DejaVuSans-69" transform="translate(178.605469 0)"/>
      <use xlink:href="#DejaVuSans-64" transform="translate(206.388672 0)"/>
      <use xlink:href="#DejaVuSans-75" transform="translate(269.865234 0)"/>
      <use xlink:href="#DejaVuSans-61" transform="translate(333.244141 0)"/>
      <use xlink:href="#DejaVuSans-6c" transform="translate(394.523438 0)"/>
      <use xlink:href="#DejaVuSans-20" transform="translate(422.306641 0)"/>
      <use xlink:href="#DejaVuSans-6d" transform="translate(454.09375 0)"/>
      <use xlink:href="#DejaVuSans-6f" transform="translate(551.505859 0)"/>
      <use xlink:href="#DejaVuSans-74" transform="translate(612.6875 0)"/>
      <use xlink:href="#DejaVuSans-6f" transform="translate(651.896484 0)"/>
      <use xlink:href="#DejaVuSans-72" transform="translate(713.078125 0)"/>
      <use xlink:href="#DejaVuSans-20" transform="translate(754.191406 0)"/>
      <use xlink:href="#DejaVuSans-74" transform="translate(785.978516 0)"/>
      <use xlink:href="#DejaVuSans-6f" transform="translate(825.1875 0)"/>
      <use xlink:href="#DejaVuSans-72" transform="translate(886.369141 0)"/>
      <use xlink:href="#DejaVuSans-71" transform="translate(925.732422 0)"/>
      <use xlink:href="#DejaVuSans-75" transform="translate(989.208984 0)"/>
      <use xlink:href="#DejaVuSans-65" transform="translate(1052.587891 0)"/>
     </g>
    </g>
   </g>
  </g>
  <g id="axes_3">
   <g id="patch_14">
    <path d="M 55.345313 637.923112
L 561.125312 637.923112
L 561.125312 491.636054
L 55.345313 491.636054
L 55.345313 637.923112
z
" style="fill: none"/>
   </g>
   <g id="matplotlib.axis_5">
    <g id="xtick_11">
     <g id="line2d_61">
      <path d="M 104.041431 637.923112
L 104.041431 491.636054
" clip-path="url(#p840c983473)" style="fill: none; stroke: #b0b0b0; stroke-opacity: 0.2; stroke-width: 0.8; stroke-linecap: square"/>
     </g>
     <g id="line2d_62">
      <g>
       <use xlink:href="#m99554e2ed8" x="104.041431" y="637.923112" style="stroke: #000000; stroke-width: 0.8"/>
      </g>
     </g>
     <g id="text_37">
      <!-- −40 -->
      <g transform="translate(93.489087 652.52155) scale(0.1 -0.1)">
       <use xlink:href="#DejaVuSans-2212"/>
       <use xlink:href="#DejaVuSans-34" transform="translate(83.789062 0)"/>
       <use xlink:href="#DejaVuSans-30" transform="translate(147.412109 0)"/>
      </g>
     </g>
    </g>
    <g id="xtick_12">
     <g id="line2d_63">
      <path d="M 206.865903 637.923112
L 206.865903 491.636054
" clip-path="url(#p840c983473)" style="fill: none; stroke: #b0b0b0; stroke-opacity: 0.2; stroke-width: 0.8; stroke-linecap: square"/>
     </g>
     <g id="line2d_64">
      <g>
       <use xlink:href="#m99554e2ed8" x="206.865903" y="637.923112" style="stroke: #000000; stroke-width: 0.8"/>
      </g>
     </g>
     <g id="text_38">
      <!-- −20 -->
      <g transform="translate(196.313559 652.52155) scale(0.1 -0.1)">
       <use xlink:href="#DejaVuSans-2212"/>
       <use xlink:href="#DejaVuSans-32" transform="translate(83.789062 0)"/>
       <use xlink:href="#DejaVuSans-30" transform="translate(147.412109 0)"/>
      </g>
     </g>
    </g>
    <g id="xtick_13">
     <g id="line2d_65">
      <path d="M 309.690376 637.923112
L 309.690376 491.636054
" clip-path="url(#p840c983473)" style="fill: none; stroke: #b0b0b0; stroke-opacity: 0.2; stroke-width: 0.8; stroke-linecap: square"/>
     </g>
     <g id="line2d_66">
      <g>
       <use xlink:href="#m99554e2ed8" x="309.690376" y="637.923112" style="stroke: #000000; stroke-width: 0.8"/>
      </g>
     </g>
     <g id="text_39">
      <!-- 0 -->
      <g transform="translate(306.509126 652.52155) scale(0.1 -0.1)">
       <use xlink:href="#DejaVuSans-30"/>
      </g>
     </g>
    </g>
    <g id="xtick_14">
     <g id="line2d_67">
      <path d="M 412.514848 637.923112
L 412.514848 491.636054
" clip-path="url(#p840c983473)" style="fill: none; stroke: #b0b0b0; stroke-opacity: 0.2; stroke-width: 0.8; stroke-linecap: square"/>
     </g>
     <g id="line2d_68">
      <g>
       <use xlink:href="#m99554e2ed8" x="412.514848" y="637.923112" style="stroke: #000000; stroke-width: 0.8"/>
      </g>
     </g>
     <g id="text_40">
      <!-- 20 -->
      <g transform="translate(406.152348 652.52155) scale(0.1 -0.1)">
       <use xlink:href="#DejaVuSans-32"/>
       <use xlink:href="#DejaVuSans-30" transform="translate(63.623047 0)"/>
      </g>
     </g>
    </g>
    <g id="xtick_15">
     <g id="line2d_69">
      <path d="M 515.339321 637.923112
L 515.339321 491.636054
" clip-path="url(#p840c983473)" style="fill: none; stroke: #b0b0b0; stroke-opacity: 0.2; stroke-width: 0.8; stroke-linecap: square"/>
     </g>
     <g id="line2d_70">
      <g>
       <use xlink:href="#m99554e2ed8" x="515.339321" y="637.923112" style="stroke: #000000; stroke-width: 0.8"/>
      </g>
     </g>
     <g id="text_41">
      <!-- 40 -->
      <g transform="translate(508.976821 652.52155) scale(0.1 -0.1)">
       <use xlink:href="#DejaVuSans-34"/>
       <use xlink:href="#DejaVuSans-30" transform="translate(63.623047 0)"/>
      </g>
     </g>
    </g>
    <g id="text_42">
     <!-- Joint angle [deg] -->
     <g transform="translate(266.805625 666.199675) scale(0.1 -0.1)">
      <use xlink:href="#DejaVuSans-4a"/>
      <use xlink:href="#DejaVuSans-6f" transform="translate(29.492188 0)"/>
      <use xlink:href="#DejaVuSans-69" transform="translate(90.673828 0)"/>
      <use xlink:href="#DejaVuSans-6e" transform="translate(118.457031 0)"/>
      <use xlink:href="#DejaVuSans-74" transform="translate(181.835938 0)"/>
      <use xlink:href="#DejaVuSans-20" transform="translate(221.044922 0)"/>
      <use xlink:href="#DejaVuSans-61" transform="translate(252.832031 0)"/>
      <use xlink:href="#DejaVuSans-6e" transform="translate(314.111328 0)"/>
      <use xlink:href="#DejaVuSans-67" transform="translate(377.490234 0)"/>
      <use xlink:href="#DejaVuSans-6c" transform="translate(440.966797 0)"/>
      <use xlink:href="#DejaVuSans-65" transform="translate(468.75 0)"/>
      <use xlink:href="#DejaVuSans-20" transform="translate(530.273438 0)"/>
      <use xlink:href="#DejaVuSans-5b" transform="translate(562.060547 0)"/>
      <use xlink:href="#DejaVuSans-64" transform="translate(601.074219 0)"/>
      <use xlink:href="#DejaVuSans-65" transform="translate(664.550781 0)"/>
      <use xlink:href="#DejaVuSans-67" transform="translate(726.074219 0)"/>
      <use xlink:href="#DejaVuSans-5d" transform="translate(789.550781 0)"/>
     </g>
    </g>
   </g>
   <g id="matplotlib.axis_6">
    <g id="ytick_13">
     <g id="line2d_71">
      <path d="M 55.345313 610.280753
L 561.125312 610.280753
" clip-path="url(#p840c983473)" style="fill: none; stroke: #b0b0b0; stroke-opacity: 0.2; stroke-width: 0.8; stroke-linecap: square"/>
     </g>
     <g id="line2d_72">
      <g>
       <use xlink:href="#m6d66307c50" x="55.345313" y="610.280753" style="stroke: #000000; stroke-width: 0.8"/>
      </g>
     </g>
     <g id="text_43">
      <!-- −50 -->
      <g transform="translate(27.240625 614.079972) scale(0.1 -0.1)">
       <use xlink:href="#DejaVuSans-2212"/>
       <use xlink:href="#DejaVuSans-35" transform="translate(83.789062 0)"/>
       <use xlink:href="#DejaVuSans-30" transform="translate(147.412109 0)"/>
      </g>
     </g>
    </g>
    <g id="ytick_14">
     <g id="line2d_73">
      <path d="M 55.345313 580.448213
L 561.125312 580.448213
" clip-path="url(#p840c983473)" style="fill: none; stroke: #b0b0b0; stroke-opacity: 0.2; stroke-width: 0.8; stroke-linecap: square"/>
     </g>
     <g id="line2d_74">
      <g>
       <use xlink:href="#m6d66307c50" x="55.345313" y="580.448213" style="stroke: #000000; stroke-width: 0.8"/>
      </g>
     </g>
     <g id="text_44">
      <!-- 0 -->
      <g transform="translate(41.982813 584.247432) scale(0.1 -0.1)">
       <use xlink:href="#DejaVuSans-30"/>
      </g>
     </g>
    </g>
    <g id="ytick_15">
     <g id="line2d_75">
      <path d="M 55.345313 550.615672
L 561.125312 550.615672
" clip-path="url(#p840c983473)" style="fill: none; stroke: #b0b0b0; stroke-opacity: 0.2; stroke-width: 0.8; stroke-linecap: square"/>
     </g>
     <g id="line2d_76">
      <g>
       <use xlink:href="#m6d66307c50" x="55.345313" y="550.615672" style="stroke: #000000; stroke-width: 0.8"/>
      </g>
     </g>
     <g id="text_45">
      <!-- 50 -->
      <g transform="translate(35.620313 554.414891) scale(0.1 -0.1)">
       <use xlink:href="#DejaVuSans-35"/>
       <use xlink:href="#DejaVuSans-30" transform="translate(63.623047 0)"/>
      </g>
     </g>
    </g>
    <g id="ytick_16">
     <g id="line2d_77">
      <path d="M 55.345313 520.783132
L 561.125312 520.783132
" clip-path="url(#p840c983473)" style="fill: none; stroke: #b0b0b0; stroke-opacity: 0.2; stroke-width: 0.8; stroke-linecap: square"/>
     </g>
     <g id="line2d_78">
      <g>
       <use xlink:href="#m6d66307c50" x="55.345313" y="520.783132" style="stroke: #000000; stroke-width: 0.8"/>
      </g>
     </g>
     <g id="text_46">
      <!-- 100 -->
      <g transform="translate(29.257813 524.582351) scale(0.1 -0.1)">
       <use xlink:href="#DejaVuSans-31"/>
       <use xlink:href="#DejaVuSans-30" transform="translate(63.623047 0)"/>
       <use xlink:href="#DejaVuSans-30" transform="translate(127.246094 0)"/>
      </g>
     </g>
    </g>
    <g id="text_47">
     <!-- Torque [N m] -->
     <g transform="translate(21.160938 597.120989) rotate(-90) scale(0.1 -0.1)">
      <use xlink:href="#DejaVuSans-54"/>
      <use xlink:href="#DejaVuSans-6f" transform="translate(44.083984 0)"/>
      <use xlink:href="#DejaVuSans-72" transform="translate(105.265625 0)"/>
      <use xlink:href="#DejaVuSans-71" transform="translate(144.628906 0)"/>
      <use xlink:href="#DejaVuSans-75" transform="translate(208.105469 0)"/>
      <use xlink:href="#DejaVuSans-65" transform="translate(271.484375 0)"/>
      <use xlink:href="#DejaVuSans-20" transform="translate(333.007812 0)"/>
      <use xlink:href="#DejaVuSans-5b" transform="translate(364.794922 0)"/>
      <use xlink:href="#DejaVuSans-4e" transform="translate(403.808594 0)"/>
      <use xlink:href="#DejaVuSans-20" transform="translate(478.613281 0)"/>
      <use xlink:href="#DejaVuSans-6d" transform="translate(510.400391 0)"/>
      <use xlink:href="#DejaVuSans-5d" transform="translate(607.8125 0)"/>
     </g>
    </g>
   </g>
   <g id="line2d_79">
    <path d="M 78.335313 605.057664
L 84.155566 553.66692
L 89.975819 541.812779
L 183.099869 554.833702
L 509.034047 616.274587
L 514.8543 607.50989
L 538.135312 523.969036
L 514.8543 607.50989
L 509.034047 616.274587
L 183.099869 554.833702
L 171.459363 553.124727
L 89.975819 541.812779
L 84.155566 553.66692
L 78.335313 605.057664
L 78.335313 605.057664
" clip-path="url(#p840c983473)" style="fill: none; stroke-dasharray: 7.4,3.2; stroke-dashoffset: 0; stroke: #000000; stroke-width: 2"/>
   </g>
   <g id="line2d_80">
    <path d="M 78.335313 557.978246
L 89.975819 557.322349
L 95.796072 557.146889
L 101.616325 557.094577
L 113.256831 557.325181
L 124.897338 557.901249
L 136.537844 558.719309
L 153.998604 560.246483
L 171.459363 562.011946
L 194.740376 564.632198
L 218.021388 567.503268
L 241.302401 570.587878
L 270.403667 574.680727
L 316.965692 581.525657
L 357.707464 587.466189
L 386.80873 591.487912
L 410.089743 594.496763
L 433.370756 597.278504
L 456.651768 599.791708
L 474.112528 601.44991
L 485.753034 602.399857
L 497.39354 603.165352
L 509.034047 603.666054
L 520.674553 603.791006
L 526.494806 603.676981
L 538.135312 603.110799
L 526.494806 603.676981
L 520.674553 603.791006
L 509.034047 603.666054
L 497.39354 603.165352
L 485.753034 602.399857
L 468.292275 600.923659
L 450.831515 599.191912
L 427.550502 596.606319
L 404.26949 593.764463
L 380.988477 590.704496
L 351.887211 586.634368
L 311.145439 580.663766
L 264.583414 573.845193
L 235.482148 569.798778
L 212.201135 566.764075
L 188.920123 563.951982
L 165.63911 561.402032
L 148.17835 559.705935
L 136.537844 558.719309
L 124.897338 557.901249
L 113.256831 557.325181
L 101.616325 557.094577
L 95.796072 557.146889
L 89.975819 557.322349
L 78.335313 557.978246
L 78.335313 557.978246
" clip-path="url(#p840c983473)" style="fill: none; stroke: #8c8c8c; stroke-width: 2; stroke-linecap: square"/>
   </g>
   <g id="line2d_81">
    <path d="M 78.335313 554.232176
L 84.155566 552.68342
L 89.975819 551.322932
L 95.796072 550.283657
L 101.616325 549.616244
L 107.436578 549.291027
L 113.256831 549.244166
L 119.077085 549.411701
L 124.897338 549.741863
L 136.537844 550.744323
L 148.17835 552.045152
L 165.63911 554.323527
L 183.099869 556.846884
L 206.380882 560.469861
L 229.661895 564.317996
L 258.763161 569.371333
L 293.68468 575.679671
L 386.80873 592.652228
L 415.909996 597.655661
L 439.191009 601.440576
L 456.651768 604.097106
L 474.112528 606.50794
L 485.753034 607.88582
L 497.39354 608.943142
L 503.213794 609.287803
L 509.034047 609.458563
L 514.8543 609.4028
L 520.674553 609.060833
L 526.494806 608.38558
L 532.315059 607.381185
L 538.135312 606.131783
L 532.315059 607.381185
L 526.494806 608.38558
L 520.674553 609.060833
L 514.8543 609.4028
L 509.034047 609.458563
L 503.213794 609.287803
L 497.39354 608.943142
L 485.753034 607.88582
L 474.112528 606.50794
L 456.651768 604.097106
L 439.191009 601.440576
L 415.909996 597.655661
L 386.80873 592.652228
L 351.887211 586.380369
L 247.122654 567.322287
L 218.021388 562.369113
L 194.740376 558.626485
L 171.459363 555.142374
L 153.998604 552.769616
L 142.358097 551.366166
L 130.717591 550.195734
L 124.897338 549.741863
L 119.077085 549.411701
L 113.256831 549.244166
L 107.436578 549.291027
L 101.616325 549.616244
L 95.796072 550.283657
L 89.975819 551.322932
L 84.155566 552.68342
L 78.335313 554.232176
L 78.335313 554.232176
" clip-path="url(#p840c983473)" style="fill: none; stroke: #2f6f9f; stroke-width: 2; stroke-linecap: square"/>
   </g>
   <g id="line2d_82">
    <path d="M 78.335313 631.273701
L 84.155566 581.431712
L 89.975819 570.938059
L 95.796072 572.785331
L 101.616325 574.26074
L 107.436578 575.393953
L 113.256831 576.248811
L 119.077085 576.889272
L 124.897338 577.367106
L 136.537844 577.980639
L 148.17835 578.295803
L 165.63911 578.441417
L 183.099869 578.435031
L 206.380882 579.200689
L 229.661895 579.741188
L 258.763161 580.173644
L 293.68468 580.448259
L 386.80873 581.03024
L 415.909996 581.5126
L 439.191009 582.11632
L 456.651768 582.751265
L 474.112528 583.631907
L 485.753034 584.448345
L 497.39354 585.585341
L 503.213794 586.337838
L 509.034047 587.264237
L 514.8543 578.555303
L 526.494806 537.802096
L 538.135312 498.285465
L 520.674553 558.012056
L 514.8543 578.555303
L 509.034047 587.264237
L 503.213794 586.337838
L 497.39354 585.585341
L 485.753034 584.448345
L 474.112528 583.631907
L 456.651768 582.751265
L 439.191009 582.11632
L 415.909996 581.5126
L 386.80873 581.03024
L 351.887211 580.719147
L 247.122654 580.028374
L 218.021388 579.495753
L 194.740376 578.849747
L 183.099869 578.435031
L 171.459363 578.430566
L 153.998604 578.379335
L 142.358097 578.166793
L 130.717591 577.721232
L 124.897338 577.367106
L 119.077085 576.889272
L 113.256831 576.248811
L 107.436578 575.393953
L 101.616325 574.26074
L 95.796072 572.785331
L 89.975819 570.938059
L 84.155566 581.431712
L 78.335313 631.273701
L 78.335313 631.273701
" clip-path="url(#p840c983473)" style="fill: none; stroke: #d97720; stroke-width: 1.6; stroke-linecap: square"/>
   </g>
   <g id="patch_15">
    <path d="M 55.345313 637.923112
L 55.345313 491.636054
" style="fill: none; stroke: #000000; stroke-width: 0.8; stroke-linejoin: miter; stroke-linecap: square"/>
   </g>
   <g id="patch_16">
    <path d="M 561.125312 637.923112
L 561.125312 491.636054
" style="fill: none; stroke: #000000; stroke-width: 0.8; stroke-linejoin: miter; stroke-linecap: square"/>
   </g>
   <g id="patch_17">
    <path d="M 55.345313 637.923112
L 561.125312 637.923112
" style="fill: none; stroke: #000000; stroke-width: 0.8; stroke-linejoin: miter; stroke-linecap: square"/>
   </g>
   <g id="patch_18">
    <path d="M 55.345313 491.636054
L 561.125312 491.636054
" style="fill: none; stroke: #000000; stroke-width: 0.8; stroke-linejoin: miter; stroke-linecap: square"/>
   </g>
   <g id="text_48">
    <!-- highest offload: 80.0% offload, 23.8 N m RMSE -->
    <g transform="translate(55.345313 486.838594) scale(0.09 -0.09)">
     <defs>
      <path id="DejaVuSans-68" d="M 3513 2113
L 3513 0
L 2938 0
L 2938 2094
Q 2938 2591 2744 2837
Q 2550 3084 2163 3084
Q 1697 3084 1428 2787
Q 1159 2491 1159 1978
L 1159 0
L 581 0
L 581 4863
L 1159 4863
L 1159 2956
Q 1366 3272 1645 3428
Q 1925 3584 2291 3584
Q 2894 3584 3203 3211
Q 3513 2838 3513 2113
z
" transform="scale(0.015625)"/>
     </defs>
     <use xlink:href="#DejaVuSans-68"/>
     <use xlink:href="#DejaVuSans-69" transform="translate(63.378906 0)"/>
     <use xlink:href="#DejaVuSans-67" transform="translate(91.162109 0)"/>
     <use xlink:href="#DejaVuSans-68" transform="translate(154.638672 0)"/>
     <use xlink:href="#DejaVuSans-65" transform="translate(218.017578 0)"/>
     <use xlink:href="#DejaVuSans-73" transform="translate(279.541016 0)"/>
     <use xlink:href="#DejaVuSans-74" transform="translate(331.640625 0)"/>
     <use xlink:href="#DejaVuSans-20" transform="translate(370.849609 0)"/>
     <use xlink:href="#DejaVuSans-6f" transform="translate(402.636719 0)"/>
     <use xlink:href="#DejaVuSans-66" transform="translate(463.818359 0)"/>
     <use xlink:href="#DejaVuSans-66" transform="translate(499.023438 0)"/>
     <use xlink:href="#DejaVuSans-6c" transform="translate(534.228516 0)"/>
     <use xlink:href="#DejaVuSans-6f" transform="translate(562.011719 0)"/>
     <use xlink:href="#DejaVuSans-61" transform="translate(623.193359 0)"/>
     <use xlink:href="#DejaVuSans-64" transform="translate(684.472656 0)"/>
     <use xlink:href="#DejaVuSans-3a" transform="translate(747.949219 0)"/>
     <use xlink:href="#DejaVuSans-20" transform="translate(781.640625 0)"/>
     <use xlink:href="#DejaVuSans-38" transform="translate(813.427734 0)"/>
     <use xlink:href="#DejaVuSans-30" transform="translate(877.050781 0)"/>
     <use xlink:href="#DejaVuSans-2e" transform="translate(940.673828 0)"/>
     <use xlink:href="#DejaVuSans-30" transform="translate(972.460938 0)"/>
     <use xlink:href="#DejaVuSans-25" transform="translate(1036.083984 0)"/>
     <use xlink:href="#DejaVuSans-20" transform="translate(1131.103516 0)"/>
     <use xlink:href="#DejaVuSans-6f" transform="translate(1162.890625 0)"/>
     <use xlink:href="#DejaVuSans-66" transform="translate(1224.072266 0)"/>
     <use xlink:href="#DejaVuSans-66" transform="translate(1259.277344 0)"/>
     <use xlink:href="#DejaVuSans-6c" transform="translate(1294.482422 0)"/>
     <use xlink:href="#DejaVuSans-6f" transform="translate(1322.265625 0)"/>
     <use xlink:href="#DejaVuSans-61" transform="translate(1383.447266 0)"/>
     <use xlink:href="#DejaVuSans-64" transform="translate(1444.726562 0)"/>
     <use xlink:href="#DejaVuSans-2c" transform="translate(1508.203125 0)"/>
     <use xlink:href="#DejaVuSans-20" transform="translate(1539.990234 0)"/>
     <use xlink:href="#DejaVuSans-32" transform="translate(1571.777344 0)"/>
     <use xlink:href="#DejaVuSans-33" transform="translate(1635.400391 0)"/>
     <use xlink:href="#DejaVuSans-2e" transform="translate(1699.023438 0)"/>
     <use xlink:href="#DejaVuSans-38" transform="translate(1730.810547 0)"/>
     <use xlink:href="#DejaVuSans-20" transform="translate(1794.433594 0)"/>
     <use xlink:href="#DejaVuSans-4e" transform="translate(1826.220703 0)"/>
     <use xlink:href="#DejaVuSans-20" transform="translate(1901.025391 0)"/>
     <use xlink:href="#DejaVuSans-6d" transform="translate(1932.8125 0)"/>
     <use xlink:href="#DejaVuSans-20" transform="translate(2030.224609 0)"/>
     <use xlink:href="#DejaVuSans-52" transform="translate(2062.011719 0)"/>
     <use xlink:href="#DejaVuSans-4d" transform="translate(2131.494141 0)"/>
     <use xlink:href="#DejaVuSans-53" transform="translate(2217.773438 0)"/>
     <use xlink:href="#DejaVuSans-45" transform="translate(2281.25 0)"/>
    </g>
   </g>
   <g id="legend_3">
    <g id="patch_19">
     <path d="M 199.765937 699.991265
L 416.704687 699.991265
Q 418.304688 699.991265 418.304688 698.391265
L 418.304688 675.706265
Q 418.304688 674.106265 416.704687 674.106265
L 199.765937 674.106265
Q 198.165937 674.106265 198.165937 675.706265
L 198.165937 698.391265
Q 198.165937 699.991265 199.765937 699.991265
z
" style="fill: #ffffff; opacity: 0.8; stroke: #cccccc; stroke-linejoin: miter"/>
    </g>
    <g id="line2d_83">
     <path d="M 201.365937 680.585015
L 209.365937 680.585015
L 217.365937 680.585015
" style="fill: none; stroke-dasharray: 7.4,3.2; stroke-dashoffset: 0; stroke: #000000; stroke-width: 2"/>
    </g>
    <g id="text_49">
     <!-- target -->
     <g transform="translate(223.765937 683.385015) scale(0.08 -0.08)">
      <use xlink:href="#DejaVuSans-74"/>
      <use xlink:href="#DejaVuSans-61" transform="translate(39.208984 0)"/>
      <use xlink:href="#DejaVuSans-72" transform="translate(100.488281 0)"/>
      <use xlink:href="#DejaVuSans-67" transform="translate(139.851562 0)"/>
      <use xlink:href="#DejaVuSans-65" transform="translate(203.328125 0)"/>
      <use xlink:href="#DejaVuSans-74" transform="translate(264.851562 0)"/>
     </g>
    </g>
    <g id="line2d_84">
     <path d="M 201.365937 692.327515
L 209.365937 692.327515
L 217.365937 692.327515
" style="fill: none; stroke: #8c8c8c; stroke-width: 2; stroke-linecap: square"/>
    </g>
    <g id="text_50">
     <!-- period 1 default -->
     <g transform="translate(223.765937 695.127515) scale(0.08 -0.08)">
      <use xlink:href="#DejaVuSans-70"/>
      <use xlink:href="#DejaVuSans-65" transform="translate(63.476562 0)"/>
      <use xlink:href="#DejaVuSans-72" transform="translate(125 0)"/>
      <use xlink:href="#DejaVuSans-69" transform="translate(166.113281 0)"/>
      <use xlink:href="#DejaVuSans-6f" transform="translate(193.896484 0)"/>
      <use xlink:href="#DejaVuSans-64" transform="translate(255.078125 0)"/>
      <use xlink:href="#DejaVuSans-20" transform="translate(318.554688 0)"/>
      <use xlink:href="#DejaVuSans-31" transform="translate(350.341797 0)"/>
      <use xlink:href="#DejaVuSans-20" transform="translate(413.964844 0)"/>
      <use xlink:href="#DejaVuSans-64" transform="translate(445.751953 0)"/>
      <use xlink:href="#DejaVuSans-65" transform="translate(509.228516 0)"/>
      <use xlink:href="#DejaVuSans-66" transform="translate(570.751953 0)"/>
      <use xlink:href="#DejaVuSans-61" transform="translate(605.957031 0)"/>
      <use xlink:href="#DejaVuSans-75" transform="translate(667.236328 0)"/>
      <use xlink:href="#DejaVuSans-6c" transform="translate(730.615234 0)"/>
      <use xlink:href="#DejaVuSans-74" transform="translate(758.398438 0)"/>
     </g>
    </g>
    <g id="line2d_85">
     <path d="M 303.575938 680.585015
L 311.575938 680.585015
L 319.575938 680.585015
" style="fill: none; stroke: #2f6f9f; stroke-width: 2; stroke-linecap: square"/>
    </g>
    <g id="text_51">
     <!-- period 12 settled -->
     <g transform="translate(325.975937 683.385015) scale(0.08 -0.08)">
      <use xlink:href="#DejaVuSans-70"/>
      <use xlink:href="#DejaVuSans-65" transform="translate(63.476562 0)"/>
      <use xlink:href="#DejaVuSans-72" transform="translate(125 0)"/>
      <use xlink:href="#DejaVuSans-69" transform="translate(166.113281 0)"/>
      <use xlink:href="#DejaVuSans-6f" transform="translate(193.896484 0)"/>
      <use xlink:href="#DejaVuSans-64" transform="translate(255.078125 0)"/>
      <use xlink:href="#DejaVuSans-20" transform="translate(318.554688 0)"/>
      <use xlink:href="#DejaVuSans-31" transform="translate(350.341797 0)"/>
      <use xlink:href="#DejaVuSans-32" transform="translate(413.964844 0)"/>
      <use xlink:href="#DejaVuSans-20" transform="translate(477.587891 0)"/>
      <use xlink:href="#DejaVuSans-73" transform="translate(509.375 0)"/>
      <use xlink:href="#DejaVuSans-65" transform="translate(561.474609 0)"/>
      <use xlink:href="#DejaVuSans-74" transform="translate(622.998047 0)"/>
      <use xlink:href="#DejaVuSans-74" transform="translate(662.207031 0)"/>
      <use xlink:href="#DejaVuSans-6c" transform="translate(701.416016 0)"/>
      <use xlink:href="#DejaVuSans-65" transform="translate(729.199219 0)"/>
      <use xlink:href="#DejaVuSans-64" transform="translate(790.722656 0)"/>
     </g>
    </g>
    <g id="line2d_86">
     <path d="M 303.575938 692.327515
L 311.575938 692.327515
L 319.575938 692.327515
" style="fill: none; stroke: #d97720; stroke-width: 1.6; stroke-linecap: square"/>
    </g>
    <g id="text_52">
     <!-- Residual motor torque -->
     <g transform="translate(325.975937 695.127515) scale(0.08 -0.08)">
      <use xlink:href="#DejaVuSans-52"/>
      <use xlink:href="#DejaVuSans-65" transform="translate(64.982422 0)"/>
      <use xlink:href="#DejaVuSans-73" transform="translate(126.505859 0)"/>
      <use xlink:href="#DejaVuSans-69" transform="translate(178.605469 0)"/>
      <use xlink:href="#DejaVuSans-64" transform="translate(206.388672 0)"/>
      <use xlink:href="#DejaVuSans-75" transform="translate(269.865234 0)"/>
      <use xlink:href="#DejaVuSans-61" transform="translate(333.244141 0)"/>
      <use xlink:href="#DejaVuSans-6c" transform="translate(394.523438 0)"/>
      <use xlink:href="#DejaVuSans-20" transform="translate(422.306641 0)"/>
      <use xlink:href="#DejaVuSans-6d" transform="translate(454.09375 0)"/>
      <use xlink:href="#DejaVuSans-6f" transform="translate(551.505859 0)"/>
      <use xlink:href="#DejaVuSans-74" transform="translate(612.6875 0)"/>
      <use xlink:href="#DejaVuSans-6f" transform="translate(651.896484 0)"/>
      <use xlink:href="#DejaVuSans-72" transform="translate(713.078125 0)"/>
      <use xlink:href="#DejaVuSans-20" transform="translate(754.191406 0)"/>
      <use xlink:href="#DejaVuSans-74" transform="translate(785.978516 0)"/>
      <use xlink:href="#DejaVuSans-6f" transform="translate(825.1875 0)"/>
      <use xlink:href="#DejaVuSans-72" transform="translate(886.369141 0)"/>
      <use xlink:href="#DejaVuSans-71" transform="translate(925.732422 0)"/>
      <use xlink:href="#DejaVuSans-75" transform="translate(989.208984 0)"/>
      <use xlink:href="#DejaVuSans-65" transform="translate(1052.587891 0)"/>
     </g>
    </g>
   </g>
  </g>
 </g>
 <defs>
  <clipPath id="p31451957f8">
   <rect x="55.345313" y="18.836054" width="505.78" height="146.287059"/>
  </clipPath>
  <clipPath id="p8b837863e6">
   <rect x="55.345313" y="255.236054" width="505.78" height="146.287059"/>
  </clipPath>
  <clipPath id="p840c983473">
   <rect x="55.345313" y="491.636054" width="505.78" height="146.287059"/>
  </clipPath>
 </defs>
</svg>
