<?xml version="1.0" encoding="utf-8" standalone="no"?>
<!DOCTYPE svg PUBLIC "-//W3C//DTD SVG 1.1//EN"
  "http://www.w3.org/Graphics/SVG/1.1/DTD/svg11.dtd">
<svg xmlns:xlink="http://www.w3.org/1999/xlink" width="568.325312pt" height="707.191265pt" viewBox="0 0 568.325312 707.191265" xmlns="http://www.w3.org/2000/svg" version="1.1">
 <metadata>
  <rdf:RDF xmlns:dc="http://purl.org/dc/elements/1.1/" xmlns:cc="http://creativecommons.org/ns#" xmlns:rdf="http://www.w3.org/1999/02/22-rdf-syntax-ns#">
   <cc:Work>
    <dc:type rdf:resource="http://purl.org/dc/dcmitype/StillImage"/>
    <dc:date>2026-10-01T07:37:22.476022</dc:date>
    <dc:format>image/svg+xml</dc:format>
    <dc:creator>
     <cc:Agent>
      <dc:title>Matplotlib v3.10.6, https://matplotlib.org/</dc:title>
     </cc:Agent>
    </dc:creator>
   </cc:Work>
  </rdf:RDF>
 </metadata>
 <defs>
  <style type="text/css">*{stroke-linejoin: round; stroke-linecap: butt}</style>
 </defs>
 <g id="figure_1">
  <g id="patch_1">
   <path d="M 0 707.191265
L 568.325312 707.191265
L 568.325312 0
L 0 0
L 0 707.191265
z
" style="fill: none"/>
  </g>
  <g id="axes_1">
   <g id="patch_2">
    <path d="M 55.345313 165.123113
L 561.125312 165.123113
L 561.125312 18.836054
L 55.345313 18.836054
L 55.345313 165.123113
z
" style="fill: none"/>
   </g>
   <g id="matplotlib.axis_1">
    <g id="xtick_1">
     <g id="line2d_1">
      <path d="M 104.041431 165.123113
L 104.041431 18.836054
" clip-path="url(#pc44aa6d5c3)" style="fill: none; stroke: #b0b0b0; stroke-opacity: 0.2; stroke-width: 0.8; stroke-linecap: square"/>
     </g>
     <g id="line2d_2">
      <defs>
       <path id="m17df911917" d="M 0 0
L 0 3.5
" style="stroke: #000000; stroke-width: 0.8"/>
      </defs>
      <g>
       <use xlink:href="#m17df911917" x="104.041431" y="165.123113" style="stroke: #000000; stroke-width: 0.8"/>
      </g>
     </g>
     <g id="text_1">
      <!-- −40 -->
      <g transform="translate(93.489087 179.72155) scale(0.1 -0.1)">
       <defs>
        <path id="DejaVuSans-2212" d="M 678 2272
L 4684 2272
L 4684 1741
L 678 1741
L 678 2272
z
" transform="scale(0.015625)"/>
        <path id="DejaVuSans-34" d="M 2419 4116
L 825 1625
L 2419 1625
L 2419 4116
z
M 2253 4666
L 3047 4666
L 3047 1625
L 3713 1625
L 3713 1100
L 3047 1100
L 3047 0
L 2419 0
L 2419 1100
L 313 1100
L 313 1709
L 2253 4666
z
" transform="scale(0.015625)"/>
        <path id="DejaVuSans-30" d="M 2034 4250
Q 1547 4250 1301 3770
Q 1056 3291 1056 2328
Q 1056 1369 1301 889
Q 1547 409 2034 409
Q 2525 409 2770 889
Q 3016 1369 3016 2328
Q 3016 3291 2770 3770
Q 2525 4250 2034 4250
z
M 2034 4750
Q 2819 4750 3233 4129
Q 3647 3509 3647 2328
Q 3647 1150 3233 529
Q 2819 -91 2034 -91
Q 1250 -91 836 529
Q 422 1150 422 2328
Q 422 3509 836 4129
Q 1250 4750 2034 4750
z
" transform="scale(0.015625)"/>
       </defs>
       <use xlink:href="#DejaVuSans-2212"/>
       <use xlink:href="#DejaVuSans-34" transform="translate(83.789062 0)"/>
       <use xlink:href="#DejaVuSans-30" transform="translate(147.412109 0)"/>
      </g>
     </g>
    </g>
    <g id="xtick_2">
     <g id="line2d_3">
      <path d="M 206.865903 165.123113
L 206.865903 18.836054
" clip-path="url(#pc44aa6d5c3)" style="fill: none; stroke: #b0b0b0; stroke-opacity: 0.2; stroke-width: 0.8; stroke-linecap: square"/>
     </g>
     <g id="line2d_4">
      <g>
       <use xlink:href="#m17df911917" x="206.865903" y="165.123113" style="stroke: #000000; stroke-width: 0.8"/>
      </g>
     </g>
     <g id="text_2">
      <!-- −20 -->
      <g transform="translate(196.313559 179.72155) scale(0.1 -0.1)">
       <defs>
        <path id="DejaVuSans-32" d="M 1228 531
L 3431 531
L 3431 0
L 469 0
L 469 531
Q 828 903 1448 1529
Q 2069 2156 2228 2338
Q 2531 2678 2651 2914
Q 2772 3150 2772 3378
Q 2772 3750 2511 3984
Q 2250 4219 1831 4219
Q 1534 4219 1204 4116
Q 875 4013 500 3803
L 500 4441
Q 881 4594 1212 4672
Q 1544 4750 1819 4750
Q 2544 4750 2975 4387
Q 3406 4025 3406 3419
Q 3406 3131 3298 2873
Q 3191 2616 2906 2266
Q 2828 2175 2409 1742
Q 1991 1309 1228 531
z
" transform="scale(0.015625)"/>
       </defs>
       <use xlink:href="#DejaVuSans-2212"/>
       <use xlink:href="#DejaVuSans-32" transform="translate(83.789062 0)"/>
       <use xlink:href="#DejaVuSans-30" transform="translate(147.412109 0)"/>
      </g>
     </g>
    </g>
    <g id="xtick_3">
     <g id="line2d_5">
      <path d="M 309.690376 165.123113
L 309.690376 18.836054
" clip-path="url(#pc44aa6d5c3)" style="fill: none; stroke: #b0b0b0; stroke-opacity: 0.2; stroke-width: 0.8; stroke-linecap: square"/>
     </g>
     <g id="line2d_6">
      <g>
       <use xlink:href="#m17df911917" x="309.690376" y="165.123113" style="stroke: #000000; stroke-width: 0.8"/>
      </g>
     </g>
     <g id="text_3">
      <!-- 0 -->
      <g transform="translate(306.509126 179.72155) scale(0.1 -0.1)">
       <use xlink:href="#DejaVuSans-30"/>
      </g>
     </g>
    </g>
    <g id="xtick_4">
     <g id="line2d_7">
      <path d="M 412.514848 165.123113
L 412.514848 18.836054
" clip-path="url(#pc44aa6d5c3)" style="fill: none; stroke: #b0b0b0; stroke-opacity: 0.2; stroke-width: 0.8; stroke-linecap: square"/>
     </g>
     <g id="line2d_8">
      <g>
       <use xlink:href="#m17df911917" x="412.514848" y="165.123113" style="stroke: #000000; stroke-width: 0.8"/>
      </g>
     </g>
     <g id="text_4">
      <!-- 20 -->
      <g transform="translate(406.152348 179.72155) scale(0.1 -0.1)">
       <use xlink:href="#DejaVuSans-32"/>
       <use xlink:href="#DejaVuSans-30" transform="translate(63.623047 0)"/>
      </g>
     </g>
    </g>
    <g id="xtick_5">
     <g id="line2d_9">
      <path d="M 515.339321 165.123113
L 515.339321 18.836054
" clip-path="url(#pc44aa6d5c3)" style="fill: none; stroke: #b0b0b0; stroke-opacity: 0.2; stroke-width: 0.8; stroke-linecap: square"/>
     </g>
     <g id="line2d_10">
      <g>
       <use xlink:href="#m17df911917" x="515.339321" y="165.123113" style="stroke: #000000; stroke-width: 0.8"/>
      </g>
     </g>
     <g id="text_5">
      <!-- 40 -->
      <g transform="translate(508.976821 179.72155) scale(0.1 -0.1)">
       <use xlink:href="#DejaVuSans-34"/>
       <use xlink:href="#DejaVuSans-30" transform="translate(63.623047 0)"/>
      </g>
     </g>
    </g>
    <g id="text_6">
     <!-- Joint angle [deg] -->
     <g transform="translate(266.805625 193.399675) scale(0.1 -0.1)">
      <defs>
       <path id="DejaVuSans-4a" d="M 628 4666
L 1259 4666
L 1259 325
Q 1259 -519 939 -900
Q 619 -1281 -91 -1281
L -331 -1281
L -331 -750
L -134 -750
Q 284 -750 456 -515
Q 628 -281 628 325
L 628 4666
z
" transform="scale(0.015625)"/>
       <path id="DejaVuSans-6f" d="M 1959 3097
Q 1497 3097 1228 2736
Q 959 2375 959 1747
Q 959 1119 1226 758
Q 1494 397 1959 397
Q 2419 397 2687 759
Q 2956 1122 2956 1747
Q 2956 2369 2687 2733
Q 2419 3097 1959 3097
z
M 1959 3584
Q 2709 3584 3137 3096
Q 3566 2609 3566 1747
Q 3566 888 3137 398
Q 2709 -91 1959 -91
Q 1206 -91 779 398
Q 353 888 353 1747
Q 353 2609 779 3096
Q 1206 3584 1959 3584
z
" transform="scale(0.015625)"/>
       <path id="DejaVuSans-69" d="M 603 3500
L 1178 3500
L 1178 0
L 603 0
L 603 3500
z
M 603 4863
L 1178 4863
L 1178 4134
L 603 4134
L 603 4863
z
" transform="scale(0.015625)"/>
       <path id="DejaVuSans-6e" d="M 3513 2113
L 3513 0
L 2938 0
L 2938 2094
Q 2938 2591 2744 2837
Q 2550 3084 2163 3084
Q 1697 3084 1428 2787
Q 1159 2491 1159 1978
L 1159 0
L 581 0
L 581 3500
L 1159 3500
L 1159 2956
Q 1366 3272 1645 3428
Q 1925 3584 2291 3584
Q 2894 3584 3203 3211
Q 3513 2838 3513 2113
z
" transform="scale(0.015625)"/>
       <path id="DejaVuSans-74" d="M 1172 4494
L 1172 3500
L 2356 3500
L 2356 3053
L 1172 3053
L 1172 1153
Q 1172 725 1289 603
Q 1406 481 1766 481
L 2356 481
L 2356 0
L 1766 0
Q 1100 0 847 248
Q 594 497 594 1153
L 594 3053
L 172 3053
L 172 3500
L 594 3500
L 594 4494
L 1172 4494
z
" transform="scale(0.015625)"/>
       <path id="DejaVuSans-20" transform="scale(0.015625)"/>
       <path id="DejaVuSans-61" d="M 2194 1759
Q 1497 1759 1228 1600
Q 959 1441 959 1056
Q 959 750 1161 570
Q 1363 391 1709 391
Q 2188 391 2477 730
Q 2766 1069 2766 1631
L 2766 1759
L 2194 1759
z
M 3341 1997
L 3341 0
L 2766 0
L 2766 531
Q 2569 213 2275 61
Q 1981 -91 1556 -91
Q 1019 -91 701 211
Q 384 513 384 1019
Q 384 1609 779 1909
Q 1175 2209 1959 2209
L 2766 2209
L 2766 2266
Q 2766 2663 2505 2880
Q 2244 3097 1772 3097
Q 1472 3097 1187 3025
Q 903 2953 641 2809
L 641 3341
Q 956 3463 1253 3523
Q 1550 3584 1831 3584
Q 2591 3584 2966 3190
Q 3341 2797 3341 1997
z
" transform="scale(0.015625)"/>
       <path id="DejaVuSans-67" d="M 2906 1791
Q 2906 2416 2648 2759
Q 2391 3103 1925 3103
Q 1463 3103 1205 2759
Q 947 2416 947 1791
Q 947 1169 1205 825
Q 1463 481 1925 481
Q 2391 481 2648 825
Q 2906 1169 2906 1791
z
M 3481 434
Q 3481 -459 3084 -895
Q 2688 -1331 1869 -1331
Q 1566 -1331 1297 -1286
Q 1028 -1241 775 -1147
L 775 -588
Q 1028 -725 1275 -790
Q 1522 -856 1778 -856
Q 2344 -856 2625 -561
Q 2906 -266 2906 331
L 2906 616
Q 2728 306 2450 153
Q 2172 0 1784 0
Q 1141 0 747 490
Q 353 981 353 1791
Q 353 2603 747 3093
Q 1141 3584 1784 3584
Q 2172 3584 2450 3431
Q 2728 3278 2906 2969
L 2906 3500
L 3481 3500
L 3481 434
z
" transform="scale(0.015625)"/>
       <path id="DejaVuSans-6c" d="M 603 4863
L 1178 4863
L 1178 0
L 603 0
L 603 4863
z
" transform="scale(0.015625)"/>
       <path id="DejaVuSans-65" d="M 3597 1894
L 3597 1613
L 953 1613
Q 991 1019 1311 708
Q 1631 397 2203 397
Q 2534 397 2845 478
Q 3156 559 3463 722
L 3463 178
Q 3153 47 2828 -22
Q 2503 -91 2169 -91
Q 1331 -91 842 396
Q 353 884 353 1716
Q 353 2575 817 3079
Q 1281 3584 2069 3584
Q 2775 3584 3186 3129
Q 3597 2675 3597 1894
z
M 3022 2063
Q 3016 2534 2758 2815
Q 2500 3097 2075 3097
Q 1594 3097 1305 2825
Q 1016 2553 972 2059
L 3022 2063
z
" transform="scale(0.015625)"/>
       <path id="DejaVuSans-5b" d="M 550 4863
L 1875 4863
L 1875 4416
L 1125 4416
L 1125 -397
L 1875 -397
L 1875 -844
L 550 -844
L 550 4863
z
" transform="scale(0.015625)"/>
       <path id="DejaVuSans-64" d="M 2906 2969
L 2906 4863
L 3481 4863
L 3481 0
L 2906 0
L 2906 525
Q 2725 213 2448 61
Q 2172 -91 1784 -91
Q 1150 -91 751 415
Q 353 922 353 1747
Q 353 2572 751 3078
Q 1150 3584 1784 3584
Q 2172 3584 2448 3432
Q 2725 3281 2906 2969
z
M 947 1747
Q 947 1113 1208 752
Q 1469 391 1925 391
Q 2381 391 2643 752
Q 2906 1113 2906 1747
Q 2906 2381 2643 2742
Q 2381 3103 1925 3103
Q 1469 3103 1208 2742
Q 947 2381 947 1747
z
" transform="scale(0.015625)"/>
       <path id="DejaVuSans-5d" d="M 1947 4863
L 1947 -844
L 622 -844
L 622 -397
L 1369 -397
L 1369 4416
L 622 4416
L 622 4863
L 1947 4863
z
" transform="scale(0.015625)"/>
      </defs>
      <use xlink:href="#DejaVuSans-4a"/>
      <use xlink:href="#DejaVuSans-6f" transform="translate(29.492188 0)"/>
      <use xlink:href="#DejaVuSans-69" transform="translate(90.673828 0)"/>
      <use xlink:href="#DejaVuSans-6e" transform="translate(118.457031 0)"/>
      <use xlink:href="#DejaVuSans-74" transform="translate(181.835938 0)"/>
      <use xlink:href="#DejaVuSans-20" transform="translate(221.044922 0)"/>
      <use xlink:href="#DejaVuSans-61" transform="translate(252.832031 0)"/>
      <use xlink:href="#DejaVuSans-6e" transform="translate(314.111328 0)"/>
      <use xlink:href="#DejaVuSans-67" transform="translate(377.490234 0)"/>
      <use xlink:href="#DejaVuSans-6c" transform="translate(440.966797 0)"/>
      <use xlink:href="#DejaVuSans-65" transform="translate(468.75 0)"/>
      <use xlink:href="#DejaVuSans-20" transform="translate(530.273438 0)"/>
      <use xlink:href="#DejaVuSans-5b" transform="translate(562.060547 0)"/>
      <use xlink:href="#DejaVuSans-64" transform="translate(601.074219 0)"/>
      <use xlink:href="#DejaVuSans-65" transform="translate(664.550781 0)"/>
      <use xlink:href="#DejaVuSans-67" transform="translate(726.074219 0)"/>
      <use xlink:href="#DejaVuSans-5d" transform="translate(789.550781 0)"/>
     </g>
    </g>
   </g>
   <g id="matplotlib.axis_2">
    <g id="ytick_1">
     <g id="line2d_11">
      <path d="M 55.345313 145.212112
L 561.125312 145.212112
" clip-path="url(#pc44aa6d5c3)" style="fill: none; stroke: #b0b0b0; stroke-opacity: 0.2; stroke-width: 0.8; stroke-linecap: square"/>
     </g>
     <g id="line2d_12">
      <defs>
       <path id="md4ac7ede8f" d="M 0 0
L -3.5 0
" style="stroke: #000000; stroke-width: 0.8"/>
      </defs>
      <g>
       <use xlink:href="#md4ac7ede8f" x="55.345313" y="145.212112" style="stroke: #000000; stroke-width: 0.8"/>
      </g>
     </g>
     <g id="text_7">
      <!-- −50 -->
      <g transform="translate(27.240625 149.011331) scale(0.1 -0.1)">
       <defs>
        <path id="DejaVuSans-35" d="M 691 4666
L 3169 4666
L 3169 4134
L 1269 4134
L 1269 2991
Q 1406 3038 1543 3061
Q 1681 3084 1819 3084
Q 2600 3084 3056 2656
Q 3513 2228 3513 1497
Q 3513 744 3044 326
Q 2575 -91 1722 -91
Q 1428 -91 1123 -41
Q 819 9 494 109
L 494 744
Q 775 591 1075 516
Q 1375 441 1709 441
Q 2250 441 2565 725
Q 2881 1009 2881 1497
Q 2881 1984 2565 2268
Q 2250 2553 1709 2553
Q 1456 2553 1204 2497
Q 953 2441 691 2322
L 691 4666
z
" transform="scale(0.015625)"/>
       </defs>
       <use xlink:href="#DejaVuSans-2212"/>
       <use xlink:href="#DejaVuSans-35" transform="translate(83.789062 0)"/>
       <use xlink:href="#DejaVuSans-30" transform="translate(147.412109 0)"/>
      </g>
     </g>
    </g>
    <g id="ytick_2">
     <g id="line2d_13">
      <path d="M 55.345313 104.509745
L 561.125312 104.509745
" clip-path="url(#pc44aa6d5c3)" style="fill: none; stroke: #b0b0b0; stroke-opacity: 0.2; stroke-width: 0.8; stroke-linecap: square"/>
     </g>
     <g id="line2d_14">
      <g>
       <use xlink:href="#md4ac7ede8f" x="55.345313" y="104.509745" style="stroke: #000000; stroke-width: 0.8"/>
      </g>
     </g>
     <g id="text_8">
      <!-- 0 -->
      <g transform="translate(41.982813 108.308964) scale(0.1 -0.1)">
       <use xlink:href="#DejaVuSans-30"/>
      </g>
     </g>
    </g>
    <g id="ytick_3">
     <g id="line2d_15">
      <path d="M 55.345313 63.807379
L 561.125312 63.807379
" clip-path="url(#pc44aa6d5c3)" style="fill: none; stroke: #b0b0b0; stroke-opacity: 0.2; stroke-width: 0.8; stroke-linecap: square"/>
     </g>
     <g id="line2d_16">
      <g>
       <use xlink:href="#md4ac7ede8f" x="55.345313" y="63.807379" style="stroke: #000000; stroke-width: 0.8"/>
      </g>
     </g>
     <g id="text_9">
      <!-- 50 -->
      <g transform="translate(35.620313 67.606597) scale(0.1 -0.1)">
       <use xlink:href="#DejaVuSans-35"/>
       <use xlink:href="#DejaVuSans-30" transform="translate(63.623047 0)"/>
      </g>
     </g>
    </g>
    <g id="ytick_4">
     <g id="line2d_17">
      <path d="M 55.345313 23.105012
L 561.125312 23.105012
" clip-path="url(#pc44aa6d5c3)" style="fill: none; stroke: #b0b0b0; stroke-opacity: 0.2; stroke-width: 0.8; stroke-linecap: square"/>
     </g>
     <g id="line2d_18">
      <g>
       <use xlink:href="#md4ac7ede8f" x="55.345313" y="23.105012" style="stroke: #000000; stroke-width: 0.8"/>
      </g>
     </g>
     <g id="text_10">
      <!-- 100 -->
      <g transform="translate(29.257813 26.904231) scale(0.1 -0.1)">
       <defs>
        <path id="DejaVuSans-31" d="M 794 531
L 1825 531
L 1825 4091
L 703 3866
L 703 4441
L 1819 4666
L 2450 4666
L 2450 531
L 3481 531
L 3481 0
L 794 0
L 794 531
z
" transform="scale(0.015625)"/>
       </defs>
       <use xlink:href="#DejaVuSans-31"/>
       <use xlink:href="#DejaVuSans-30" transform="translate(63.623047 0)"/>
       <use xlink:href="#DejaVuSans-30" transform="translate(127.246094 0)"/>
      </g>
     </g>
    </g>
    <g id="text_11">
     <!-- Torque [N m] -->
     <g transform="translate(21.160938 124.320989) rotate(-90) scale(0.1 -0.1)">
      <defs>
       <path id="DejaVuSans-54" d="M -19 4666
L 3928 4666
L 3928 4134
L 2272 4134
L 2272 0
L 1638 0
L 1638 4134
L -19 4134
L -19 4666
z
" transform="scale(0.015625)"/>
       <path id="DejaVuSans-72" d="M 2631 2963
Q 2534 3019 2420 3045
Q 2306 3072 2169 3072
Q 1681 3072 1420 2755
Q 1159 2438 1159 1844
L 1159 0
L 581 0
L 581 3500
L 1159 3500
L 1159 2956
Q 1341 3275 1631 3429
Q 1922 3584 2338 3584
Q 2397 3584 2469 3576
Q 2541 3569 2628 3553
L 2631 2963
z
" transform="scale(0.015625)"/>
       <path id="DejaVuSans-71" d="M 947 1747
Q 947 1113 1208 752
Q 1469 391 1925 391
Q 2381 391 2643 752
Q 2906 1113 2906 1747
Q 2906 2381 2643 2742
Q 2381 3103 1925 3103
Q 1469 3103 1208 2742
Q 947 2381 947 1747
z
M 2906 525
Q 2725 213 2448 61
Q 2172 -91 1784 -91
Q 1150 -91 751 415
Q 353 922 353 1747
Q 353 2572 751 3078
Q 1150 3584 1784 3584
Q 2172 3584 2448 3432
Q 2725 3281 2906 2969
L 2906 3500
L 3481 3500
L 3481 -1331
L 2906 -1331
L 2906 525
z
" transform="scale(0.015625)"/>
       <path id="DejaVuSans-75" d="M 544 1381
L 544 3500
L 1119 3500
L 1119 1403
Q 1119 906 1312 657
Q 1506 409 1894 409
Q 2359 409 2629 706
Q 2900 1003 2900 1516
L 2900 3500
L 3475 3500
L 3475 0
L 2900 0
L 2900 538
Q 2691 219 2414 64
Q 2138 -91 1772 -91
Q 1169 -91 856 284
Q 544 659 544 1381
z
M 1991 3584
L 1991 3584
z
" transform="scale(0.015625)"/>
       <path id="DejaVuSans-4e" d="M 628 4666
L 1478 4666
L 3547 763
L 3547 4666
L 4159 4666
L 4159 0
L 3309 0
L 1241 3903
L 1241 0
L 628 0
L 628 4666
z
" transform="scale(0.015625)"/>
       <path id="DejaVuSans-6d" d="M 3328 2828
Q 3544 3216 3844 3400
Q 4144 3584 4550 3584
Q 5097 3584 5394 3201
Q 5691 2819 5691 2113
L 5691 0
L 5113 0
L 5113 2094
Q 5113 2597 4934 2840
Q 4756 3084 4391 3084
Q 3944 3084 3684 2787
Q 3425 2491 3425 1978
L 3425 0
L 2847 0
L 2847 2094
Q 2847 2600 2669 2842
Q 2491 3084 2119 3084
Q 1678 3084 1418 2786
Q 1159 2488 1159 1978
L 1159 0
L 581 0
L 581 3500
L 1159 3500
L 1159 2956
Q 1356 3278 1631 3431
Q 1906 3584 2284 3584
Q 2666 3584 2933 3390
Q 3200 3197 3328 2828
z
" transform="scale(0.015625)"/>
      </defs>
      <use xlink:href="#DejaVuSans-54"/>
      <use xlink:href="#DejaVuSans-6f" transform="translate(44.083984 0)"/>
      <use xlink:href="#DejaVuSans-72" transform="translate(105.265625 0)"/>
      <use xlink:href="#DejaVuSans-71" transform="translate(144.628906 0)"/>
      <use xlink:href="#DejaVuSans-75" transform="translate(208.105469 0)"/>
      <use xlink:href="#DejaVuSans-65" transform="translate(271.484375 0)"/>
      <use xlink:href="#DejaVuSans-20" transform="translate(333.007812 0)"/>
      <use xlink:href="#DejaVuSans-5b" transform="translate(364.794922 0)"/>
      <use xlink:href="#DejaVuSans-4e" transform="translate(403.808594 0)"/>
      <use xlink:href="#DejaVuSans-20" transform="translate(478.613281 0)"/>
      <use xlink:href="#DejaVuSans-6d" transform="translate(510.400391 0)"/>
      <use xlink:href="#DejaVuSans-5d" transform="translate(607.8125 0)"/>
     </g>
    </g>
   </g>
   <g id="line2d_19">
    <path d="M 78.335313 112.533977
L 241.302401 100.737469
L 247.122654 100.653025
L 386.80873 109.764051
L 392.628983 83.019672
L 398.449237 40.064805
L 404.26949 25.485465
L 538.135312 108.149776
L 404.26949 25.485465
L 398.449237 40.064805
L 392.628983 83.019672
L 386.80873 109.764051
L 247.122654 100.653025
L 241.302401 100.737469
L 78.335313 112.533977
L 78.335313 112.533977
" clip-path="url(#pc44aa6d5c3)" style="fill: none; stroke-dasharray: 7.4,3.2; stroke-dashoffset: 0; stroke: #000000; stroke-width: 2"/>
   </g>
   <g id="line2d_20">
    <path d="M 78.335313 99.161656
L 95.796072 98.849181
L 113.256831 98.734475
L 130.717591 98.811892
L 148.17835 99.073871
L 165.63911 99.510993
L 188.920123 100.346223
L 212.201135 101.438675
L 235.482148 102.74655
L 264.583414 104.607013
L 363.527718 111.235676
L 386.80873 112.495386
L 410.089743 113.521279
L 433.370756 114.270507
L 450.831515 114.6304
L 468.292275 114.804816
L 485.753034 114.785379
L 503.213794 114.5658
L 520.674553 114.141654
L 538.135312 113.51032
L 509.034047 114.447313
L 491.573287 114.734676
L 474.112528 114.820224
L 456.651768 114.70961
L 439.191009 114.410461
L 421.730249 113.932789
L 398.449237 113.040461
L 375.168224 111.891703
L 351.887211 110.534074
L 316.965692 108.230754
L 241.302401 103.101469
L 218.021388 101.747265
L 194.740376 100.596714
L 171.459363 99.69372
L 148.17835 99.073871
L 130.717591 98.811892
L 113.256831 98.734475
L 95.796072 98.849181
L 78.335313 99.161656
L 78.335313 99.161656
" clip-path="url(#pc44aa6d5c3)" style="fill: none; stroke: #8c8c8c; stroke-width: 2; stroke-linecap: square"/>
   </g>
   <g id="line2d_21">
    <path d="M 78.335313 141.714818
L 136.537844 127.639088
L 171.459363 119.426277
L 200.560629 112.837428
L 223.841642 107.788098
L 247.122654 102.96667
L 270.403667 98.384734
L 293.68468 94.033507
L 316.965692 89.883845
L 346.066958 84.912796
L 386.80873 78.194047
L 456.651768 66.940062
L 514.8543 57.776695
L 538.135312 54.185821
L 468.292275 65.087995
L 404.26949 75.358979
L 351.887211 83.939812
L 316.965692 89.883845
L 293.68468 94.033507
L 270.403667 98.384734
L 247.122654 102.96667
L 223.841642 107.788098
L 200.560629 112.837428
L 177.279616 118.086931
L 148.17835 124.872262
L 107.436578 134.643055
L 78.335313 141.714818
L 78.335313 141.714818
" clip-path="url(#pc44aa6d5c3)" style="fill: none; stroke: #2f6f9f; stroke-width: 2; stroke-linecap: square"/>
   </g>
   <g id="line2d_22">
    <path d="M 78.335313 75.328905
L 136.537844 85.191596
L 171.459363 90.876584
L 200.560629 95.358913
L 223.841642 98.723028
L 241.302401 101.097496
L 247.122654 102.196101
L 270.403667 108.296541
L 293.68468 114.166273
L 322.785945 121.224976
L 357.707464 129.403475
L 386.80873 136.07975
L 392.628983 110.282349
L 398.449237 68.272465
L 404.26949 54.636231
L 479.932781 113.473684
L 538.135312 158.473701
L 415.909996 63.705861
L 404.26949 54.636231
L 398.449237 68.272465
L 392.628983 110.282349
L 386.80873 136.07975
L 340.246705 125.344929
L 311.145439 118.434083
L 287.864426 112.719196
L 264.583414 106.793774
L 247.122654 102.196101
L 241.302401 101.097496
L 218.021388 97.902517
L 194.740376 94.485242
L 165.63911 89.948981
L 130.717591 84.220812
L 78.335313 75.328905
L 78.335313 75.328905
" clip-path="url(#pc44aa6d5c3)" style="fill: none; stroke: #d97720; stroke-width: 1.6; stroke-linecap: square"/>
   </g>
   <g id="patch_3">
    <path d="M 55.345313 165.123113
L 55.345313 18.836054
" style="fill: none; stroke: #000000; stroke-width: 0.8; stroke-linejoin: miter; stroke-linecap: square"/>
   </g>
   <g id="patch_4">
    <path d="M 561.125312 165.123113
L 561.125312 18.836054
" style="fill: none; stroke: #000000; stroke-width: 0.8; stroke-linejoin: miter; stroke-linecap: square"/>
   </g>
   <g id="patch_5">
    <path d="M 55.345313 165.123113
L 561.125312 165.123113
" style="fill: none; stroke: #000000; stroke-width: 0.8; stroke-linejoin: miter; stroke-linecap: square"/>
   </g>
   <g id="patch_6">
    <path d="M 55.345313 18.836054
L 561.125312 18.836054
" style="fill: none; stroke: #000000; stroke-width: 0.8; stroke-linejoin: miter; stroke-linecap: square"/>
   </g>
   <g id="text_12">
    <!-- lowest offload: -29.1% offload, 28.2 N m RMSE -->
    <g transform="translate(55.345313 14.038594) scale(0.09 -0.09)">
     <defs>
      <path id="DejaVuSans-77" d="M 269 3500
L 844 3500
L 1563 769
L 2278 3500
L 2956 3500
L 3675 769
L 4391 3500
L 4966 3500
L 4050 0
L 3372 0
L 2619 2869
L 1863 0
L 1184 0
L 269 3500
z
" transform="scale(0.015625)"/>
      <path id="DejaVuSans-73" d="M 2834 3397
L 2834 2853
Q 2591 2978 2328 3040
Q 2066 3103 1784 3103
Q 1356 3103 1142 2972
Q 928 2841 928 2578
Q 928 2378 1081 2264
Q 1234 2150 1697 2047
L 1894 2003
Q 2506 1872 2764 1633
Q 3022 1394 3022 966
Q 3022 478 2636 193
Q 2250 -91 1575 -91
Q 1294 -91 989 -36
Q 684 19 347 128
L 347 722
Q 666 556 975 473
Q 1284 391 1588 391
Q 1994 391 2212 530
Q 2431 669 2431 922
Q 2431 1156 2273 1281
Q 2116 1406 1581 1522
L 1381 1569
Q 847 1681 609 1914
Q 372 2147 372 2553
Q 372 3047 722 3315
Q 1072 3584 1716 3584
Q 2034 3584 2315 3537
Q 2597 3491 2834 3397
z
" transform="scale(0.015625)"/>
      <path id="DejaVuSans-66" d="M 2375 4863
L 2375 4384
L 1825 4384
Q 1516 4384 1395 4259
Q 1275 4134 1275 3809
L 1275 3500
L 2222 3500
L 2222 3053
L 1275 3053
L 1275 0
L 697 0
L 697 3053
L 147 3053
L 147 3500
L 697 3500
L 697 3744
Q 697 4328 969 4595
Q 1241 4863 1831 4863
L 2375 4863
z
" transform="scale(0.015625)"/>
      <path id="DejaVuSans-3a" d="M 750 794
L 1409 794
L 1409 0
L 750 0
L 750 794
z
M 750 3309
L 1409 3309
L 1409 2516
L 750 2516
L 750 3309
z
" transform="scale(0.015625)"/>
      <path id="DejaVuSans-2d" d="M 313 2009
L 1997 2009
L 1997 1497
L 313 1497
L 313 2009
z
" transform="scale(0.015625)"/>
      <path id="DejaVuSans-39" d="M 703 97
L 703 672
Q 941 559 1184 500
Q 1428 441 1663 441
Q 2288 441 2617 861
Q 2947 1281 2994 2138
Q 2813 1869 2534 1725
Q 2256 1581 1919 1581
Q 1219 1581 811 2004
Q 403 2428 403 3163
Q 403 3881 828 4315
Q 1253 4750 1959 4750
Q 2769 4750 3195 4129
Q 3622 3509 3622 2328
Q 3622 1225 3098 567
Q 2575 -91 1691 -91
Q 1453 -91 1209 -44
Q 966 3 703 97
z
M 1959 2075
Q 2384 2075 2632 2365
Q 2881 2656 2881 3163
Q 2881 3666 2632 3958
Q 2384 4250 1959 4250
Q 1534 4250 1286 3958
Q 1038 3666 1038 3163
Q 1038 2656 1286 2365
Q 1534 2075 1959 2075
z
" transform="scale(0.015625)"/>
      <path id="DejaVuSans-2e" d="M 684 794
L 1344 794
L 1344 0
L 684 0
L 684 794
z
" transform="scale(0.015625)"/>
      <path id="DejaVuSans-25" d="M 4653 2053
Q 4381 2053 4226 1822
Q 4072 1591 4072 1178
Q 4072 772 4226 539
Q 4381 306 4653 306
Q 4919 306 5073 539
Q 5228 772 5228 1178
Q 5228 1588 5073 1820
Q 4919 2053 4653 2053
z
M 4653 2450
Q 5147 2450 5437 2106
Q 5728 1763 5728 1178
Q 5728 594 5436 251
Q 5144 -91 4653 -91
Q 4153 -91 3862 251
Q 3572 594 3572 1178
Q 3572 1766 3864 2108
Q 4156 2450 4653 2450
z
M 1428 4353
Q 1159 4353 1004 4120
Q 850 3888 850 3481
Q 850 3069 1003 2837
Q 1156 2606 1428 2606
Q 1700 2606 1854 2837
Q 2009 3069 2009 3481
Q 2009 3884 1853 4118
Q 1697 4353 1428 4353
z
M 4250 4750
L 4750 4750
L 1831 -91
L 1331 -91
L 4250 4750
z
M 1428 4750
Q 1922 4750 2215 4408
Q 2509 4066 2509 3481
Q 2509 2891 2217 2550
Q 1925 2209 1428 2209
Q 931 2209 642 2551
Q 353 2894 353 3481
Q 353 4063 643 4406
Q 934 4750 1428 4750
z
" transform="scale(0.015625)"/>
      <path id="DejaVuSans-2c" d="M 750 794
L 1409 794
L 1409 256
L 897 -744
L 494 -744
L 750 256
L 750 794
z
" transform="scale(0.015625)"/>
      <path id="DejaVuSans-38" d="M 2034 2216
Q 1584 2216 1326 1975
Q 1069 1734 1069 1313
Q 1069 891 1326 650
Q 1584 409 2034 409
Q 2484 409 2743 651
Q 3003 894 3003 1313
Q 3003 1734 2745 1975
Q 2488 2216 2034 2216
z
M 1403 2484
Q 997 2584 770 2862
Q 544 3141 544 3541
Q 544 4100 942 4425
Q 1341 4750 2034 4750
Q 2731 4750 3128 4425
Q 3525 4100 3525 3541
Q 3525 3141 3298 2862
Q 3072 2584 2669 2484
Q 3125 2378 3379 2068
Q 3634 1759 3634 1313
Q 3634 634 3220 271
Q 2806 -91 2034 -91
Q 1263 -91 848 271
Q 434 634 434 1313
Q 434 1759 690 2068
Q 947 2378 1403 2484
z
M 1172 3481
Q 1172 3119 1398 2916
Q 1625 2713 2034 2713
Q 2441 2713 2670 2916
Q 2900 3119 2900 3481
Q 2900 3844 2670 4047
Q 2441 4250 2034 4250
Q 1625 4250 1398 4047
Q 1172 3844 1172 3481
z
" transform="scale(0.015625)"/>
      <path id="DejaVuSans-52" d="M 2841 2188
Q 3044 2119 3236 1894
Q 3428 1669 3622 1275
L 4263 0
L 3584 0
L 2988 1197
Q 2756 1666 2539 1819
Q 2322 1972 1947 1972
L 1259 1972
L 1259 0
L 628 0
L 628 4666
L 2053 4666
Q 2853 4666 3247 4331
Q 3641 3997 3641 3322
Q 3641 2881 3436 2590
Q 3231 2300 2841 2188
z
M 1259 4147
L 1259 2491
L 2053 2491
Q 2509 2491 2742 2702
Q 2975 2913 2975 3322
Q 2975 3731 2742 3939
Q 2509 4147 2053 4147
L 1259 4147
z
" transform="scale(0.015625)"/>
      <path id="DejaVuSans-4d" d="M 628 4666
L 1569 4666
L 2759 1491
L 3956 4666
L 4897 4666
L 4897 0
L 4281 0
L 4281 4097
L 3078 897
L 2444 897
L 1241 4097
L 1241 0
L 628 0
L 628 4666
z
" transform="scale(0.015625)"/>
      <path id="DejaVuSans-53" d="M 3425 4513
L 3425 3897
Q 3066 4069 2747 4153
Q 2428 4238 2131 4238
Q 1616 4238 1336 4038
Q 1056 3838 1056 3469
Q 1056 3159 1242 3001
Q 1428 2844 1947 2747
L 2328 2669
Q 3034 2534 3370 2195
Q 3706 1856 3706 1288
Q 3706 609 3251 259
Q 2797 -91 1919 -91
Q 1588 -91 1214 -16
Q 841 59 441 206
L 441 856
Q 825 641 1194 531
Q 1563 422 1919 422
Q 2459 422 2753 634
Q 3047 847 3047 1241
Q 3047 1584 2836 1778
Q 2625 1972 2144 2069
L 1759 2144
Q 1053 2284 737 2584
Q 422 2884 422 3419
Q 422 4038 858 4394
Q 1294 4750 2059 4750
Q 2388 4750 2728 4690
Q 3069 4631 3425 4513
z
" transform="scale(0.015625)"/>
      <path id="DejaVuSans-45" d="M 628 4666
L 3578 4666
L 3578 4134
L 1259 4134
L 1259 2753
L 3481 2753
L 3481 2222
L 1259 2222
L 1259 531
L 3634 531
L 3634 0
L 628 0
L 628 4666
z
" transform="scale(0.015625)"/>
     </defs>
     <use xlink:href="#DejaVuSans-6c"/>
     <use xlink:href="#DejaVuSans-6f" transform="translate(27.783203 0)"/>
     <use xlink:href="#DejaVuSans-77" transform="translate(88.964844 0)"/>
     <use xlink:href="#DejaVuSans-65" transform="translate(170.751953 0)"/>
     <use xlink:href="#DejaVuSans-73" transform="translate(232.275391 0)"/>
     <use xlink:href="#DejaVuSans-74" transform="translate(284.375 0)"/>
     <use xlink:href="#DejaVuSans-20" transform="translate(323.583984 0)"/>
     <use xlink:href="#DejaVuSans-6f" transform="translate(355.371094 0)"/>
     <use xlink:href="#DejaVuSans-66" transform="translate(416.552734 0)"/>
     <use xlink:href="#DejaVuSans-66" transform="translate(451.757812 0)"/>
     <use xlink:href="#DejaVuSans-6c" transform="translate(486.962891 0)"/>
     <use xlink:href="#DejaVuSans-6f" transform="translate(514.746094 0)"/>
     <use xlink:href="#DejaVuSans-61" transform="translate(575.927734 0)"/>
     <use xlink:href="#DejaVuSans-64" transform="translate(637.207031 0)"/>
     <use xlink:href="#DejaVuSans-3a" transform="translate(700.683594 0)"/>
     <use xlink:href="#DejaVuSans-20" transform="translate(734.375 0)"/>
     <use xlink:href="#DejaVuSans-2d" transform="translate(766.162109 0)"/>
     <use xlink:href="#DejaVuSans-32" transform="translate(802.246094 0)"/>
     <use xlink:href="#DejaVuSans-39" transform="translate(865.869141 0)"/>
     <use xlink:href="#DejaVuSans-2e" transform="translate(929.492188 0)"/>
     <use xlink:href="#DejaVuSans-31" transform="translate(961.279297 0)"/>
     <use xlink:href="#DejaVuSans-25" transform="translate(1024.902344 0)"/>
     <use xlink:href="#DejaVuSans-20" transform="translate(1119.921875 0)"/>
     <use xlink:href="#DejaVuSans-6f" transform="translate(1151.708984 0)"/>
     <use xlink:href="#DejaVuSans-66" transform="translate(1212.890625 0)"/>
     <use xlink:href="#DejaVuSans-66" transform="translate(1248.095703 0)"/>
     <use xlink:href="#DejaVuSans-6c" transform="translate(1283.300781 0)"/>
     <use xlink:href="#DejaVuSans-6f" transform="translate(1311.083984 0)"/>
     <use xlink:href="#DejaVuSans-61" transform="translate(1372.265625 0)"/>
     <use xlink:href="#DejaVuSans-64" transform="translate(1433.544922 0)"/>
     <use xlink:href="#DejaVuSans-2c" transform="translate(1497.021484 0)"/>
     <use xlink:href="#DejaVuSans-20" transform="translate(1528.808594 0)"/>
     <use xlink:href="#DejaVuSans-32" transform="translate(1560.595703 0)"/>
     <use xlink:href="#DejaVuSans-38" transform="translate(1624.21875 0)"/>
     <use xlink:href="#DejaVuSans-2e" transform="translate(1687.841797 0)"/>
     <use xlink:href="#DejaVuSans-32" transform="translate(1719.628906 0)"/>
     <use xlink:href="#DejaVuSans-20" transform="translate(1783.251953 0)"/>
     <use xlink:href="#DejaVuSans-4e" transform="translate(1815.039062 0)"/>
     <use xlink:href="#DejaVuSans-20" transform="translate(1889.84375 0)"/>
     <use xlink:href="#DejaVuSans-6d" transform="translate(1921.630859 0)"/>
     <use xlink:href="#DejaVuSans-20" transform="translate(2019.042969 0)"/>
     <use xlink:href="#DejaVuSans-52" transform="translate(2050.830078 0)"/>
     <use xlink:href="#DejaVuSans-4d" transform="translate(2120.3125 0)"/>
     <use xlink:href="#DejaVuSans-53" transform="translate(2206.591797 0)"/>
     <use xlink:href="#DejaVuSans-45" transform="translate(2270.068359 0)"/>
    </g>
   </g>
   <g id="legend_1">
    <g id="patch_7">
     <path d="M 199.765937 227.191265
L 416.704687 227.191265
Q 418.304688 227.191265 418.304688 225.591265
L 418.304688 202.906265
Q 418.304688 201.306265 416.704687 201.306265
L 199.765937 201.306265
Q 198.165937 201.306265 198.165937 202.906265
L 198.165937 225.591265
Q 198.165937 227.191265 199.765937 227.191265
z
" style="fill: #ffffff; opacity: 0.8; stroke: #cccccc; stroke-linejoin: miter"/>
    </g>
    <g id="line2d_23">
     <path d="M 201.365937 207.785015
L 209.365937 207.785015
L 217.365937 207.785015
" style="fill: none; stroke-dasharray: 7.4,3.2; stroke-dashoffset: 0; stroke: #000000; stroke-width: 2"/>
    </g>
    <g id="text_13">
     <!-- target -->
     <g transform="translate(223.765937 210.585015) scale(0.08 -0.08)">
      <use xlink:href="#DejaVuSans-74"/>
      <use xlink:href="#DejaVuSans-61" transform="translate(39.208984 0)"/>
      <use xlink:href="#DejaVuSans-72" transform="translate(100.488281 0)"/>
      <use xlink:href="#DejaVuSans-67" transform="translate(139.851562 0)"/>
      <use xlink:href="#DejaVuSans-65" transform="translate(203.328125 0)"/>
      <use xlink:href="#DejaVuSans-74" transform="translate(264.851562 0)"/>
     </g>
    </g>
    <g id="line2d_24">
     <path d="M 201.365937 219.527515
L 209.365937 219.527515
L 217.365937 219.527515
" style="fill: none; stroke: #8c8c8c; stroke-width: 2; stroke-linecap: square"/>
    </g>
    <g id="text_14">
     <!-- period 1 default -->
     <g transform="translate(223.765937 222.327515) scale(0.08 -0.08)">
      <defs>
       <path id="DejaVuSans-70" d="M 1159 525
L 1159 -1331
L 581 -1331
L 581 3500
L 1159 3500
L 1159 2969
Q 1341 3281 1617 3432
Q 1894 3584 2278 3584
Q 2916 3584 3314 3078
Q 3713 2572 3713 1747
Q 3713 922 3314 415
Q 2916 -91 2278 -91
Q 1894 -91 1617 61
Q 1341 213 1159 525
z
M 3116 1747
Q 3116 2381 2855 2742
Q 2594 3103 2138 3103
Q 1681 3103 1420 2742
Q 1159 2381 1159 1747
Q 1159 1113 1420 752
Q 1681 391 2138 391
Q 2594 391 2855 752
Q 3116 1113 3116 1747
z
" transform="scale(0.015625)"/>
      </defs>
      <use xlink:href="#DejaVuSans-70"/>
      <use xlink:href="#DejaVuSans-65" transform="translate(63.476562 0)"/>
      <use xlink:href="#DejaVuSans-72" transform="translate(125 0)"/>
      <use xlink:href="#DejaVuSans-69" transform="translate(166.113281 0)"/>
      <use xlink:href="#DejaVuSans-6f" transform="translate(193.896484 0)"/>
      <use xlink:href="#DejaVuSans-64" transform="translate(255.078125 0)"/>
      <use xlink:href="#DejaVuSans-20" transform="translate(318.554688 0)"/>
      <use xlink:href="#DejaVuSans-31" transform="translate(350.341797 0)"/>
      <use xlink:href="#DejaVuSans-20" transform="translate(413.964844 0)"/>
      <use xlink:href="#DejaVuSans-64" transform="translate(445.751953 0)"/>
      <use xlink:href="#DejaVuSans-65" transform="translate(509.228516 0)"/>
      <use xlink:href="#DejaVuSans-66" transform="translate(570.751953 0)"/>
      <use xlink:href="#DejaVuSans-61" transform="translate(605.957031 0)"/>
      <use xlink:href="#DejaVuSans-75" transform="translate(667.236328 0)"/>
      <use xlink:href="#DejaVuSans-6c" transform="translate(730.615234 0)"/>
      <use xlink:href="#DejaVuSans-74" transform="translate(758.398438 0)"/>
     </g>
    </g>
    <g id="line2d_25">
     <path d="M 303.575938 207.785015
L 311.575938 207.785015
L 319.575938 207.785015
" style="fill: none; stroke: #2f6f9f; stroke-width: 2; stroke-linecap: square"/>
    </g>
    <g id="text_15">
     <!-- period 6 settled -->
     <g transform="translate(325.975937 210.585015) scale(0.08 -0.08)">
      <defs>
       <path id="DejaVuSans-36" d="M 2113 2584
Q 1688 2584 1439 2293
Q 1191 2003 1191 1497
Q 1191 994 1439 701
Q 1688 409 2113 409
Q 2538 409 2786 701
Q 3034 994 3034 1497
Q 3034 2003 2786 2293
Q 2538 2584 2113 2584
z
M 3366 4563
L 3366 3988
Q 3128 4100 2886 4159
Q 2644 4219 2406 4219
Q 1781 4219 1451 3797
Q 1122 3375 1075 2522
Q 1259 2794 1537 2939
Q 1816 3084 2150 3084
Q 2853 3084 3261 2657
Q 3669 2231 3669 1497
Q 3669 778 3244 343
Q 2819 -91 2113 -91
Q 1303 -91 875 529
Q 447 1150 447 2328
Q 447 3434 972 4092
Q 1497 4750 2381 4750
Q 2619 4750 2861 4703
Q 3103 4656 3366 4563
z
" transform="scale(0.015625)"/>
      </defs>
      <use xlink:href="#DejaVuSans-70"/>
      <use xlink:href="#DejaVuSans-65" transform="translate(63.476562 0)"/>
      <use xlink:href="#DejaVuSans-72" transform="translate(125 0)"/>
      <use xlink:href="#DejaVuSans-69" transform="translate(166.113281 0)"/>
      <use xlink:href="#DejaVuSans-6f" transform="translate(193.896484 0)"/>
      <use xlink:href="#DejaVuSans-64" transform="translate(255.078125 0)"/>
      <use xlink:href="#DejaVuSans-20" transform="translate(318.554688 0)"/>
      <use xlink:href="#DejaVuSans-36" transform="translate(350.341797 0)"/>
      <use xlink:href="#DejaVuSans-20" transform="translate(413.964844 0)"/>
      <use xlink:href="#DejaVuSans-73" transform="translate(445.751953 0)"/>
      <use xlink:href="#DejaVuSans-65" transform="translate(497.851562 0)"/>
      <use xlink:href="#DejaVuSans-74" transform="translate(559.375 0)"/>
      <use xlink:href="#DejaVuSans-74" transform="translate(598.583984 0)"/>
      <use xlink:href="#DejaVuSans-6c" transform="translate(637.792969 0)"/>
      <use xlink:href="#DejaVuSans-65" transform="translate(665.576172 0)"/>
      <use xlink:href="#DejaVuSans-64" transform="translate(727.099609 0)"/>
     </g>
    </g>
    <g id="line2d_26">
     <path d="M 303.575938 219.527515
L 311.575938 219.527515
L 319.575938 219.527515
" style="fill: none; stroke: #d97720; stroke-width: 1.6; stroke-linecap: square"/>
    </g>
    <g id="text_16">
     <!-- Residual motor torque -->
     <g transform="translate(325.975937 222.327515) scale(0.08 -0.08)">
      <use xlink:href="#DejaVuSans-52"/>
      <use xlink:href="#DejaVuSans-65" transform="translate(64.982422 0)"/>
      <use xlink:href="#DejaVuSans-73" transform="translate(126.505859 0)"/>
      <use xlink:href="#DejaVuSans-69" transform="translate(178.605469 0)"/>
      <use xlink:href="#DejaVuSans-64" transform="translate(206.388672 0)"/>
      <use xlink:href="#DejaVuSans-75" transform="translate(269.865234 0)"/>
      <use xlink:href="#DejaVuSans-61" transform="translate(333.244141 0)"/>
      <use xlink:href="#DejaVuSans-6c" transform="translate(394.523438 0)"/>
      <use xlink:href="#DejaVuSans-20" transform="translate(422.306641 0)"/>
      <use xlink:href="#DejaVuSans-6d" transform="translate(454.09375 0)"/>
      <use xlink:href="#DejaVuSans-6f" transform="translate(551.505859 0)"/>
      <use xlink:href="#DejaVuSans-74" transform="translate(612.6875 0)"/>
      <use xlink:href="#DejaVuSans-6f" transform="translate(651.896484 0)"/>
      <use xlink:href="#DejaVuSans-72" transform="translate(713.078125 0)"/>
      <use xlink:href="#DejaVuSans-20" transform="translate(754.191406 0)"/>
      <use xlink:href="#DejaVuSans-74" transform="translate(785.978516 0)"/>
      <use xlink:href="#DejaVuSans-6f" transform="translate(825.1875 0)"/>
      <use xlink:href="#DejaVuSans-72" transform="translate(886.369141 0)"/>
      <use xlink:href="#DejaVuSans-71" transform="translate(925.732422 0)"/>
      <use xlink:href="#DejaVuSans-75" transform="translate(989.208984 0)"/>
      <use xlink:href="#DejaVuSans-65" transform="translate(1052.587891 0)"/>
     </g>
    </g>
   </g>
  </g>
  <g id="axes_2">
   <g id="patch_8">
    <path d="M 55.345313 401.523112
L 561.125312 401.523112
L 561.125312 255.236054
L 55.345313 255.236054
L 55.345313 401.523112
z
" style="fill: none"/>
   </g>
   <g id="matplotlib.axis_3">
    <g id="xtick_6">
     <g id="line2d_27">
      <path d="M 104.041431 401.523112
L 104.041431 255.236054
" clip-path="url(#p164b4cca66)" style="fill: none; stroke: #b0b0b0; stroke-opacity: 0.2; stroke-width: 0.8; stroke-linecap: square"/>
     </g>
     <g id="line2d_28">
      <g>
       <use xlink:href="#m17df911917" x="104.041431" y="401.523112" style="stroke: #000000; stroke-width: 0.8"/>
      </g>
     </g>
     <g id="text_17">
      <!-- −40 -->
      <g transform="translate(93.489087 416.12155) scale(0.1 -0.1)">
       <use xlink:href="#DejaVuSans-2212"/>
       <use xlink:href="#DejaVuSans-34" transform="translate(83.789062 0)"/>
       <use xlink:href="#DejaVuSans-30" transform="translate(147.412109 0)"/>
      </g>
     </g>
    </g>
    <g id="xtick_7">
     <g id="line2d_29">
      <path d="M 206.865903 401.523112
L 206.865903 255.236054
" clip-path="url(#p164b4cca66)" style="fill: none; stroke: #b0b0b0; stroke-opacity: 0.2; stroke-width: 0.8; stroke-linecap: square"/>
     </g>
     <g id="line2d_30">
      <g>
       <use xlink:href="#m17df911917" x="206.865903" y="401.523112" style="stroke: #000000; stroke-width: 0.8"/>
      </g>
     </g>
     <g id="text_18">
      <!-- −20 -->
      <g transform="translate(196.313559 416.12155) scale(0.1 -0.1)">
       <use xlink:href="#DejaVuSans-2212"/>
       <use xlink:href="#DejaVuSans-32" transform="translate(83.789062 0)"/>
       <use xlink:href="#DejaVuSans-30" transform="translate(147.412109 0)"/>
      </g>
     </g>
    </g>
    <g id="xtick_8">
     <g id="line2d_31">
      <path d="M 309.690376 401.523112
L 309.690376 255.236054
" clip-path="url(#p164b4cca66)" style="fill: none; stroke: #b0b0b0; stroke-opacity: 0.2; stroke-width: 0.8; stroke-linecap: square"/>
     </g>
     <g id="line2d_32">
      <g>
       <use xlink:href="#m17df911917" x="309.690376" y="401.523112" style="stroke: #000000; stroke-width: 0.8"/>
      </g>
     </g>
     <g id="text_19">
      <!-- 0 -->
      <g transform="translate(306.509126 416.12155) scale(0.1 -0.1)">
       <use xlink:href="#DejaVuSans-30"/>
      </g>
     </g>
    </g>
    <g id="xtick_9">
     <g id="line2d_33">
      <path d="M 412.514848 401.523112
L 412.514848 255.236054
" clip-path="url(#p164b4cca66)" style="fill: none; stroke: #b0b0b0; stroke-opacity: 0.2; stroke-width: 0.8; stroke-linecap: square"/>
     </g>
     <g id="line2d_34">
      <g>
       <use xlink:href="#m17df911917" x="412.514848" y="401.523112" style="stroke: #000000; stroke-width: 0.8"/>
      </g>
     </g>
     <g id="text_20">
      <!-- 20 -->
      <g transform="translate(406.152348 416.12155) scale(0.1 -0.1)">
       <use xlink:href="#DejaVuSans-32"/>
       <use xlink:href="#DejaVuSans-30" transform="translate(63.623047 0)"/>
      </g>
     </g>
    </g>
    <g id="xtick_10">
     <g id="line2d_35">
      <path d="M 515.339321 401.523112
L 515.339321 255.236054
" clip-path="url(#p164b4cca66)" style="fill: none; stroke: #b0b0b0; stroke-opacity: 0.2; stroke-width: 0.8; stroke-linecap: square"/>
     </g>
     <g id="line2d_36">
      <g>
       <use xlink:href="#m17df911917" x="515.339321" y="401.523112" style="stroke: #000000; stroke-width: 0.8"/>
      </g>
     </g>
     <g id="text_21">
      <!-- 40 -->
      <g transform="translate(508.976821 416.12155) scale(0.1 -0.1)">
       <use xlink:href="#DejaVuSans-34"/>
       <use xlink:href="#DejaVuSans-30" transform="translate(63.623047 0)"/>
      </g>
     </g>
    </g>
    <g id="text_22">
     <!-- Joint angle [deg] -->
     <g transform="translate(266.805625 429.799675) scale(0.1 -0.1)">
      <use xlink:href="#DejaVuSans-4a"/>
      <use xlink:href="#DejaVuSans-6f" transform="translate(29.492188 0)"/>
      <use xlink:href="#DejaVuSans-69" transform="translate(90.673828 0)"/>
      <use xlink:href="#DejaVuSans-6e" transform="translate(118.457031 0)"/>
      <use xlink:href="#DejaVuSans-74" transform="translate(181.835938 0)"/>
      <use xlink:href="#DejaVuSans-20" transform="translate(221.044922 0)"/>
      <use xlink:href="#DejaVuSans-61" transform="translate(252.832031 0)"/>
      <use xlink:href="#DejaVuSans-6e" transform="translate(314.111328 0)"/>
      <use xlink:href="#DejaVuSans-67" transform="translate(377.490234 0)"/>
      <use xlink:href="#DejaVuSans-6c" transform="translate(440.966797 0)"/>
      <use xlink:href="#DejaVuSans-65" transform="translate(468.75 0)"/>
      <use xlink:href="#DejaVuSans-20" transform="translate(530.273438 0)"/>
      <use xlink:href="#DejaVuSans-5b" transform="translate(562.060547 0)"/>
      <use xlink:href="#DejaVuSans-64" transform="translate(601.074219 0)"/>
      <use xlink:href="#DejaVuSans-65" transform="translate(664.550781 0)"/>
      <use xlink:href="#DejaVuSans-67" transform="translate(726.074219 0)"/>
      <use xlink:href="#DejaVuSans-5d" transform="translate(789.550781 0)"/>
     </g>
    </g>
   </g>
   <g id="matplotlib.axis_4">
    <g id="ytick_5">
     <g id="line2d_37">
      <path d="M 55.345313 376.412485
L 561.125312 376.412485
" clip-path="url(#p164b4cca66)" style="fill: none; stroke: #b0b0b0; stroke-opacity: 0.2; stroke-width: 0.8; stroke-linecap: square"/>
     </g>
     <g id="line2d_38">
      <g>
       <use xlink:href="#md4ac7ede8f" x="55.345313" y="376.412485" style="stroke: #000000; stroke-width: 0.8"/>
      </g>
     </g>
     <g id="text_23">
      <!-- −60 -->
      <g transform="translate(27.240625 380.211704) scale(0.1 -0.1)">
       <use xlink:href="#DejaVuSans-2212"/>
       <use xlink:href="#DejaVuSans-36" transform="translate(83.789062 0)"/>
       <use xlink:href="#DejaVuSans-30" transform="translate(147.412109 0)"/>
      </g>
     </g>
    </g>
    <g id="ytick_6">
     <g id="line2d_39">
      <path d="M 55.345313 349.832188
L 561.125312 349.832188
" clip-path="url(#p164b4cca66)" style="fill: none; stroke: #b0b0b0; stroke-opacity: 0.2; stroke-width: 0.8; stroke-linecap: square"/>
     </g>
     <g id="line2d_40">
      <g>
       <use xlink:href="#md4ac7ede8f" x="55.345313" y="349.832188" style="stroke: #000000; stroke-width: 0.8"/>
      </g>
     </g>
     <g id="text_24">
      <!-- −40 -->
      <g transform="translate(27.240625 353.631406) scale(0.1 -0.1)">
       <use xlink:href="#DejaVuSans-2212"/>
       <use xlink:href="#DejaVuSans-34" transform="translate(83.789062 0)"/>
       <use xlink:href="#DejaVuSans-30" transform="translate(147.412109 0)"/>
      </g>
     </g>
    </g>
    <g id="ytick_7">
     <g id="line2d_41">
      <path d="M 55.345313 323.25189
L 561.125312 323.25189
" clip-path="url(#p164b4cca66)" style="fill: none; stroke: #b0b0b0; stroke-opacity: 0.2; stroke-width: 0.8; stroke-linecap: square"/>
     </g>
     <g id="line2d_42">
      <g>
       <use xlink:href="#md4ac7ede8f" x="55.345313" y="323.25189" style="stroke: #000000; stroke-width: 0.8"/>
      </g>
     </g>
     <g id="text_25">
      <!-- −20 -->
      <g transform="translate(27.240625 327.051109) scale(0.1 -0.1)">
       <use xlink:href="#DejaVuSans-2212"/>
       <use xlink:href="#DejaVuSans-32" transform="translate(83.789062 0)"/>
       <use xlink:href="#DejaVuSans-30" transform="translate(147.412109 0)"/>
      </g>
     </g>
    </g>
    <g id="ytick_8">
     <g id="line2d_43">
      <path d="M 55.345313 296.671593
L 561.125312 296.671593
" clip-path="url(#p164b4cca66)" style="fill: none; stroke: #b0b0b0; stroke-opacity: 0.2; stroke-width: 0.8; stroke-linecap: square"/>
     </g>
     <g id="line2d_44">
      <g>
       <use xlink:href="#md4ac7ede8f" x="55.345313" y="296.671593" style="stroke: #000000; stroke-width: 0.8"/>
      </g>
     </g>
     <g id="text_26">
      <!-- 0 -->
      <g transform="translate(41.982813 300.470811) scale(0.1 -0.1)">
       <use xlink:href="#DejaVuSans-30"/>
      </g>
     </g>
    </g>
    <g id="ytick_9">
     <g id="line2d_45">
      <path d="M 55.345313 270.091295
L 561.125312 270.091295
" clip-path="url(#p164b4cca66)" style="fill: none; stroke: #b0b0b0; stroke-opacity: 0.2; stroke-width: 0.8; stroke-linecap: square"/>
     </g>
     <g id="line2d_46">
      <g>
       <use xlink:href="#md4ac7ede8f" x="55.345313" y="270.091295" style="stroke: #000000; stroke-width: 0.8"/>
      </g>
     </g>
     <g id="text_27">
      <!-- 20 -->
      <g transform="translate(35.620313 273.890514) scale(0.1 -0.1)">
       <use xlink:href="#DejaVuSans-32"/>
       <use xlink:href="#DejaVuSans-30" transform="translate(63.623047 0)"/>
      </g>
     </g>
    </g>
    <g id="text_28">
     <!-- Torque [N m] -->
     <g transform="translate(21.160938 360.720989) rotate(-90) scale(0.1 -0.1)">
      <use xlink:href="#DejaVuSans-54"/>
      <use xlink:href="#DejaVuSans-6f" transform="translate(44.083984 0)"/>
      <use xlink:href="#DejaVuSans-72" transform="translate(105.265625 0)"/>
      <use xlink:href="#DejaVuSans-71" transform="translate(144.628906 0)"/>
      <use xlink:href="#DejaVuSans-75" transform="translate(208.105469 0)"/>
      <use xlink:href="#DejaVuSans-65" transform="translate(271.484375 0)"/>
      <use xlink:href="#DejaVuSans-20" transform="translate(333.007812 0)"/>
      <use xlink:href="#DejaVuSans-5b" transform="translate(364.794922 0)"/>
      <use xlink:href="#DejaVuSans-4e" transform="translate(403.808594 0)"/>
      <use xlink:href="#DejaVuSans-20" transform="translate(478.613281 0)"/>
      <use xlink:href="#DejaVuSans-6d" transform="translate(510.400391 0)"/>
      <use xlink:href="#DejaVuSans-5d" transform="translate(607.8125 0)"/>
     </g>
    </g>
   </g>
   <g id="line2d_47">
    <path d="M 78.335313 299.068331
L 258.763161 299.818968
L 270.403667 308.674364
L 380.988477 393.638257
L 386.80873 394.873701
L 468.292275 311.793329
L 474.112528 315.011775
L 538.135312 365.018469
L 474.112528 315.011775
L 468.292275 311.793329
L 386.80873 394.873701
L 380.988477 393.638257
L 258.763161 299.818968
L 78.335313 299.068331
L 78.335313 299.068331
" clip-path="url(#p164b4cca66)" style="fill: none; stroke-dasharray: 7.4,3.2; stroke-dashoffset: 0; stroke: #000000; stroke-width: 2"/>
   </g>
   <g id="line2d_48">
    <path d="M 78.335313 287.940294
L 95.796072 287.430147
L 113.256831 287.242878
L 130.717591 287.369268
L 148.17835 287.796976
L 165.63911 288.510623
L 183.099869 289.491581
L 200.560629 290.71744
L 218.021388 292.161563
L 235.482148 293.792998
L 258.763161 296.197884
L 293.68468 300.101093
L 334.426452 304.675504
L 357.707464 307.088211
L 375.168224 308.723387
L 392.628983 310.166459
L 410.089743 311.383836
L 427.550502 312.346826
L 445.011262 313.031595
L 462.472021 313.41898
L 479.932781 313.494053
L 497.39354 313.245419
L 509.034047 312.895679
L 520.674553 312.396661
L 532.315059 311.747229
L 538.135312 311.365944
L 526.494806 312.090787
L 514.8543 312.664913
L 503.213794 313.089122
L 485.753034 313.447607
L 468.292275 313.47934
L 450.831515 313.194588
L 433.370756 312.607027
L 415.909996 311.734372
L 398.449237 310.598852
L 380.988477 309.227517
L 363.527718 307.652357
L 340.246705 305.298993
L 311.145439 302.089599
L 252.942907 295.576369
L 229.661895 293.230473
L 212.201135 291.657758
L 194.740376 290.283172
L 177.279616 289.136194
L 159.818857 288.242051
L 142.358097 287.621809
L 124.897338 287.292984
L 107.436578 287.269924
L 89.975819 287.563964
L 78.335313 287.940294
L 78.335313 287.940294
" clip-path="url(#p164b4cca66)" style="fill: none; stroke: #8c8c8c; stroke-width: 2; stroke-linecap: square"/>
   </g>
   <g id="line2d_49">
    <path d="M 78.335313 306.784903
L 89.975819 306.698942
L 101.616325 306.916465
L 113.256831 307.41925
L 124.897338 308.188717
L 136.537844 309.206122
L 148.17835 310.452397
L 159.818857 311.908478
L 171.459363 313.554985
L 183.099869 315.372354
L 200.560629 318.36422
L 218.021388 321.643342
L 241.302401 326.285799
L 293.68468 336.919766
L 305.325186 339.126037
L 322.785945 342.200983
L 334.426452 344.0528
L 346.066958 345.714276
L 357.707464 347.159866
L 369.347971 348.366035
L 380.988477 349.31154
L 392.628983 349.977706
L 404.26949 350.34816
L 415.909996 350.408977
L 427.550502 350.148385
L 439.191009 349.556639
L 450.831515 348.625791
L 462.472021 347.349136
L 474.112528 345.721435
L 485.753034 343.738336
L 497.39354 341.396175
L 509.034047 338.691992
L 520.674553 335.623383
L 532.315059 332.188504
L 538.135312 330.33324
L 526.494806 333.951835
L 514.8543 337.203378
L 503.213794 340.089472
L 491.573287 342.612326
L 479.932781 344.774581
L 468.292275 346.579456
L 456.651768 348.031028
L 445.011262 349.134032
L 433.370756 349.89448
L 421.730249 350.319486
L 410.089743 350.418052
L 398.449237 350.200802
L 386.80873 349.680667
L 375.168224 348.872618
L 363.527718 347.794259
L 351.887211 346.465589
L 340.246705 344.909022
L 328.606199 343.149014
L 316.965692 341.212106
L 299.504933 338.055138
L 276.22392 333.44896
L 218.021388 321.643342
L 200.560629 318.36422
L 183.099869 315.372354
L 171.459363 313.554985
L 159.818857 311.908478
L 148.17835 310.452397
L 136.537844 309.206122
L 124.897338 308.188717
L 113.256831 307.41925
L 101.616325 306.916465
L 89.975819 306.698942
L 78.335313 306.784903
L 78.335313 306.784903
" clip-path="url(#p164b4cca66)" style="fill: none; stroke: #2f6f9f; stroke-width: 2; stroke-linecap: square"/>
   </g>
   <g id="line2d_50">
    <path d="M 78.335313 288.955021
L 89.975819 289.089411
L 101.616325 288.920316
L 113.256831 288.465959
L 124.897338 287.74492
L 136.537844 286.775943
L 148.17835 285.578096
L 159.818857 284.170443
L 171.459363 282.572365
L 183.099869 280.803424
L 200.560629 277.8842
L 218.021388 274.67772
L 241.302401 270.13212
L 258.763161 266.618101
L 270.403667 273.082217
L 293.68468 286.313326
L 305.325186 293.050623
L 322.785945 303.391028
L 334.426452 310.482779
L 346.066958 317.76487
L 357.707464 325.262848
L 369.347971 333.000247
L 380.988477 340.998309
L 386.80873 341.864627
L 398.449237 329.475867
L 410.089743 317.389992
L 421.730249 305.619934
L 433.370756 294.176315
L 445.011262 283.068139
L 456.651768 272.302518
L 468.292275 261.885465
L 474.112528 265.961933
L 485.753034 277.037158
L 497.39354 288.471446
L 509.034047 300.267754
L 520.674553 312.42849
L 532.315059 324.955495
L 538.135312 331.356822
L 526.494806 318.646101
L 514.8543 306.302432
L 503.213794 294.324212
L 491.573287 282.709231
L 479.932781 271.45485
L 474.112528 265.961933
L 468.292275 261.885465
L 456.651768 272.302518
L 445.011262 283.068139
L 433.370756 294.176315
L 421.730249 305.619934
L 410.089743 317.389992
L 398.449237 329.475867
L 386.80873 341.864627
L 380.988477 340.998309
L 369.347971 333.000247
L 357.707464 325.262848
L 346.066958 317.76487
L 334.426452 310.482779
L 316.965692 299.908122
L 299.504933 289.649738
L 270.403667 273.082217
L 258.763161 266.618101
L 223.841642 273.565794
L 206.380882 276.834843
L 194.740376 278.883973
L 177.279616 281.707985
L 165.63911 283.393975
L 153.998604 284.899266
L 142.358097 286.204417
L 130.717591 287.290247
L 119.077085 288.137579
L 107.436578 288.727655
L 95.796072 289.041694
L 84.155566 289.061262
L 78.335313 288.955021
L 78.335313 288.955021
" clip-path="url(#p164b4cca66)" style="fill: none; stroke: #d97720; stroke-width: 1.6; stroke-linecap: square"/>
   </g>
   <g id="patch_9">
    <path d="M 55.345313 401.523112
L 55.345313 255.236054
" style="fill: none; stroke: #000000; stroke-width: 0.8; stroke-linejoin: miter; stroke-linecap: square"/>
   </g>
   <g id="patch_10">
    <path d="M 561.125312 401.523112
L 561.125312 255.236054
" style="fill: none; stroke: #000000; stroke-width: 0.8; stroke-linejoin: miter; stroke-linecap: square"/>
   </g>
   <g id="patch_11">
    <path d="M 55.345313 401.523112
L 561.125312 401.523112
" style="fill: none; stroke: #000000; stroke-width: 0.8; stroke-linejoin: miter; stroke-linecap: square"/>
   </g>
   <g id="patch_12">
    <path d="M 55.345313 255.236054
L 561.125312 255.236054
" style="fill: none; stroke: #000000; stroke-width: 0.8; stroke-linejoin: miter; stroke-linecap: square"/>
   </g>
   <g id="text_29">
    <!-- median offload: 43.9% offload, 15.7 N m RMSE -->
    <g transform="translate(55.345313 250.438594) scale(0.09 -0.09)">
     <defs>
      <path id="DejaVuSans-33" d="M 2597 2516
Q 3050 2419 3304 2112
Q 3559 1806 3559 1356
Q 3559 666 3084 287
Q 2609 -91 1734 -91
Q 1441 -91 1130 -33
Q 819 25 488 141
L 488 750
Q 750 597 1062 519
Q 1375 441 1716 441
Q 2309 441 2620 675
Q 2931 909 2931 1356
Q 2931 1769 2642 2001
Q 2353 2234 1838 2234
L 1294 2234
L 1294 2753
L 1863 2753
Q 2328 2753 2575 2939
Q 2822 3125 2822 3475
Q 2822 3834 2567 4026
Q 2313 4219 1838 4219
Q 1578 4219 1281 4162
Q 984 4106 628 3988
L 628 4550
Q 988 4650 1302 4700
Q 1616 4750 1894 4750
Q 2613 4750 3031 4423
Q 3450 4097 3450 3541
Q 3450 3153 3228 2886
Q 3006 2619 2597 2516
z
" transform="scale(0.015625)"/>
      <path id="DejaVuSans-37" d="M 525 4666
L 3525 4666
L 3525 4397
L 1831 0
L 1172 0
L 2766 4134
L 525 4134
L 525 4666
z
" transform="scale(0.015625)"/>
     </defs>
     <use xlink:href="#DejaVuSans-6d"/>
     <use xlink:href="#DejaVuSans-65" transform="translate(97.412109 0)"/>
     <use xlink:href="#DejaVuSans-64" transform="translate(158.935547 0)"/>
     <use xlink:href="#DejaVuSans-69" transform="translate(222.412109 0)"/>
     <use xlink:href="#DejaVuSans-61" transform="translate(250.195312 0)"/>
     <use xlink:href="#DejaVuSans-6e" transform="translate(311.474609 0)"/>
     <use xlink:href="#DejaVuSans-20" transform="translate(374.853516 0)"/>
     <use xlink:href="#DejaVuSans-6f" transform="translate(406.640625 0)"/>
     <use xlink:href="#DejaVuSans-66" transform="translate(467.822266 0)"/>
     <use xlink:href="#DejaVuSans-66" transform="translate(503.027344 0)"/>
     <use xlink:href="#DejaVuSans-6c" transform="translate(538.232422 0)"/>
     <use xlink:href="#DejaVuSans-6f" transform="translate(566.015625 0)"/>
     <use xlink:href="#DejaVuSans-61" transform="translate(627.197266 0)"/>
     <use xlink:href="#DejaVuSans-64" transform="translate(688.476562 0)"/>
     <use xlink:href="#DejaVuSans-3a" transform="translate(751.953125 0)"/>
     <use xlink:href="#DejaVuSans-20" transform="translate(785.644531 0)"/>
     <use xlink:href="#DejaVuSans-34" transform="translate(817.431641 0)"/>
     <use xlink:href="#DejaVuSans-33" transform="translate(881.054688 0)"/>
     <use xlink:href="#DejaVuSans-2e" transform="translate(944.677734 0)"/>
     <use xlink:href="#DejaVuSans-39" transform="translate(976.464844 0)"/>
     <use xlink:href="#DejaVuSans-25" transform="translate(1040.087891 0)"/>
     <use xlink:href="#DejaVuSans-20" transform="translate(1135.107422 0)"/>
     <use xlink:href="#DejaVuSans-6f" transform="translate(1166.894531 0)"/>
     <use xlink:href="#DejaVuSans-66" transform="translate(1228.076172 0)"/>
     <use xlink:href="#DejaVuSans-66" transform="translate(1263.28125 0)"/>
     <use xlink:href="#DejaVuSans-6c" transform="translate(1298.486328 0)"/>
     <use xlink:href="#DejaVuSans-6f" transform="translate(1326.269531 0)"/>
     <use xlink:href="#DejaVuSans-61" transform="translate(1387.451172 0)"/>
     <use xlink:href="#DejaVuSans-64" transform="translate(1448.730469 0)"/>
     <use xlink:href="#DejaVuSans-2c" transform="translate(1512.207031 0)"/>
     <use xlink:href="#DejaVuSans-20" transform="translate(1543.994141 0)"/>
     <use xlink:href="#DejaVuSans-31" transform="translate(1575.78125 0)"/>
     <use xlink:href="#DejaVuSans-35" transform="translate(1639.404297 0)"/>
     <use xlink:href="#DejaVuSans-2e" transform="translate(1703.027344 0)"/>
     <use xlink:href="#DejaVuSans-37" transform="translate(1734.814453 0)"/>
     <use xlink:href="#DejaVuSans-20" transform="translate(1798.4375 0)"/>
     <use xlink:href="#DejaVuSans-4e" transform="translate(1830.224609 0)"/>
     <use xlink:href="#DejaVuSans-20" transform="translate(1905.029297 0)"/>
     <use xlink:href="#DejaVuSans-6d" transform="translate(1936.816406 0)"/>
     <use xlink:href="#DejaVuSans-20" transform="translate(2034.228516 0)"/>
     <use xlink:href="#DejaVuSans-52" transform="translate(2066.015625 0)"/>
     <use xlink:href="#DejaVuSans-4d" transform="translate(2135.498047 0)"/>
     <use xlink:href="#DejaVuSans-53" transform="translate(2221.777344 0)"/>
     <use xlink:href="#DejaVuSans-45" transform="translate(2285.253906 0)"/>
    </g>
   </g>
   <g id="legend_2">
    <g id="patch_13">
     <path d="M 199.765937 463.591265
L 416.704687 463.591265
Q 418.304688 463.591265 418.304688 461.991265
L 418.304688 439.306265
Q 418.304688 437.706265 416.704687 437.706265
L 199.765937 437.706265
Q 198.165937 437.706265 198.165937 439.306265
L 198.165937 461.991265
Q 198.165937 463.591265 199.765937 463.591265
z
" style="fill: #ffffff; opacity: 0.8; stroke: #cccccc; stroke-linejoin: miter"/>
    </g>
    <g id="line2d_51">
     <path d="M 201.365937 444.185015
L 209.365937 444.185015
L 217.365937 444.185015
" style="fill: none; stroke-dasharray: 7.4,3.2; stroke-dashoffset: 0; stroke: #000000; stroke-width: 2"/>
    </g>
    <g id="text_30">
     <!-- target -->
     <g transform="translate(223.765937 446.985015) scale(0.08 -0.08)">
      <use xlink:href="#DejaVuSans-74"/>
      <use xlink:href="#DejaVuSans-61" transform="translate(39.208984 0)"/>
      <use xlink:href="#DejaVuSans-72" transform="translate(100.488281 0)"/>
      <use xlink:href="#DejaVuSans-67" transform="translate(139.851562 0)"/>
      <use xlink:href="#DejaVuSans-65" transform="translate(203.328125 0)"/>
      <use xlink:href="#DejaVuSans-74" transform="translate(264.851562 0)"/>
     </g>
    </g>
    <g id="line2d_52">
     <path d="M 201.365937 455.927515
L 209.365937 455.927515
L 217.365937 455.927515
" style="fill: none; stroke: #8c8c8c; stroke-width: 2; stroke-linecap: square"/>
    </g>
    <g id="text_31">
     <!-- period 1 default -->
     <g transform="translate(223.765937 458.727515) scale(0.08 -0.08)">
      <use xlink:href="#DejaVuSans-70"/>
      <use xlink:href="#DejaVuSans-65" transform="translate(63.476562 0)"/>
      <use xlink:href="#DejaVuSans-72" transform="translate(125 0)"/>
      <use xlink:href="#DejaVuSans-69" transform="translate(166.113281 0)"/>
      <use xlink:href="#DejaVuSans-6f" transform="translate(193.896484 0)"/>
      <use xlink:href="#DejaVuSans-64" transform="translate(255.078125 0)"/>
      <use xlink:href="#DejaVuSans-20" transform="translate(318.554688 0)"/>
      <use xlink:href="#DejaVuSans-31" transform="translate(350.341797 0)"/>
      <use xlink:href="#DejaVuSans-20" transform="translate(413.964844 0)"/>
      <use xlink:href="#DejaVuSans-64" transform="translate(445.751953 0)"/>
      <use xlink:href="#DejaVuSans-65" transform="translate(509.228516 0)"/>
      <use xlink:href="#DejaVuSans-66" transform="translate(570.751953 0)"/>
      <use xlink:href="#DejaVuSans-61" transform="translate(605.957031 0)"/>
      <use xlink:href="#DejaVuSans-75" transform="translate(667.236328 0)"/>
      <use xlink:href="#DejaVuSans-6c" transform="translate(730.615234 0)"/>
      <use xlink:href="#DejaVuSans-74" transform="translate(758.398438 0)"/>
     </g>
    </g>
    <g id="line2d_53">
     <path d="M 303.575938 444.185015
L 311.575938 444.185015
L 319.575938 444.185015
" style="fill: none; stroke: #2f6f9f; stroke-width: 2; stroke-linecap: square"/>
    </g>
    <g id="text_32">
     <!-- period 6 settled -->
     <g transform="translate(325.975937 446.985015) scale(0.08 -0.08)">
      <use xlink:href="#DejaVuSans-70"/>
      <use xlink:href="#DejaVuSans-65" transform="translate(63.476562 0)"/>
      <use xlink:href="#DejaVuSans-72" transform="translate(125 0)"/>
      <use xlink:href="#DejaVuSans-69" transform="translate(166.113281 0)"/>
      <use xlink:href="#DejaVuSans-6f" transform="translate(193.896484 0)"/>
      <use xlink:href="#DejaVuSans-64" transform="translate(255.078125 0)"/>
      <use xlink:href="#DejaVuSans-20" transform="translate(318.554688 0)"/>
      <use xlink:href="#DejaVuSans-36" transform="translate(350.341797 0)"/>
      <use xlink:href="#DejaVuSans-20" transform="translate(413.964844 0)"/>
      <use xlink:href="#DejaVuSans-73" transform="translate(445.751953 0)"/>
      <use xlink:href="#DejaVuSans-65" transform="translate(497.851562 0)"/>
      <use xlink:href="#DejaVuSans-74" transform="translate(559.375 0)"/>
      <use xlink:href="#DejaVuSans-74" transform="translate(598.583984 0)"/>
      <use xlink:href="#DejaVuSans-6c" transform="translate(637.792969 0)"/>
      <use xlink:href="#DejaVuSans-65" transform="translate(665.576172 0)"/>
      <use xlink:href="#DejaVuSans-64" transform="translate(727.099609 0)"/>
     </g>
    </g>
    <g id="line2d_54">
     <path d="M 303.575938 455.927515
L 311.575938 455.927515
L 319.575938 455.927515
" style="fill: none; stroke: #d97720; stroke-width: 1.6; stroke-linecap: square"/>
    </g>
    <g id="text_33">
     <!-- Residual motor torque -->
     <g transform="translate(325.975937 458.727515) scale(0.08 -0.08)">
      <use xlink:href="#DejaVuSans-52"/>
      <use xlink:href="#DejaVuSans-65" transform="translate(64.982422 0)"/>
      <use xlink:href="#DejaVuSans-73" transform="translate(126.505859 0)"/>
      <use xlink:href="#DejaVuSans-69" transform="translate(178.605469 0)"/>
      <use xlink:href="#DejaVuSans-64" transform="translate(206.388672 0)"/>
      <use xlink:href="#DejaVuSans-75" transform="translate(269.865234 0)"/>
      <use xlink:href="#DejaVuSans-61" transform="translate(333.244141 0)"/>
      <use xlink:href="#DejaVuSans-6c" transform="translate(394.523438 0)"/>
      <use xlink:href="#DejaVuSans-20" transform="translate(422.306641 0)"/>
      <use xlink:href="#DejaVuSans-6d" transform="translate(454.09375 0)"/>
      <use xlink:href="#DejaVuSans-6f" transform="translate(551.505859 0)"/>
      <use xlink:href="#DejaVuSans-74" transform="translate(612.6875 0)"/>
      <use xlink:href="#DejaVuSans-6f" transform="translate(651.896484 0)"/>
      <use xlink:href="#DejaVuSans-72" transform="translate(713.078125 0)"/>
      <use xlink:href="#DejaVuSans-20" transform="translate(754.191406 0)"/>
      <use xlink:href="#DejaVuSans-74" transform="translate(785.978516 0)"/>
      <use xlink:href="#DejaVuSans-6f" transform="translate(825.1875 0)"/>
      <use xlink:href="#DejaVuSans-72" transform="translate(886.369141 0)"/>
      <use xlink:href="#DejaVuSans-71" transform="translate(925.732422 0)"/>
      <use xlink:href="#DejaVuSans-75" transform="translate(989.208984 0)"/>
      <use xlink:href="#DejaVuSans-65" transform="translate(1052.587891 0)"/>
     </g>
    </g>
   </g>
  </g>
  <g id="axes_3">
   <g id="patch_14">
    <path d="M 55.345313 637.923112
L 561.125312 637.923112
L 561.125312 491.636054
L 55.345313 491.636054
L 55.345313 637.923112
z
" style="fill: none"/>
   </g>
   <g id="matplotlib.axis_5">
    <g id="xtick_11">
     <g id="line2d_55">
      <path d="M 104.041431 637.923112
L 104.041431 491.636054
" clip-path="url(#pe576297091)" style="fill: none; stroke: #b0b0b0; stroke-opacity: 0.2; stroke-width: 0.8; stroke-linecap: square"/>
     </g>
     <g id="line2d_56">
      <g>
       <use xlink:href="#m17df911917" x="104.041431" y="637.923112" style="stroke: #000000; stroke-width: 0.8"/>
      </g>
     </g>
     <g id="text_34">
      <!-- −40 -->
      <g transform="translate(93.489087 652.52155) scale(0.1 -0.1)">
       <use xlink:href="#DejaVuSans-2212"/>
       <use xlink:href="#DejaVuSans-34" transform="translate(83.789062 0)"/>
       <use xlink:href="#DejaVuSans-30" transform="translate(147.412109 0)"/>
      </g>
     </g>
    </g>
    <g id="xtick_12">
     <g id="line2d_57">
      <path d="M 206.865903 637.923112
L 206.865903 491.636054
" clip-path="url(#pe576297091)" style="fill: none; stroke: #b0b0b0; stroke-opacity: 0.2; stroke-width: 0.8; stroke-linecap: square"/>
     </g>
     <g id="line2d_58">
      <g>
       <use xlink:href="#m17df911917" x="206.865903" y="637.923112" style="stroke: #000000; stroke-width: 0.8"/>
      </g>
     </g>
     <g id="text_35">
      <!-- −20 -->
      <g transform="translate(196.313559 652.52155) scale(0.1 -0.1)">
       <use xlink:href="#DejaVuSans-2212"/>
       <use xlink:href="#DejaVuSans-32" transform="translate(83.789062 0)"/>
       <use xlink:href="#DejaVuSans-30" transform="translate(147.412109 0)"/>
      </g>
     </g>
    </g>
    <g id="xtick_13">
     <g id="line2d_59">
      <path d="M 309.690376 637.923112
L 309.690376 491.636054
" clip-path="url(#pe576297091)" style="fill: none; stroke: #b0b0b0; stroke-opacity: 0.2; stroke-width: 0.8; stroke-linecap: square"/>
     </g>
     <g id="line2d_60">
      <g>
       <use xlink:href="#m17df911917" x="309.690376" y="637.923112" style="stroke: #000000; stroke-width: 0.8"/>
      </g>
     </g>
     <g id="text_36">
      <!-- 0 -->
      <g transform="translate(306.509126 652.52155) scale(0.1 -0.1)">
       <use xlink:href="#DejaVuSans-30"/>
      </g>
     </g>
    </g>
    <g id="xtick_14">
     <g id="line2d_61">
      <path d="M 412.514848 637.923112
L 412.514848 491.636054
" clip-path="url(#pe576297091)" style="fill: none; stroke: #b0b0b0; stroke-opacity: 0.2; stroke-width: 0.8; stroke-linecap: square"/>
     </g>
     <g id="line2d_62">
      <g>
       <use xlink:href="#m17df911917" x="412.514848" y="637.923112" style="stroke: #000000; stroke-width: 0.8"/>
      </g>
     </g>
     <g id="text_37">
      <!-- 20 -->
      <g transform="translate(406.152348 652.52155) scale(0.1 -0.1)">
       <use xlink:href="#DejaVuSans-32"/>
       <use xlink:href="#DejaVuSans-30" transform="translate(63.623047 0)"/>
      </g>
     </g>
    </g>
    <g id="xtick_15">
     <g id="line2d_63">
      <path d="M 515.339321 637.923112
L 515.339321 491.636054
" clip-path="url(#pe576297091)" style="fill: none; stroke: #b0b0b0; stroke-opacity: 0.2; stroke-width: 0.8; stroke-linecap: square"/>
     </g>
     <g id="line2d_64">
      <g>
       <use xlink:href="#m17df911917" x="515.339321" y="637.923112" style="stroke: #000000; stroke-width: 0.8"/>
      </g>
     </g>
     <g id="text_38">
      <!-- 40 -->
      <g transform="translate(508.976821 652.52155) scale(0.1 -0.1)">
       <use xlink:href="#DejaVuSans-34"/>
       <use xlink:href="#DejaVuSans-30" transform="translate(63.623047 0)"/>
      </g>
     </g>
    </g>
    <g id="text_39">
     <!-- Joint angle [deg] -->
     <g transform="translate(266.805625 666.199675) scale(0.1 -0.1)">
      <use xlink:href="#DejaVuSans-4a"/>
      <use xlink:href="#DejaVuSans-6f" transform="translate(29.492188 0)"/>
      <use xlink:href="#DejaVuSans-69" transform="translate(90.673828 0)"/>
      <use xlink:href="#DejaVuSans-6e" transform="translate(118.457031 0)"/>
      <use xlink:href="#DejaVuSans-74" transform="translate(181.835938 0)"/>
      <use xlink:href="#DejaVuSans-20" transform="translate(221.044922 0)"/>
      <use xlink:href="#DejaVuSans-61" transform="translate(252.832031 0)"/>
      <use xlink:href="#DejaVuSans-6e" transform="translate(314.111328 0)"/>
      <use xlink:href="#DejaVuSans-67" transform="translate(377.490234 0)"/>
      <use xlink:href="#DejaVuSans-6c" transform="translate(440.966797 0)"/>
      <use xlink:href="#DejaVuSans-65" transform="translate(468.75 0)"/>
      <use xlink:href="#DejaVuSans-20" transform="translate(530.273438 0)"/>
      <use xlink:href="#DejaVuSans-5b" transform="translate(562.060547 0)"/>
      <use xlink:href="#DejaVuSans-64" transform="translate(601.074219 0)"/>
      <use xlink:href="#DejaVuSans-65" transform="translate(664.550781 0)"/>
      <use xlink:href="#DejaVuSans-67" transform="translate(726.074219 0)"/>
      <use xlink:href="#DejaVuSans-5d" transform="translate(789.550781 0)"/>
     </g>
    </g>
   </g>
   <g id="matplotlib.axis_6">
    <g id="ytick_10">
     <g id="line2d_65">
      <path d="M 55.345313 621.771925
L 561.125312 621.771925
" clip-path="url(#pe576297091)" style="fill: none; stroke: #b0b0b0; stroke-opacity: 0.2; stroke-width: 0.8; stroke-linecap: square"/>
     </g>
     <g id="line2d_66">
      <g>
       <use xlink:href="#md4ac7ede8f" x="55.345313" y="621.771925" style="stroke: #000000; stroke-width: 0.8"/>
      </g>
     </g>
     <g id="text_40">
      <!-- −100 -->
      <g transform="translate(20.878125 625.571144) scale(0.1 -0.1)">
       <use xlink:href="#DejaVuSans-2212"/>
       <use xlink:href="#DejaVuSans-31" transform="translate(83.789062 0)"/>
       <use xlink:href="#DejaVuSans-30" transform="translate(147.412109 0)"/>
       <use xlink:href="#DejaVuSans-30" transform="translate(211.035156 0)"/>
      </g>
     </g>
    </g>
    <g id="ytick_11">
     <g id="line2d_67">
      <path d="M 55.345313 600.237276
L 561.125312 600.237276
" clip-path="url(#pe576297091)" style="fill: none; stroke: #b0b0b0; stroke-opacity: 0.2; stroke-width: 0.8; stroke-linecap: square"/>
     </g>
     <g id="line2d_68">
      <g>
       <use xlink:href="#md4ac7ede8f" x="55.345313" y="600.237276" style="stroke: #000000; stroke-width: 0.8"/>
      </g>
     </g>
     <g id="text_41">
      <!-- −80 -->
      <g transform="translate(27.240625 604.036495) scale(0.1 -0.1)">
       <use xlink:href="#DejaVuSans-2212"/>
       <use xlink:href="#DejaVuSans-38" transform="translate(83.789062 0)"/>
       <use xlink:href="#DejaVuSans-30" transform="translate(147.412109 0)"/>
      </g>
     </g>
    </g>
    <g id="ytick_12">
     <g id="line2d_69">
      <path d="M 55.345313 578.702627
L 561.125312 578.702627
" clip-path="url(#pe576297091)" style="fill: none; stroke: #b0b0b0; stroke-opacity: 0.2; stroke-width: 0.8; stroke-linecap: square"/>
     </g>
     <g id="line2d_70">
      <g>
       <use xlink:href="#md4ac7ede8f" x="55.345313" y="578.702627" style="stroke: #000000; stroke-width: 0.8"/>
      </g>
     </g>
     <g id="text_42">
      <!-- −60 -->
      <g transform="translate(27.240625 582.501846) scale(0.1 -0.1)">
       <use xlink:href="#DejaVuSans-2212"/>
       <use xlink:href="#DejaVuSans-36" transform="translate(83.789062 0)"/>
       <use xlink:href="#DejaVuSans-30" transform="translate(147.412109 0)"/>
      </g>
     </g>
    </g>
    <g id="ytick_13">
     <g id="line2d_71">
      <path d="M 55.345313 557.167978
L 561.125312 557.167978
" clip-path="url(#pe576297091)" style="fill: none; stroke: #b0b0b0; stroke-opacity: 0.2; stroke-width: 0.8; stroke-linecap: square"/>
     </g>
     <g id="line2d_72">
      <g>
       <use xlink:href="#md4ac7ede8f" x="55.345313" y="557.167978" style="stroke: #000000; stroke-width: 0.8"/>
      </g>
     </g>
     <g id="text_43">
      <!-- −40 -->
      <g transform="translate(27.240625 560.967197) scale(0.1 -0.1)">
       <use xlink:href="#DejaVuSans-2212"/>
       <use xlink:href="#DejaVuSans-34" transform="translate(83.789062 0)"/>
       <use xlink:href="#DejaVuSans-30" transform="translate(147.412109 0)"/>
      </g>
     </g>
    </g>
    <g id="ytick_14">
     <g id="line2d_73">
      <path d="M 55.345313 535.633329
L 561.125312 535.633329
" clip-path="url(#pe576297091)" style="fill: none; stroke: #b0b0b0; stroke-opacity: 0.2; stroke-width: 0.8; stroke-linecap: square"/>
     </g>
     <g id="line2d_74">
      <g>
       <use xlink:href="#md4ac7ede8f" x="55.345313" y="535.633329" style="stroke: #000000; stroke-width: 0.8"/>
      </g>
     </g>
     <g id="text_44">
      <!-- −20 -->
      <g transform="translate(27.240625 539.432547) scale(0.1 -0.1)">
       <use xlink:href="#DejaVuSans-2212"/>
       <use xlink:href="#DejaVuSans-32" transform="translate(83.789062 0)"/>
       <use xlink:href="#DejaVuSans-30" transform="translate(147.412109 0)"/>
      </g>
     </g>
    </g>
    <g id="ytick_15">
     <g id="line2d_75">
      <path d="M 55.345313 514.09868
L 561.125312 514.09868
" clip-path="url(#pe576297091)" style="fill: none; stroke: #b0b0b0; stroke-opacity: 0.2; stroke-width: 0.8; stroke-linecap: square"/>
     </g>
     <g id="line2d_76">
      <g>
       <use xlink:href="#md4ac7ede8f" x="55.345313" y="514.09868" style="stroke: #000000; stroke-width: 0.8"/>
      </g>
     </g>
     <g id="text_45">
      <!-- 0 -->
      <g transform="translate(41.982813 517.897898) scale(0.1 -0.1)">
       <use xlink:href="#DejaVuSans-30"/>
      </g>
     </g>
    </g>
    <g id="ytick_16">
     <g id="line2d_77">
      <path d="M 55.345313 492.564031
L 561.125312 492.564031
" clip-path="url(#pe576297091)" style="fill: none; stroke: #b0b0b0; stroke-opacity: 0.2; stroke-width: 0.8; stroke-linecap: square"/>
     </g>
     <g id="line2d_78">
      <g>
       <use xlink:href="#md4ac7ede8f" x="55.345313" y="492.564031" style="stroke: #000000; stroke-width: 0.8"/>
      </g>
     </g>
     <g id="text_46">
      <!-- 20 -->
      <g transform="translate(35.620313 496.363249) scale(0.1 -0.1)">
       <use xlink:href="#DejaVuSans-32"/>
       <use xlink:href="#DejaVuSans-30" transform="translate(63.623047 0)"/>
      </g>
     </g>
    </g>
    <g id="text_47">
     <!-- Torque [N m] -->
     <g transform="translate(14.798438 597.120989) rotate(-90) scale(0.1 -0.1)">
      <use xlink:href="#DejaVuSans-54"/>
      <use xlink:href="#DejaVuSans-6f" transform="translate(44.083984 0)"/>
      <use xlink:href="#DejaVuSans-72" transform="translate(105.265625 0)"/>
      <use xlink:href="#DejaVuSans-71" transform="translate(144.628906 0)"/>
      <use xlink:href="#DejaVuSans-75" transform="translate(208.105469 0)"/>
      <use xlink:href="#DejaVuSans-65" transform="translate(271.484375 0)"/>
      <use xlink:href="#DejaVuSans-20" transform="translate(333.007812 0)"/>
      <use xlink:href="#DejaVuSans-5b" transform="translate(364.794922 0)"/>
      <use xlink:href="#DejaVuSans-4e" transform="translate(403.808594 0)"/>
      <use xlink:href="#DejaVuSans-20" transform="translate(478.613281 0)"/>
      <use xlink:href="#DejaVuSans-6d" transform="translate(510.400391 0)"/>
      <use xlink:href="#DejaVuSans-5d" transform="translate(607.8125 0)"/>
     </g>
    </g>
   </g>
   <g id="line2d_79">
    <path d="M 78.335313 584.196285
L 95.796072 623.055425
L 101.616325 631.273701
L 357.707464 603.803545
L 380.988477 601.400825
L 386.80873 601.836216
L 538.135312 620.419933
L 386.80873 601.836216
L 380.988477 601.400825
L 311.145439 608.709434
L 101.616325 631.273701
L 95.796072 623.055425
L 78.335313 584.196285
L 78.335313 584.196285
" clip-path="url(#pe576297091)" style="fill: none; stroke-dasharray: 7.4,3.2; stroke-dashoffset: 0; stroke: #000000; stroke-width: 2"/>
   </g>
   <g id="line2d_80">
    <path d="M 78.335313 507.024814
L 95.796072 506.611507
L 113.256831 506.459786
L 130.717591 506.562184
L 148.17835 506.908702
L 165.63911 507.486879
L 183.099869 508.281625
L 200.560629 509.274784
L 223.841642 510.869844
L 247.122654 512.717958
L 276.22392 515.273736
L 346.066958 521.583391
L 369.347971 523.436973
L 392.628983 525.031861
L 410.089743 526.018148
L 427.550502 526.798337
L 445.011262 527.353118
L 462.472021 527.666967
L 479.932781 527.727789
L 497.39354 527.526352
L 514.8543 527.056041
L 532.315059 526.312558
L 538.135312 526.003652
L 520.674553 526.838711
L 503.213794 527.399725
L 485.753034 527.69016
L 468.292275 527.715869
L 450.831515 527.48517
L 433.370756 527.009144
L 415.909996 526.302142
L 398.449237 525.382174
L 380.988477 524.271155
L 357.707464 522.537946
L 334.426452 520.583236
L 293.68468 516.877169
L 252.942907 513.211359
L 229.661895 511.310776
L 206.380882 509.646298
L 188.920123 508.591629
L 171.459363 507.728569
L 153.998604 507.076378
L 136.537844 506.651125
L 119.077085 506.466123
L 101.616325 506.532178
L 84.155566 506.857637
L 78.335313 507.024814
L 78.335313 507.024814
" clip-path="url(#pe576297091)" style="fill: none; stroke: #8c8c8c; stroke-width: 2; stroke-linecap: square"/>
   </g>
   <g id="line2d_81">
    <path d="M 78.335313 595.552653
L 142.358097 608.287254
L 159.818857 611.495337
L 177.279616 614.467852
L 194.740376 617.147418
L 206.380882 618.744395
L 218.021388 620.171974
L 229.661895 621.415344
L 241.302401 622.460047
L 252.942907 623.291658
L 264.583414 623.896227
L 276.22392 624.259905
L 287.864426 624.369261
L 299.504933 624.211479
L 311.145439 623.774475
L 322.785945 623.047103
L 334.426452 622.019478
L 346.066958 620.683133
L 357.707464 619.031298
L 369.347971 617.058731
L 380.988477 614.762246
L 392.628983 612.140315
L 404.26949 609.193389
L 415.909996 605.923605
L 427.550502 602.334839
L 439.191009 598.432645
L 450.831515 594.223997
L 462.472021 589.717152
L 474.112528 584.921662
L 485.753034 579.848097
L 497.39354 574.507887
L 509.034047 568.913264
L 520.674553 563.077179
L 532.315059 557.013317
L 538.135312 553.900374
L 526.494806 560.072856
L 514.8543 566.024536
L 503.213794 571.741601
L 491.573287 577.210574
L 479.932781 582.418965
L 468.292275 587.354841
L 456.651768 592.007278
L 445.011262 596.366126
L 433.370756 600.422536
L 421.730249 604.168772
L 410.089743 607.598663
L 398.449237 610.70738
L 386.80873 613.491973
L 375.168224 615.951111
L 363.527718 618.085353
L 351.887211 619.897016
L 340.246705 621.390371
L 328.606199 622.57135
L 316.965692 623.447706
L 305.325186 624.028584
L 293.68468 624.324548
L 282.044173 624.34704
L 270.403667 624.109007
L 258.763161 623.623208
L 247.122654 622.903311
L 235.482148 621.963437
L 223.841642 620.81761
L 212.201135 619.480262
L 200.560629 617.966115
L 188.920123 616.290145
L 171.459363 613.50676
L 153.998604 610.449197
L 136.537844 607.176093
L 113.256831 602.586541
L 78.335313 595.552653
L 78.335313 595.552653
" clip-path="url(#pe576297091)" style="fill: none; stroke: #2f6f9f; stroke-width: 2; stroke-linecap: square"/>
   </g>
   <g id="line2d_82">
    <path d="M 78.335313 502.742312
L 95.796072 538.090225
L 101.616325 545.131884
L 136.537844 534.435576
L 153.998604 529.282117
L 171.459363 524.344199
L 188.920123 519.680458
L 200.560629 516.750917
L 212.201135 513.9832
L 223.841642 511.392282
L 235.482148 508.992884
L 247.122654 506.79944
L 258.763161 504.825973
L 270.403667 503.086603
L 282.044173 501.595
L 293.68468 500.363921
L 305.325186 499.406314
L 316.965692 498.733622
L 328.606199 498.356408
L 340.246705 498.313893
L 351.887211 498.605888
L 363.527718 499.216191
L 375.168224 500.149074
L 380.988477 500.737258
L 386.80873 502.442923
L 398.449237 506.657033
L 410.089743 511.195266
L 421.730249 516.054674
L 433.370756 521.230426
L 445.011262 526.716354
L 456.651768 532.504718
L 468.292275 538.586671
L 479.932781 544.952065
L 491.573287 551.589972
L 503.213794 558.488462
L 514.8543 565.635044
L 526.494806 573.01624
L 538.135312 580.618239
L 520.674553 569.297159
L 509.034047 562.031557
L 497.39354 555.007418
L 485.753034 548.237691
L 474.112528 541.734609
L 462.472021 535.509603
L 450.831515 529.573241
L 439.191009 523.935076
L 427.550502 518.603365
L 415.909996 513.585083
L 404.26949 508.885782
L 392.628983 504.509339
L 386.80873 502.442923
L 380.988477 500.737258
L 369.347971 499.642133
L 357.707464 498.870927
L 346.066958 498.420451
L 334.426452 498.285465
L 322.785945 498.50744
L 311.145439 499.033638
L 299.504933 499.850205
L 287.864426 500.945993
L 276.22392 502.308919
L 264.583414 503.926168
L 252.942907 505.784308
L 241.302401 507.869489
L 229.661895 510.167762
L 218.021388 512.664702
L 206.380882 515.345852
L 194.740376 518.196399
L 177.279616 522.756321
L 159.818857 527.609191
L 142.358097 532.69763
L 119.077085 539.741379
L 101.616325 545.131884
L 95.796072 538.090225
L 78.335313 502.742312
L 78.335313 502.742312
" clip-path="url(#pe576297091)" style="fill: none; stroke: #d97720; stroke-width: 1.6; stroke-linecap: square"/>
   </g>
   <g id="patch_15">
    <path d="M 55.345313 637.923112
L 55.345313 491.636054
" style="fill: none; stroke: #000000; stroke-width: 0.8; stroke-linejoin: miter; stroke-linecap: square"/>
   </g>
   <g id="patch_16">
    <path d="M 561.125312 637.923112
L 561.125312 491.636054
" style="fill: none; stroke: #000000; stroke-width: 0.8; stroke-linejoin: miter; stroke-linecap: square"/>
   </g>
   <g id="patch_17">
    <path d="M 55.345313 637.923112
L 561.125312 637.923112
" style="fill: none; stroke: #000000; stroke-width: 0.8; stroke-linejoin: miter; stroke-linecap: square"/>
   </g>
   <g id="patch_18">
    <path d="M 55.345313 491.636054
L 561.125312 491.636054
" style="fill: none; stroke: #000000; stroke-width: 0.8; stroke-linejoin: miter; stroke-linecap: square"/>
   </g>
   <g id="text_48">
    <!-- highest offload: 82.8% offload, 21.2 N m RMSE -->
    <g transform="translate(55.345313 486.838594) scale(0.09 -0.09)">
     <defs>
      <path id="DejaVuSans-68" d="M 3513 2113
L 3513 0
L 2938 0
L 2938 2094
Q 2938 2591 2744 2837
Q 2550 3084 2163 3084
Q 1697 3084 1428 2787
Q 1159 2491 1159 1978
L 1159 0
L 581 0
L 581 4863
L 1159 4863
L 1159 2956
Q 1366 3272 1645 3428
Q 1925 3584 2291 3584
Q 2894 3584 3203 3211
Q 3513 2838 3513 2113
z
" transform="scale(0.015625)"/>
     </defs>
     <use xlink:href="#DejaVuSans-68"/>
     <use xlink:href="#DejaVuSans-69" transform="translate(63.378906 0)"/>
     <use xlink:href="#DejaVuSans-67" transform="translate(91.162109 0)"/>
     <use xlink:href="#DejaVuSans-68" transform="translate(154.638672 0)"/>
     <use xlink:href="#DejaVuSans-65" transform="translate(218.017578 0)"/>
     <use xlink:href="#DejaVuSans-73" transform="translate(279.541016 0)"/>
     <use xlink:href="#DejaVuSans-74" transform="translate(331.640625 0)"/>
     <use xlink:href="#DejaVuSans-20" transform="translate(370.849609 0)"/>
     <use xlink:href="#DejaVuSans-6f" transform="translate(402.636719 0)"/>
     <use xlink:href="#DejaVuSans-66" transform="translate(463.818359 0)"/>
     <use xlink:href="#DejaVuSans-66" transform="translate(499.023438 0)"/>
     <use xlink:href="#DejaVuSans-6c" transform="translate(534.228516 0)"/>
     <use xlink:href="#DejaVuSans-6f" transform="translate(562.011719 0)"/>
     <use xlink:href="#DejaVuSans-61" transform="translate(623.193359 0)"/>
     <use xlink:href="#DejaVuSans-64" transform="translate(684.472656 0)"/>
     <use xlink:href="#DejaVuSans-3a" transform="translate(747.949219 0)"/>
     <use xlink:href="#DejaVuSans-20" transform="translate(781.640625 0)"/>
     <use xlink:href="#DejaVuSans-38" transform="translate(813.427734 0)"/>
     <use xlink:href="#DejaVuSans-32" transform="translate(877.050781 0)"/>
     <use xlink:href="#DejaVuSans-2e" transform="translate(940.673828 0)"/>
     <use xlink:href="#DejaVuSans-38" transform="translate(972.460938 0)"/>
     <use xlink:href="#DejaVuSans-25" transform="translate(1036.083984 0)"/>
     <use xlink:href="#DejaVuSans-20" transform="translate(1131.103516 0)"/>
     <use xlink:href="#DejaVuSans-6f" transform="translate(1162.890625 0)"/>
     <use xlink:href="#DejaVuSans-66" transform="translate(1224.072266 0)"/>
     <use xlink:href="#DejaVuSans-66" transform="translate(1259.277344 0)"/>
     <use xlink:href="#DejaVuSans-6c" transform="translate(1294.482422 0)"/>
     <use xlink:href="#DejaVuSans-6f" transform="translate(1322.265625 0)"/>
     <use xlink:href="#DejaVuSans-61" transform="translate(1383.447266 0)"/>
     <use xlink:href="#DejaVuSans-64" transform="translate(1444.726562 0)"/>
     <use xlink:href="#DejaVuSans-2c" transform="translate(1508.203125 0)"/>
     <use xlink:href="#DejaVuSans-20" transform="translate(1539.990234 0)"/>
     <use xlink:href="#DejaVuSans-32" transform="translate(1571.777344 0)"/>
     <use xlink:href="#DejaVuSans-31" transform="translate(1635.400391 0)"/>
     <use xlink:href="#DejaVuSans-2e" transform="translate(1699.023438 0)"/>
     <use xlink:href="#DejaVuSans-32" transform="translate(1730.810547 0)"/>
     <use xlink:href="#DejaVuSans-20" transform="translate(1794.433594 0)"/>
     <use xlink:href="#DejaVuSans-4e" transform="translate(1826.220703 0)"/>
     <use xlink:href="#DejaVuSans-20" transform="translate(1901.025391 0)"/>
     <use xlink:href="#DejaVuSans-6d" transform="translate(1932.8125 0)"/>
     <use xlink:href="#DejaVuSans-20" transform="translate(2030.224609 0)"/>
     <use xlink:href="#DejaVuSans-52" transform="translate(2062.011719 0)"/>
     <use xlink:href="#DejaVuSans-4d" transform="translate(2131.494141 0)"/>
     <use xlink:href="#DejaVuSans-53" transform="translate(2217.773438 0)"/>
     <use xlink:href="#DejaVuSans-45" transform="translate(2281.25 0)"/>
    </g>
   </g>
   <g id="legend_3">
    <g id="patch_19">
     <path d="M 199.765937 699.991265
L 416.704687 699.991265
Q 418.304688 699.991265 418.304688 698.391265
L 418.304688 675.706265
Q 418.304688 674.106265 416.704687 674.106265
L 199.765937 674.106265
Q 198.165937 674.106265 198.165937 675.706265
L 198.165937 698.391265
Q 198.165937 699.991265 199.765937 699.991265
z
" style="fill: #ffffff; opacity: 0.8; stroke: #cccccc; stroke-linejoin: miter"/>
    </g>
    <g id="line2d_83">
     <path d="M 201.365937 680.585015
L 209.365937 680.585015
L 217.365937 680.585015
" style="fill: none; stroke-dasharray: 7.4,3.2; stroke-dashoffset: 0; stroke: #000000; stroke-width: 2"/>
    </g>
    <g id="text_49">
     <!-- target -->
     <g transform="translate(223.765937 683.385015) scale(0.08 -0.08)">
      <use xlink:href="#DejaVuSans-74"/>
      <use xlink:href="#DejaVuSans-61" transform="translate(39.208984 0)"/>
      <use xlink:href="#DejaVuSans-72" transform="translate(100.488281 0)"/>
      <use xlink:href="#DejaVuSans-67" transform="translate(139.851562 0)"/>
      <use xlink:href="#DejaVuSans-65" transform="translate(203.328125 0)"/>
      <use xlink:href="#DejaVuSans-74" transform="translate(264.851562 0)"/>
     </g>
    </g>
    <g id="line2d_84">
     <path d="M 201.365937 692.327515
L 209.365937 692.327515
L 217.365937 692.327515
" style="fill: none; stroke: #8c8c8c; stroke-width: 2; stroke-linecap: square"/>
    </g>
    <g id="text_50">
     <!-- period 1 default -->
     <g transform="translate(223.765937 695.127515) scale(0.08 -0.08)">
      <use xlink:href="#DejaVuSans-70"/>
      <use xlink:href="#DejaVuSans-65" transform="translate(63.476562 0)"/>
      <use xlink:href="#DejaVuSans-72" transform="translate(125 0)"/>
      <use xlink:href="#DejaVuSans-69" transform="translate(166.113281 0)"/>
      <use xlink:href="#DejaVuSans-6f" transform="translate(193.896484 0)"/>
      <use xlink:href="#DejaVuSans-64" transform="translate(255.078125 0)"/>
      <use xlink:href="#DejaVuSans-20" transform="translate(318.554688 0)"/>
      <use xlink:href="#DejaVuSans-31" transform="translate(350.341797 0)"/>
      <use xlink:href="#DejaVuSans-20" transform="translate(413.964844 0)"/>
      <use xlink:href="#DejaVuSans-64" transform="translate(445.751953 0)"/>
      <use xlink:href="#DejaVuSans-65" transform="translate(509.228516 0)"/>
      <use xlink:href="#DejaVuSans-66" transform="translate(570.751953 0)"/>
      <use xlink:href="#DejaVuSans-61" transform="translate(605.957031 0)"/>
      <use xlink:href="#DejaVuSans-75" transform="translate(667.236328 0)"/>
      <use xlink:href="#DejaVuSans-6c" transform="translate(730.615234 0)"/>
      <use xlink:href="#DejaVuSans-74" transform="translate(758.398438 0)"/>
     </g>
    </g>
    <g id="line2d_85">
     <path d="M 303.575938 680.585015
L 311.575938 680.585015
L 319.575938 680.585015
" style="fill: none; stroke: #2f6f9f; stroke-width: 2; stroke-linecap: square"/>
    </g>
    <g id="text_51">
     <!-- period 6 settled -->
     <g transform="translate(325.975937 683.385015) scale(0.08 -0.08)">
      <use xlink:href="#DejaVuSans-70"/>
      <use xlink:href="#DejaVuSans-65" transform="translate(63.476562 0)"/>
      <use xlink:href="#DejaVuSans-72" transform="translate(125 0)"/>
      <use xlink:href="#DejaVuSans-69" transform="translate(166.113281 0)"/>
      <use xlink:href="#DejaVuSans-6f" transform="translate(193.896484 0)"/>
      <use xlink:href="#DejaVuSans-64" transform="translate(255.078125 0)"/>
      <use xlink:href="#DejaVuSans-20" transform="translate(318.554688 0)"/>
      <use xlink:href="#DejaVuSans-36" transform="translate(350.341797 0)"/>
      <use xlink:href="#DejaVuSans-20" transform="translate(413.964844 0)"/>
      <use xlink:href="#DejaVuSans-73" transform="translate(445.751953 0)"/>
      <use xlink:href="#DejaVuSans-65" transform="translate(497.851562 0)"/>
      <use xlink:href="#DejaVuSans-74" transform="translate(559.375 0)"/>
      <use xlink:href="#DejaVuSans-74" transform="translate(598.583984 0)"/>
      <use xlink:href="#DejaVuSans-6c" transform="translate(637.792969 0)"/>
      <use xlink:href="#DejaVuSans-65" transform="translate(665.576172 0)"/>
      <use xlink:href="#DejaVuSans-64" transform="translate(727.099609 0)"/>
     </g>
    </g>
    <g id="line2d_86">
     <path d="M 303.575938 692.327515
L 311.575938 692.327515
L 319.575938 692.327515
" style="fill: none; stroke: #d97720; stroke-width: 1.6; stroke-linecap: square"/>
    </g>
    <g id="text_52">
     <!-- Residual motor torque -->
     <g transform="translate(325.975937 695.127515) scale(0.08 -0.08)">
      <use xlink:href="#DejaVuSans-52"/>
      <use xlink:href="#DejaVuSans-65" transform="translate(64.982422 0)"/>
      <use xlink:href="#DejaVuSans-73" transform="translate(126.505859 0)"/>
      <use xlink:href="#DejaVuSans-69" transform="translate(178.605469 0)"/>
      <use xlink:href="#DejaVuSans-64" transform="translate(206.388672 0)"/>
      <use xlink:href="#DejaVuSans-75" transform="translate(269.865234 0)"/>
      <use xlink:href="#DejaVuSans-61" transform="translate(333.244141 0)"/>
      <use xlink:href="#DejaVuSans-6c" transform="translate(394.523438 0)"/>
      <use xlink:href="#DejaVuSans-20" transform="translate(422.306641 0)"/>
      <use xlink:href="#DejaVuSans-6d" transform="translate(454.09375 0)"/>
      <use xlink:href="#DejaVuSans-6f" transform="translate(551.505859 0)"/>
      <use xlink:href="#DejaVuSans-74" transform="translate(612.6875 0)"/>
      <use xlink:href="#DejaVuSans-6f" transform="translate(651.896484 0)"/>
      <use xlink:href="#DejaVuSans-72" transform="translate(713.078125 0)"/>
      <use xlink:href="#DejaVuSans-20" transform="translate(754.191406 0)"/>
      <use xlink:href="#DejaVuSans-74" transform="translate(785.978516 0)"/>
      <use xlink:href="#DejaVuSans-6f" transform="translate(825.1875 0)"/>
      <use xlink:href="#DejaVuSans-72" transform="translate(886.369141 0)"/>
      <use xlink:href="#DejaVuSans-71" transform="translate(925.732422 0)"/>
      <use xlink:href="#DejaVuSans-75" transform="translate(989.208984 0)"/>
      <use xlink:href="#DejaVuSans-65" transform="translate(1052.587891 0)"/>
     </g>
    </g>
   </g>
  </g>
 </g>
 <defs>
  <clipPath id="pc44aa6d5c3">
   <rect x="55.345313" y="18.836054" width="505.78" height="146.287059"/>
  </clipPath>
  <clipPath id="p164b4cca66">
   <rect x="55.345313" y="255.236054" width="505.78" height="146.287059"/>
  </clipPath>
  <clipPath id="pe576297091">
   <rect x="55.345313" y="491.636054" width="505.78" height="146.287059"/>
  </clipPath>
 </defs>
</svg>
